<?xml version="1.0" encoding="utf-8" standalone="no"?>
<!DOCTYPE svg PUBLIC "-//W3C//DTD SVG 1.1//EN"
  "http://www.w3.org/Graphics/SVG/1.1/DTD/svg11.dtd">
<svg xmlns:xlink="http://www.w3.org/1999/xlink" width="560.81125pt" height="575.854688pt" viewBox="0 0 560.81125 575.854688" xmlns="http://www.w3.org/2000/svg" version="1.1">
 <metadata>
  <rdf:RDF xmlns:dc="http://purl.org/dc/elements/1.1/" xmlns:cc="http://creativecommons.org/ns#" xmlns:rdf="http://www.w3.org/1999/02/22-rdf-syntax-ns#">
   <cc:Work>
    <dc:type rdf:resource="http://purl.org/dc/dcmitype/StillImage"/>
    <dc:date>2026-02-05T10:34:35.840933</dc:date>
    <dc:format>image/svg+xml</dc:format>
    <dc:creator>
     <cc:Agent>
      <dc:title>Matplotlib v3.10.7, https://matplotlib.org/</dc:title>
     </cc:Agent>
    </dc:creator>
   </cc:Work>
  </rdf:RDF>
 </metadata>
 <defs>
  <style type="text/css">*{stroke-linejoin: round; stroke-linecap: butt}</style>
 </defs>
 <g id="figure_1">
  <g id="patch_1">
   <path d="M 0 575.854688 
L 560.81125 575.854688 
L 560.81125 0 
L 0 0 
z
" style="fill: #ffffff"/>
  </g>
  <g id="axes_1">
   <g id="patch_2">
    <path d="M 71.155625 300.2775 
L 489.655625 300.2775 
L 489.655625 37.4775 
L 71.155625 37.4775 
z
" style="fill: #ffffff"/>
   </g>
   <g id="matplotlib.axis_1">
    <g id="xtick_1">
     <g id="line2d_1">
      <defs>
       <path id="m9419485053" d="M 0 0 
L 0 3.5 
" style="stroke: #000000; stroke-width: 2"/>
      </defs>
      <g>
       <use xlink:href="#m9419485053" x="71.155625" y="300.2775" style="stroke: #000000; stroke-width: 2"/>
      </g>
     </g>
     <g id="text_1">
      <!-- 0 -->
      <g transform="translate(67.6075 316.793125) scale(0.14 -0.14)">
       <defs>
        <path id="Calibri-Bold-30" d="M 3069 2038 
Q 3069 1553 2991 1162 
Q 2913 772 2736 497 
Q 2559 222 2276 75 
Q 1994 -72 1584 -72 
Q 1169 -72 897 70 
Q 625 213 465 480 
Q 306 747 242 1133 
Q 178 1519 178 2006 
Q 178 2488 258 2880 
Q 338 3272 514 3547 
Q 691 3822 973 3969 
Q 1256 4116 1663 4116 
Q 2078 4116 2351 3973 
Q 2625 3831 2784 3564 
Q 2944 3297 3006 2911 
Q 3069 2525 3069 2038 
z
M 2241 1997 
Q 2241 2284 2225 2504 
Q 2209 2725 2176 2887 
Q 2144 3050 2095 3162 
Q 2047 3275 1978 3342 
Q 1909 3409 1821 3437 
Q 1734 3466 1628 3466 
Q 1444 3466 1323 3377 
Q 1203 3288 1133 3109 
Q 1063 2931 1034 2665 
Q 1006 2400 1006 2047 
Q 1006 1616 1040 1333 
Q 1075 1050 1148 883 
Q 1222 716 1337 648 
Q 1453 581 1616 581 
Q 1738 581 1831 620 
Q 1925 659 1995 737 
Q 2066 816 2112 934 
Q 2159 1053 2189 1209 
Q 2219 1366 2230 1562 
Q 2241 1759 2241 1997 
z
" transform="scale(0.015625)"/>
       </defs>
       <use xlink:href="#Calibri-Bold-30"/>
      </g>
     </g>
    </g>
    <g id="xtick_2">
     <g id="line2d_2">
      <g>
       <use xlink:href="#m9419485053" x="123.485568" y="300.2775" style="stroke: #000000; stroke-width: 2"/>
      </g>
     </g>
     <g id="text_2">
      <!-- 25 -->
      <g transform="translate(116.389318 316.793125) scale(0.14 -0.14)">
       <defs>
        <path id="Calibri-Bold-32" d="M 2988 334 
Q 2988 244 2980 180 
Q 2972 116 2956 75 
Q 2941 34 2916 17 
Q 2891 0 2859 0 
L 534 0 
Q 466 0 416 12 
Q 366 25 334 61 
Q 303 97 289 165 
Q 275 234 275 344 
Q 275 447 284 520 
Q 294 594 319 651 
Q 344 709 383 764 
Q 422 819 484 884 
L 1184 1634 
Q 1394 1853 1522 2033 
Q 1650 2213 1722 2361 
Q 1794 2509 1820 2634 
Q 1847 2759 1847 2872 
Q 1847 2975 1814 3067 
Q 1781 3159 1717 3228 
Q 1653 3297 1556 3336 
Q 1459 3375 1328 3375 
Q 1144 3375 1001 3328 
Q 859 3281 751 3223 
Q 644 3166 572 3117 
Q 500 3069 459 3069 
Q 431 3069 411 3087 
Q 391 3106 378 3150 
Q 366 3194 358 3267 
Q 350 3341 350 3447 
Q 350 3519 354 3567 
Q 359 3616 368 3652 
Q 378 3688 393 3714 
Q 409 3741 448 3778 
Q 488 3816 592 3873 
Q 697 3931 850 3986 
Q 1003 4041 1187 4078 
Q 1372 4116 1572 4116 
Q 1888 4116 2123 4036 
Q 2359 3956 2515 3814 
Q 2672 3672 2748 3476 
Q 2825 3281 2825 3056 
Q 2825 2859 2787 2668 
Q 2750 2478 2631 2258 
Q 2513 2038 2297 1770 
Q 2081 1503 1725 1150 
L 1253 666 
L 2847 666 
Q 2878 666 2904 647 
Q 2931 628 2950 589 
Q 2969 550 2978 486 
Q 2988 422 2988 334 
z
" transform="scale(0.015625)"/>
        <path id="Calibri-Bold-35" d="M 2950 1313 
Q 2950 984 2836 726 
Q 2722 469 2514 292 
Q 2306 116 2014 22 
Q 1722 -72 1366 -72 
Q 1178 -72 1009 -48 
Q 841 -25 706 11 
Q 572 47 486 83 
Q 400 119 373 142 
Q 347 166 334 194 
Q 322 222 314 261 
Q 306 300 303 359 
Q 300 419 300 500 
Q 300 588 306 648 
Q 313 709 327 746 
Q 341 784 359 800 
Q 378 816 403 816 
Q 434 816 498 780 
Q 563 744 667 700 
Q 772 656 922 620 
Q 1072 584 1281 584 
Q 1463 584 1611 621 
Q 1759 659 1862 742 
Q 1966 825 2022 950 
Q 2078 1075 2078 1250 
Q 2078 1400 2031 1517 
Q 1984 1634 1884 1715 
Q 1784 1797 1625 1837 
Q 1466 1878 1238 1878 
Q 1056 1878 907 1859 
Q 759 1841 628 1841 
Q 538 1841 498 1886 
Q 459 1931 459 2053 
L 459 3809 
Q 459 3934 507 3989 
Q 556 4044 663 4044 
L 2578 4044 
Q 2606 4044 2631 4025 
Q 2656 4006 2673 3965 
Q 2691 3925 2698 3858 
Q 2706 3791 2706 3697 
Q 2706 3509 2673 3425 
Q 2641 3341 2578 3341 
L 1141 3341 
L 1141 2475 
Q 1250 2488 1358 2491 
Q 1466 2494 1584 2494 
Q 1913 2494 2167 2417 
Q 2422 2341 2595 2192 
Q 2769 2044 2859 1823 
Q 2950 1603 2950 1313 
z
" transform="scale(0.015625)"/>
       </defs>
       <use xlink:href="#Calibri-Bold-32"/>
       <use xlink:href="#Calibri-Bold-35" transform="translate(50.683594 0)"/>
      </g>
     </g>
    </g>
    <g id="xtick_3">
     <g id="line2d_3">
      <g>
       <use xlink:href="#m9419485053" x="175.815512" y="300.2775" style="stroke: #000000; stroke-width: 2"/>
      </g>
     </g>
     <g id="text_3">
      <!-- 50 -->
      <g transform="translate(168.719262 316.793125) scale(0.14 -0.14)">
       <use xlink:href="#Calibri-Bold-35"/>
       <use xlink:href="#Calibri-Bold-30" transform="translate(50.683594 0)"/>
      </g>
     </g>
    </g>
    <g id="xtick_4">
     <g id="line2d_4">
      <g>
       <use xlink:href="#m9419485053" x="228.145455" y="300.2775" style="stroke: #000000; stroke-width: 2"/>
      </g>
     </g>
     <g id="text_4">
      <!-- 75 -->
      <g transform="translate(221.049205 316.793125) scale(0.14 -0.14)">
       <defs>
        <path id="Calibri-Bold-37" d="M 2984 3697 
Q 2984 3606 2978 3539 
Q 2972 3472 2961 3414 
Q 2950 3356 2931 3304 
Q 2913 3253 2888 3194 
L 1556 109 
Q 1538 69 1508 44 
Q 1478 19 1425 5 
Q 1372 -9 1289 -14 
Q 1206 -19 1084 -19 
Q 919 -19 822 -8 
Q 725 3 679 26 
Q 634 50 631 86 
Q 628 122 653 175 
L 2084 3331 
L 384 3331 
Q 319 3331 286 3417 
Q 253 3503 253 3691 
Q 253 3784 262 3851 
Q 272 3919 289 3962 
Q 306 4006 329 4025 
Q 353 4044 384 4044 
L 2788 4044 
Q 2844 4044 2881 4033 
Q 2919 4022 2941 3984 
Q 2963 3947 2973 3878 
Q 2984 3809 2984 3697 
z
" transform="scale(0.015625)"/>
       </defs>
       <use xlink:href="#Calibri-Bold-37"/>
       <use xlink:href="#Calibri-Bold-35" transform="translate(50.683594 0)"/>
      </g>
     </g>
    </g>
    <g id="xtick_5">
     <g id="line2d_5">
      <g>
       <use xlink:href="#m9419485053" x="280.475398" y="300.2775" style="stroke: #000000; stroke-width: 2"/>
      </g>
     </g>
     <g id="text_5">
      <!-- 100 -->
      <g transform="translate(269.831023 316.793125) scale(0.14 -0.14)">
       <defs>
        <path id="Calibri-Bold-31" d="M 2950 313 
Q 2950 225 2940 164 
Q 2931 103 2914 67 
Q 2897 31 2875 15 
Q 2853 0 2825 0 
L 594 0 
Q 569 0 547 15 
Q 525 31 508 67 
Q 491 103 481 164 
Q 472 225 472 313 
Q 472 403 480 464 
Q 488 525 505 562 
Q 522 600 544 617 
Q 566 634 594 634 
L 1347 634 
L 1347 3266 
L 697 2906 
Q 625 2872 579 2864 
Q 534 2856 507 2882 
Q 481 2909 472 2975 
Q 463 3041 463 3159 
Q 463 3234 466 3282 
Q 469 3331 481 3365 
Q 494 3400 516 3422 
Q 538 3444 575 3469 
L 1444 4031 
Q 1459 4044 1482 4051 
Q 1506 4059 1543 4064 
Q 1581 4069 1642 4070 
Q 1703 4072 1800 4072 
Q 1919 4072 1992 4067 
Q 2066 4063 2103 4052 
Q 2141 4041 2153 4022 
Q 2166 4003 2166 3975 
L 2166 634 
L 2825 634 
Q 2853 634 2876 617 
Q 2900 600 2917 562 
Q 2934 525 2942 464 
Q 2950 403 2950 313 
z
" transform="scale(0.015625)"/>
       </defs>
       <use xlink:href="#Calibri-Bold-31"/>
       <use xlink:href="#Calibri-Bold-30" transform="translate(50.683594 0)"/>
       <use xlink:href="#Calibri-Bold-30" transform="translate(101.367188 0)"/>
      </g>
     </g>
    </g>
    <g id="xtick_6">
     <g id="line2d_6">
      <g>
       <use xlink:href="#m9419485053" x="332.805342" y="300.2775" style="stroke: #000000; stroke-width: 2"/>
      </g>
     </g>
     <g id="text_6">
      <!-- 125 -->
      <g transform="translate(322.160967 316.793125) scale(0.14 -0.14)">
       <use xlink:href="#Calibri-Bold-31"/>
       <use xlink:href="#Calibri-Bold-32" transform="translate(50.683594 0)"/>
       <use xlink:href="#Calibri-Bold-35" transform="translate(101.367188 0)"/>
      </g>
     </g>
    </g>
    <g id="xtick_7">
     <g id="line2d_7">
      <g>
       <use xlink:href="#m9419485053" x="385.135285" y="300.2775" style="stroke: #000000; stroke-width: 2"/>
      </g>
     </g>
     <g id="text_7">
      <!-- 150 -->
      <g transform="translate(374.49091 316.793125) scale(0.14 -0.14)">
       <use xlink:href="#Calibri-Bold-31"/>
       <use xlink:href="#Calibri-Bold-35" transform="translate(50.683594 0)"/>
       <use xlink:href="#Calibri-Bold-30" transform="translate(101.367188 0)"/>
      </g>
     </g>
    </g>
    <g id="xtick_8">
     <g id="line2d_8">
      <g>
       <use xlink:href="#m9419485053" x="437.465228" y="300.2775" style="stroke: #000000; stroke-width: 2"/>
      </g>
     </g>
     <g id="text_8">
      <!-- 175 -->
      <g transform="translate(426.820853 316.793125) scale(0.14 -0.14)">
       <use xlink:href="#Calibri-Bold-31"/>
       <use xlink:href="#Calibri-Bold-37" transform="translate(50.683594 0)"/>
       <use xlink:href="#Calibri-Bold-35" transform="translate(101.367188 0)"/>
      </g>
     </g>
    </g>
   </g>
   <g id="matplotlib.axis_2">
    <g id="ytick_1">
     <g id="line2d_9">
      <defs>
       <path id="m41b4b37948" d="M 0 0 
L -3.5 0 
" style="stroke: #000000; stroke-width: 2"/>
      </defs>
      <g>
       <use xlink:href="#m41b4b37948" x="71.155625" y="298.645202" style="stroke: #000000; stroke-width: 2"/>
      </g>
     </g>
     <g id="text_9">
      <!-- 4 -->
      <g transform="translate(57.059375 303.403014) scale(0.14 -0.14)">
       <defs>
        <path id="Calibri-Bold-34" d="M 3113 1163 
Q 3113 1003 3080 920 
Q 3047 838 2991 838 
L 2631 838 
L 2631 106 
Q 2631 75 2612 51 
Q 2594 28 2547 12 
Q 2500 -3 2425 -11 
Q 2350 -19 2231 -19 
Q 2119 -19 2042 -11 
Q 1966 -3 1920 12 
Q 1875 28 1858 51 
Q 1841 75 1841 106 
L 1841 838 
L 294 838 
Q 250 838 215 848 
Q 181 859 157 898 
Q 134 938 123 1011 
Q 113 1084 113 1206 
Q 113 1306 117 1379 
Q 122 1453 133 1512 
Q 144 1572 164 1625 
Q 184 1678 216 1738 
L 1472 3953 
Q 1488 3981 1525 4001 
Q 1563 4022 1630 4036 
Q 1697 4050 1800 4056 
Q 1903 4063 2050 4063 
Q 2209 4063 2321 4055 
Q 2434 4047 2501 4030 
Q 2569 4013 2600 3988 
Q 2631 3963 2631 3928 
L 2631 1494 
L 2991 1494 
Q 3041 1494 3077 1417 
Q 3113 1341 3113 1163 
z
M 1841 3353 
L 1834 3353 
L 769 1494 
L 1841 1494 
L 1841 3353 
z
" transform="scale(0.015625)"/>
       </defs>
       <use xlink:href="#Calibri-Bold-34"/>
      </g>
     </g>
    </g>
    <g id="ytick_2">
     <g id="line2d_10">
      <g>
       <use xlink:href="#m41b4b37948" x="71.155625" y="265.999239" style="stroke: #000000; stroke-width: 2"/>
      </g>
     </g>
     <g id="text_10">
      <!-- 6 -->
      <g transform="translate(57.059375 270.757052) scale(0.14 -0.14)">
       <defs>
        <path id="Calibri-Bold-36" d="M 3050 1350 
Q 3050 1044 2956 783 
Q 2863 522 2681 333 
Q 2500 144 2234 36 
Q 1969 -72 1622 -72 
Q 1341 -72 1131 -8 
Q 922 56 769 176 
Q 616 297 519 469 
Q 422 641 364 856 
Q 306 1072 284 1325 
Q 263 1578 263 1863 
Q 263 2100 286 2359 
Q 309 2619 376 2869 
Q 444 3119 566 3345 
Q 688 3572 880 3742 
Q 1072 3913 1345 4013 
Q 1619 4113 1994 4113 
Q 2113 4113 2233 4098 
Q 2353 4084 2456 4062 
Q 2559 4041 2631 4012 
Q 2703 3984 2726 3964 
Q 2750 3944 2762 3919 
Q 2775 3894 2783 3864 
Q 2791 3834 2794 3790 
Q 2797 3747 2797 3684 
Q 2797 3588 2792 3523 
Q 2788 3459 2775 3423 
Q 2763 3388 2741 3372 
Q 2719 3356 2688 3356 
Q 2650 3356 2590 3376 
Q 2531 3397 2447 3422 
Q 2363 3447 2248 3465 
Q 2134 3484 1984 3484 
Q 1731 3484 1556 3390 
Q 1381 3297 1272 3136 
Q 1163 2975 1113 2762 
Q 1063 2550 1059 2313 
Q 1128 2356 1217 2400 
Q 1306 2444 1411 2475 
Q 1516 2506 1637 2526 
Q 1759 2547 1897 2547 
Q 2203 2547 2422 2462 
Q 2641 2378 2780 2222 
Q 2919 2066 2984 1844 
Q 3050 1622 3050 1350 
z
M 2244 1272 
Q 2244 1431 2216 1551 
Q 2188 1672 2125 1755 
Q 2063 1838 1959 1880 
Q 1856 1922 1709 1922 
Q 1622 1922 1537 1906 
Q 1453 1891 1372 1862 
Q 1291 1834 1216 1795 
Q 1141 1756 1075 1713 
Q 1075 1378 1112 1154 
Q 1150 931 1223 800 
Q 1297 669 1408 614 
Q 1519 559 1666 559 
Q 1809 559 1917 612 
Q 2025 666 2097 762 
Q 2169 859 2206 989 
Q 2244 1119 2244 1272 
z
" transform="scale(0.015625)"/>
       </defs>
       <use xlink:href="#Calibri-Bold-36"/>
      </g>
     </g>
    </g>
    <g id="ytick_3">
     <g id="line2d_11">
      <g>
       <use xlink:href="#m41b4b37948" x="71.155625" y="233.353276" style="stroke: #000000; stroke-width: 2"/>
      </g>
     </g>
     <g id="text_11">
      <!-- 8 -->
      <g transform="translate(57.059375 238.111089) scale(0.14 -0.14)">
       <defs>
        <path id="Calibri-Bold-38" d="M 3050 1084 
Q 3050 809 2954 593 
Q 2859 378 2673 229 
Q 2488 81 2213 4 
Q 1938 -72 1578 -72 
Q 1234 -72 975 -3 
Q 716 66 541 198 
Q 366 331 278 526 
Q 191 722 191 975 
Q 191 1147 242 1298 
Q 294 1450 395 1579 
Q 497 1709 648 1823 
Q 800 1938 997 2041 
Q 838 2128 709 2229 
Q 581 2331 490 2451 
Q 400 2572 353 2715 
Q 306 2859 306 3028 
Q 306 3272 392 3470 
Q 478 3669 648 3814 
Q 819 3959 1075 4037 
Q 1331 4116 1669 4116 
Q 2003 4116 2242 4044 
Q 2481 3972 2634 3840 
Q 2788 3709 2861 3526 
Q 2934 3344 2934 3122 
Q 2934 2975 2886 2836 
Q 2838 2697 2750 2572 
Q 2663 2447 2534 2336 
Q 2406 2225 2244 2134 
Q 2434 2034 2584 1921 
Q 2734 1809 2837 1679 
Q 2941 1550 2995 1403 
Q 3050 1256 3050 1084 
z
M 2144 3047 
Q 2144 3156 2112 3243 
Q 2081 3331 2014 3392 
Q 1947 3453 1848 3484 
Q 1750 3516 1616 3516 
Q 1353 3516 1225 3395 
Q 1097 3275 1097 3063 
Q 1097 2963 1130 2878 
Q 1163 2794 1231 2719 
Q 1300 2644 1409 2572 
Q 1519 2500 1669 2419 
Q 1897 2553 2020 2706 
Q 2144 2859 2144 3047 
z
M 2238 1028 
Q 2238 1144 2198 1239 
Q 2159 1334 2076 1418 
Q 1994 1503 1869 1581 
Q 1744 1659 1578 1741 
Q 1434 1663 1325 1584 
Q 1216 1506 1144 1420 
Q 1072 1334 1036 1239 
Q 1000 1144 1000 1034 
Q 1000 791 1158 662 
Q 1316 534 1628 534 
Q 1934 534 2086 665 
Q 2238 797 2238 1028 
z
" transform="scale(0.015625)"/>
       </defs>
       <use xlink:href="#Calibri-Bold-38"/>
      </g>
     </g>
    </g>
    <g id="ytick_4">
     <g id="line2d_12">
      <g>
       <use xlink:href="#m41b4b37948" x="71.155625" y="200.707314" style="stroke: #000000; stroke-width: 2"/>
      </g>
     </g>
     <g id="text_12">
      <!-- 10 -->
      <g transform="translate(49.963125 205.465126) scale(0.14 -0.14)">
       <use xlink:href="#Calibri-Bold-31"/>
       <use xlink:href="#Calibri-Bold-30" transform="translate(50.683594 0)"/>
      </g>
     </g>
    </g>
    <g id="ytick_5">
     <g id="line2d_13">
      <g>
       <use xlink:href="#m41b4b37948" x="71.155625" y="168.061351" style="stroke: #000000; stroke-width: 2"/>
      </g>
     </g>
     <g id="text_13">
      <!-- 12 -->
      <g transform="translate(49.963125 172.819163) scale(0.14 -0.14)">
       <use xlink:href="#Calibri-Bold-31"/>
       <use xlink:href="#Calibri-Bold-32" transform="translate(50.683594 0)"/>
      </g>
     </g>
    </g>
    <g id="ytick_6">
     <g id="line2d_14">
      <g>
       <use xlink:href="#m41b4b37948" x="71.155625" y="135.415388" style="stroke: #000000; stroke-width: 2"/>
      </g>
     </g>
     <g id="text_14">
      <!-- 14 -->
      <g transform="translate(49.963125 140.173201) scale(0.14 -0.14)">
       <use xlink:href="#Calibri-Bold-31"/>
       <use xlink:href="#Calibri-Bold-34" transform="translate(50.683594 0)"/>
      </g>
     </g>
    </g>
    <g id="ytick_7">
     <g id="line2d_15">
      <g>
       <use xlink:href="#m41b4b37948" x="71.155625" y="102.769425" style="stroke: #000000; stroke-width: 2"/>
      </g>
     </g>
     <g id="text_15">
      <!-- 16 -->
      <g transform="translate(49.963125 107.527238) scale(0.14 -0.14)">
       <use xlink:href="#Calibri-Bold-31"/>
       <use xlink:href="#Calibri-Bold-36" transform="translate(50.683594 0)"/>
      </g>
     </g>
    </g>
    <g id="ytick_8">
     <g id="line2d_16">
      <g>
       <use xlink:href="#m41b4b37948" x="71.155625" y="70.123463" style="stroke: #000000; stroke-width: 2"/>
      </g>
     </g>
     <g id="text_16">
      <!-- 18 -->
      <g transform="translate(49.963125 74.881275) scale(0.14 -0.14)">
       <use xlink:href="#Calibri-Bold-31"/>
       <use xlink:href="#Calibri-Bold-38" transform="translate(50.683594 0)"/>
      </g>
     </g>
    </g>
    <g id="ytick_9">
     <g id="line2d_17">
      <g>
       <use xlink:href="#m41b4b37948" x="71.155625" y="37.4775" style="stroke: #000000; stroke-width: 2"/>
      </g>
     </g>
     <g id="text_17">
      <!-- 20 -->
      <g transform="translate(49.963125 42.235313) scale(0.14 -0.14)">
       <use xlink:href="#Calibri-Bold-32"/>
       <use xlink:href="#Calibri-Bold-30" transform="translate(50.683594 0)"/>
      </g>
     </g>
    </g>
    <g id="text_18">
     <!-- Glucose (mmol/L) -->
     <g transform="translate(43.4825 220.605313) rotate(-90) scale(0.14 -0.14)">
      <defs>
       <path id="Calibri-Bold-47" d="M 3684 3416 
Q 3684 3325 3676 3259 
Q 3669 3194 3655 3155 
Q 3641 3116 3620 3100 
Q 3600 3084 3572 3084 
Q 3531 3084 3440 3140 
Q 3350 3197 3200 3262 
Q 3050 3328 2842 3384 
Q 2634 3441 2359 3441 
Q 2066 3441 1828 3339 
Q 1591 3238 1422 3052 
Q 1253 2866 1162 2605 
Q 1072 2344 1072 2028 
Q 1072 1681 1164 1417 
Q 1256 1153 1422 975 
Q 1588 797 1820 706 
Q 2053 616 2334 616 
Q 2472 616 2606 647 
Q 2741 678 2856 741 
L 2856 1678 
L 2091 1678 
Q 2034 1678 2003 1748 
Q 1972 1819 1972 1988 
Q 1972 2075 1980 2134 
Q 1988 2194 2003 2230 
Q 2019 2266 2041 2283 
Q 2063 2300 2091 2300 
L 3456 2300 
Q 3506 2300 3545 2283 
Q 3584 2266 3614 2231 
Q 3644 2197 3659 2148 
Q 3675 2100 3675 2038 
L 3675 428 
Q 3675 334 3642 264 
Q 3609 194 3507 153 
Q 3406 113 3256 69 
Q 3106 25 2945 -6 
Q 2784 -38 2620 -53 
Q 2456 -69 2291 -69 
Q 1806 -69 1423 70 
Q 1041 209 775 473 
Q 509 738 368 1117 
Q 228 1497 228 1978 
Q 228 2475 378 2870 
Q 528 3266 803 3542 
Q 1078 3819 1467 3966 
Q 1856 4113 2334 4113 
Q 2597 4113 2812 4077 
Q 3028 4041 3189 3989 
Q 3350 3938 3456 3878 
Q 3563 3819 3605 3775 
Q 3647 3731 3665 3651 
Q 3684 3572 3684 3416 
z
" transform="scale(0.015625)"/>
       <path id="Calibri-Bold-6c" d="M 1181 106 
Q 1181 75 1162 51 
Q 1144 28 1098 12 
Q 1053 -3 978 -11 
Q 903 -19 788 -19 
Q 672 -19 597 -11 
Q 522 -3 476 12 
Q 431 28 412 51 
Q 394 75 394 106 
L 394 4216 
Q 394 4247 412 4272 
Q 431 4297 476 4314 
Q 522 4331 597 4340 
Q 672 4350 788 4350 
Q 903 4350 978 4340 
Q 1053 4331 1098 4314 
Q 1144 4297 1162 4272 
Q 1181 4247 1181 4216 
L 1181 106 
z
" transform="scale(0.015625)"/>
       <path id="Calibri-Bold-75" d="M 3038 106 
Q 3038 75 3022 51 
Q 3006 28 2967 12 
Q 2928 -3 2864 -11 
Q 2800 -19 2703 -19 
Q 2600 -19 2536 -11 
Q 2472 -3 2434 12 
Q 2397 28 2381 51 
Q 2366 75 2366 106 
L 2366 428 
Q 2134 178 1895 53 
Q 1656 -72 1400 -72 
Q 1113 -72 917 22 
Q 722 116 601 278 
Q 481 441 429 655 
Q 378 869 378 1188 
L 378 2894 
Q 378 2925 395 2948 
Q 413 2972 458 2987 
Q 503 3003 579 3011 
Q 656 3019 769 3019 
Q 884 3019 959 3011 
Q 1034 3003 1079 2987 
Q 1125 2972 1144 2948 
Q 1163 2925 1163 2894 
L 1163 1319 
Q 1163 1100 1191 984 
Q 1219 869 1276 786 
Q 1334 703 1423 658 
Q 1513 613 1631 613 
Q 1781 613 1932 722 
Q 2084 831 2256 1041 
L 2256 2894 
Q 2256 2925 2273 2948 
Q 2291 2972 2336 2987 
Q 2381 3003 2456 3011 
Q 2531 3019 2647 3019 
Q 2763 3019 2838 3011 
Q 2913 3003 2956 2987 
Q 3000 2972 3019 2948 
Q 3038 2925 3038 2894 
L 3038 106 
z
" transform="scale(0.015625)"/>
       <path id="Calibri-Bold-63" d="M 2503 550 
Q 2503 469 2498 414 
Q 2494 359 2486 321 
Q 2478 284 2467 261 
Q 2456 238 2418 202 
Q 2381 166 2290 114 
Q 2200 63 2084 22 
Q 1969 -19 1833 -44 
Q 1697 -69 1553 -69 
Q 1231 -69 982 31 
Q 734 131 565 326 
Q 397 522 311 803 
Q 225 1084 225 1447 
Q 225 1866 329 2170 
Q 434 2475 621 2675 
Q 809 2875 1065 2972 
Q 1322 3069 1628 3069 
Q 1753 3069 1873 3047 
Q 1994 3025 2098 2987 
Q 2203 2950 2286 2903 
Q 2369 2856 2403 2822 
Q 2438 2788 2452 2764 
Q 2466 2741 2473 2703 
Q 2481 2666 2486 2611 
Q 2491 2556 2491 2478 
Q 2491 2297 2459 2223 
Q 2428 2150 2378 2150 
Q 2325 2150 2265 2194 
Q 2206 2238 2125 2291 
Q 2044 2344 1931 2387 
Q 1819 2431 1663 2431 
Q 1356 2431 1193 2195 
Q 1031 1959 1031 1503 
Q 1031 1278 1072 1106 
Q 1113 934 1192 818 
Q 1272 703 1392 645 
Q 1513 588 1672 588 
Q 1834 588 1951 636 
Q 2069 684 2156 743 
Q 2244 803 2303 851 
Q 2363 900 2403 900 
Q 2431 900 2450 884 
Q 2469 869 2480 826 
Q 2491 784 2497 718 
Q 2503 653 2503 550 
z
" transform="scale(0.015625)"/>
       <path id="Calibri-Bold-6f" d="M 3213 1528 
Q 3213 1172 3119 878 
Q 3025 584 2834 371 
Q 2644 159 2356 43 
Q 2069 -72 1684 -72 
Q 1313 -72 1038 31 
Q 763 134 581 331 
Q 400 528 312 815 
Q 225 1103 225 1472 
Q 225 1828 320 2123 
Q 416 2419 606 2630 
Q 797 2841 1083 2956 
Q 1369 3072 1753 3072 
Q 2128 3072 2403 2970 
Q 2678 2869 2858 2672 
Q 3038 2475 3125 2187 
Q 3213 1900 3213 1528 
z
M 2403 1497 
Q 2403 1703 2370 1876 
Q 2338 2050 2259 2178 
Q 2181 2306 2051 2378 
Q 1922 2450 1725 2450 
Q 1550 2450 1419 2386 
Q 1288 2322 1203 2198 
Q 1119 2075 1076 1901 
Q 1034 1728 1034 1506 
Q 1034 1300 1068 1126 
Q 1103 953 1179 825 
Q 1256 697 1387 626 
Q 1519 556 1713 556 
Q 1891 556 2022 620 
Q 2153 684 2237 806 
Q 2322 928 2362 1101 
Q 2403 1275 2403 1497 
z
" transform="scale(0.015625)"/>
       <path id="Calibri-Bold-73" d="M 2356 894 
Q 2356 656 2267 475 
Q 2178 294 2015 172 
Q 1853 50 1631 -11 
Q 1409 -72 1150 -72 
Q 994 -72 851 -48 
Q 709 -25 596 11 
Q 484 47 409 84 
Q 334 122 300 155 
Q 266 188 247 258 
Q 228 328 228 466 
Q 228 556 234 611 
Q 241 666 253 698 
Q 266 731 284 742 
Q 303 753 331 753 
Q 366 753 433 714 
Q 500 675 600 628 
Q 700 581 833 540 
Q 966 500 1134 500 
Q 1241 500 1323 522 
Q 1406 544 1467 584 
Q 1528 625 1559 687 
Q 1591 750 1591 831 
Q 1591 925 1533 992 
Q 1475 1059 1379 1109 
Q 1284 1159 1164 1203 
Q 1044 1247 917 1300 
Q 791 1353 670 1422 
Q 550 1491 454 1591 
Q 359 1691 301 1831 
Q 244 1972 244 2169 
Q 244 2369 322 2536 
Q 400 2703 547 2822 
Q 694 2941 905 3006 
Q 1116 3072 1378 3072 
Q 1509 3072 1632 3053 
Q 1756 3034 1856 3006 
Q 1956 2978 2025 2945 
Q 2094 2913 2123 2889 
Q 2153 2866 2165 2842 
Q 2178 2819 2184 2786 
Q 2191 2753 2195 2704 
Q 2200 2656 2200 2584 
Q 2200 2500 2195 2447 
Q 2191 2394 2180 2362 
Q 2169 2331 2150 2320 
Q 2131 2309 2106 2309 
Q 2078 2309 2018 2342 
Q 1959 2375 1870 2412 
Q 1781 2450 1664 2483 
Q 1547 2516 1397 2516 
Q 1291 2516 1212 2494 
Q 1134 2472 1084 2431 
Q 1034 2391 1009 2336 
Q 984 2281 984 2219 
Q 984 2122 1043 2056 
Q 1103 1991 1200 1941 
Q 1297 1891 1420 1847 
Q 1544 1803 1670 1751 
Q 1797 1700 1920 1631 
Q 2044 1563 2141 1463 
Q 2238 1363 2297 1223 
Q 2356 1084 2356 894 
z
" transform="scale(0.015625)"/>
       <path id="Calibri-Bold-65" d="M 2969 1581 
Q 2969 1438 2905 1369 
Q 2841 1300 2728 1300 
L 1031 1300 
Q 1031 1122 1073 976 
Q 1116 831 1208 729 
Q 1300 628 1445 575 
Q 1591 522 1794 522 
Q 2000 522 2156 551 
Q 2313 581 2427 617 
Q 2541 653 2616 683 
Q 2691 713 2738 713 
Q 2766 713 2784 702 
Q 2803 691 2815 662 
Q 2828 634 2833 582 
Q 2838 531 2838 453 
Q 2838 384 2834 336 
Q 2831 288 2825 253 
Q 2819 219 2806 195 
Q 2794 172 2773 150 
Q 2753 128 2662 90 
Q 2572 53 2431 17 
Q 2291 -19 2109 -45 
Q 1928 -72 1722 -72 
Q 1350 -72 1070 22 
Q 791 116 603 306 
Q 416 497 323 787 
Q 231 1078 231 1469 
Q 231 1841 328 2139 
Q 425 2438 609 2645 
Q 794 2853 1058 2962 
Q 1322 3072 1653 3072 
Q 2003 3072 2251 2969 
Q 2500 2866 2659 2683 
Q 2819 2500 2894 2250 
Q 2969 2000 2969 1706 
L 2969 1581 
z
M 2206 1806 
Q 2216 2138 2073 2327 
Q 1931 2516 1634 2516 
Q 1484 2516 1373 2459 
Q 1263 2403 1189 2308 
Q 1116 2213 1077 2083 
Q 1038 1953 1031 1806 
L 2206 1806 
z
" transform="scale(0.015625)"/>
       <path id="Calibri-Bold-20" transform="scale(0.015625)"/>
       <path id="Calibri-Bold-28" d="M 1672 4275 
Q 1409 3666 1275 3017 
Q 1141 2369 1141 1688 
Q 1141 1003 1277 357 
Q 1413 -288 1669 -906 
Q 1688 -956 1688 -992 
Q 1688 -1028 1653 -1053 
Q 1619 -1078 1548 -1090 
Q 1478 -1103 1353 -1103 
Q 1266 -1103 1203 -1097 
Q 1141 -1091 1098 -1080 
Q 1056 -1069 1032 -1051 
Q 1009 -1034 1000 -1013 
Q 831 -688 706 -358 
Q 581 -28 498 308 
Q 416 644 375 986 
Q 334 1328 334 1681 
Q 334 2031 376 2373 
Q 419 2716 503 3052 
Q 588 3388 711 3719 
Q 834 4050 1000 4378 
Q 1006 4394 1025 4406 
Q 1044 4419 1081 4430 
Q 1119 4441 1183 4445 
Q 1247 4450 1347 4450 
Q 1459 4450 1531 4439 
Q 1603 4428 1640 4406 
Q 1678 4384 1683 4350 
Q 1688 4316 1672 4275 
z
" transform="scale(0.015625)"/>
       <path id="Calibri-Bold-6d" d="M 4828 106 
Q 4828 75 4809 51 
Q 4791 28 4747 12 
Q 4703 -3 4628 -11 
Q 4553 -19 4438 -19 
Q 4319 -19 4244 -11 
Q 4169 -3 4123 12 
Q 4078 28 4061 51 
Q 4044 75 4044 106 
L 4044 1759 
Q 4044 1900 4017 2015 
Q 3991 2131 3936 2214 
Q 3881 2297 3798 2342 
Q 3716 2388 3600 2388 
Q 3459 2388 3315 2278 
Q 3172 2169 3003 1959 
L 3003 106 
Q 3003 75 2984 51 
Q 2966 28 2920 12 
Q 2875 -3 2800 -11 
Q 2725 -19 2613 -19 
Q 2497 -19 2422 -11 
Q 2347 -3 2301 12 
Q 2256 28 2237 51 
Q 2219 75 2219 106 
L 2219 1759 
Q 2219 1900 2192 2015 
Q 2166 2131 2112 2214 
Q 2059 2297 1975 2342 
Q 1891 2388 1778 2388 
Q 1634 2388 1490 2278 
Q 1347 2169 1181 1959 
L 1181 106 
Q 1181 75 1162 51 
Q 1144 28 1098 12 
Q 1053 -3 978 -11 
Q 903 -19 788 -19 
Q 672 -19 597 -11 
Q 522 -3 476 12 
Q 431 28 412 51 
Q 394 75 394 106 
L 394 2894 
Q 394 2925 409 2948 
Q 425 2972 465 2987 
Q 506 3003 570 3011 
Q 634 3019 731 3019 
Q 831 3019 897 3011 
Q 963 3003 998 2987 
Q 1034 2972 1050 2948 
Q 1066 2925 1066 2894 
L 1066 2572 
Q 1297 2822 1526 2947 
Q 1756 3072 2006 3072 
Q 2178 3072 2315 3036 
Q 2453 3000 2561 2933 
Q 2669 2866 2747 2772 
Q 2825 2678 2878 2563 
Q 3003 2697 3123 2794 
Q 3244 2891 3361 2952 
Q 3478 3013 3595 3042 
Q 3713 3072 3834 3072 
Q 4113 3072 4303 2978 
Q 4494 2884 4611 2723 
Q 4728 2563 4778 2347 
Q 4828 2131 4828 1891 
L 4828 106 
z
" transform="scale(0.015625)"/>
       <path id="Calibri-Bold-2f" d="M 788 -809 
Q 772 -850 747 -875 
Q 722 -900 676 -915 
Q 631 -931 564 -939 
Q 497 -947 394 -947 
Q 266 -947 184 -934 
Q 103 -922 61 -897 
Q 19 -872 12 -833 
Q 6 -794 25 -741 
L 1894 4506 
Q 1906 4547 1931 4573 
Q 1956 4600 2000 4615 
Q 2044 4631 2114 4639 
Q 2184 4647 2284 4647 
Q 2416 4647 2495 4634 
Q 2575 4622 2615 4597 
Q 2656 4572 2662 4533 
Q 2669 4494 2653 4441 
L 788 -809 
z
" transform="scale(0.015625)"/>
       <path id="Calibri-Bold-4c" d="M 2663 344 
Q 2663 250 2655 186 
Q 2647 122 2631 80 
Q 2616 38 2592 19 
Q 2569 0 2538 0 
L 684 0 
Q 581 0 511 61 
Q 441 122 441 259 
L 441 3931 
Q 441 3963 461 3988 
Q 481 4013 528 4028 
Q 575 4044 654 4053 
Q 734 4063 853 4063 
Q 975 4063 1053 4053 
Q 1131 4044 1178 4028 
Q 1225 4013 1245 3988 
Q 1266 3963 1266 3931 
L 1266 678 
L 2538 678 
Q 2569 678 2592 661 
Q 2616 644 2631 605 
Q 2647 566 2655 502 
Q 2663 438 2663 344 
z
" transform="scale(0.015625)"/>
       <path id="Calibri-Bold-29" d="M 1656 1681 
Q 1656 1328 1615 986 
Q 1575 644 1492 308 
Q 1409 -28 1286 -358 
Q 1163 -688 994 -1013 
Q 984 -1034 961 -1051 
Q 938 -1069 895 -1080 
Q 853 -1091 790 -1097 
Q 728 -1103 641 -1103 
Q 513 -1103 442 -1090 
Q 372 -1078 337 -1053 
Q 303 -1028 303 -992 
Q 303 -956 322 -906 
Q 581 -294 717 354 
Q 853 1003 853 1688 
Q 853 2369 718 3017 
Q 584 3666 319 4275 
Q 303 4316 308 4350 
Q 313 4384 352 4406 
Q 391 4428 461 4439 
Q 531 4450 647 4450 
Q 744 4450 806 4445 
Q 869 4441 909 4430 
Q 950 4419 967 4406 
Q 984 4394 994 4378 
Q 1319 3722 1487 3051 
Q 1656 2381 1656 1681 
z
" transform="scale(0.015625)"/>
      </defs>
      <use xlink:href="#Calibri-Bold-47"/>
      <use xlink:href="#Calibri-Bold-6c" transform="translate(63.720703 0)"/>
      <use xlink:href="#Calibri-Bold-75" transform="translate(88.28125 0)"/>
      <use xlink:href="#Calibri-Bold-63" transform="translate(141.943359 0)"/>
      <use xlink:href="#Calibri-Bold-6f" transform="translate(183.789062 0)"/>
      <use xlink:href="#Calibri-Bold-73" transform="translate(237.548828 0)"/>
      <use xlink:href="#Calibri-Bold-65" transform="translate(277.441406 0)"/>
      <use xlink:href="#Calibri-Bold-20" transform="translate(327.783203 0)"/>
      <use xlink:href="#Calibri-Bold-28" transform="translate(350.390625 0)"/>
      <use xlink:href="#Calibri-Bold-6d" transform="translate(381.542969 0)"/>
      <use xlink:href="#Calibri-Bold-6d" transform="translate(462.890625 0)"/>
      <use xlink:href="#Calibri-Bold-6f" transform="translate(544.238281 0)"/>
      <use xlink:href="#Calibri-Bold-6c" transform="translate(597.998047 0)"/>
      <use xlink:href="#Calibri-Bold-2f" transform="translate(622.558594 0)"/>
      <use xlink:href="#Calibri-Bold-4c" transform="translate(665.527344 0)"/>
      <use xlink:href="#Calibri-Bold-29" transform="translate(707.8125 0)"/>
     </g>
    </g>
   </g>
   <g id="line2d_18">
    <path d="M 71.155625 257.202966 
L 73.597689 257.384332 
L 75.86532 257.202966 
L 78.132951 258.200481 
L 80.400582 259.470047 
L 82.633326 259.923463 
L 84.900957 260.648929 
L 93.97148 261.737127 
L 96.204225 261.737127 
L 98.471855 261.465078 
L 103.007117 261.465078 
L 105.274748 261.918494 
L 107.542379 262.09986 
L 109.81001 262.09986 
L 112.042754 261.737127 
L 114.310385 262.281227 
L 116.578016 261.737127 
L 118.845647 261.737127 
L 121.113278 262.37191 
L 123.380908 262.09986 
L 125.613653 262.09986 
L 130.148914 262.553276 
L 132.416545 262.09986 
L 134.684176 262.09986 
L 136.951807 262.37191 
L 139.184551 262.281227 
L 141.452182 262.553276 
L 143.719813 262.09986 
L 145.987444 261.465078 
L 148.255075 261.555761 
L 150.522706 261.283711 
L 152.75545 261.737127 
L 155.023081 261.555761 
L 157.290712 261.737127 
L 159.558343 261.283711 
L 161.825973 261.465078 
L 164.093604 260.286196 
L 166.326349 259.470047 
L 170.86161 258.653898 
L 173.129241 257.475016 
L 175.396872 256.658866 
L 177.664503 255.389301 
L 179.932134 254.391786 
L 182.164878 252.759488 
L 184.432509 251.308556 
L 188.967771 247.681227 
L 191.235402 246.230295 
L 193.503032 244.597997 
L 195.735777 241.152034 
L 198.003408 239.429053 
L 200.271038 237.252655 
L 202.538669 235.438991 
L 204.8063 233.806693 
L 207.039044 231.720978 
L 209.306675 230.08868 
L 211.574306 227.821599 
L 213.841937 226.370668 
L 218.377199 222.289922 
L 220.609943 219.932158 
L 222.877574 218.209177 
L 225.145205 215.21663 
L 227.412836 213.584332 
L 229.680467 212.496134 
L 231.948097 210.682469 
L 234.180842 209.231537 
L 236.448473 208.687438 
L 238.716103 206.601724 
L 240.983734 205.785575 
L 243.251365 204.788059 
L 245.484109 203.518494 
L 250.019371 201.523463 
L 252.287002 200.253898 
L 254.554633 199.437748 
L 256.822264 197.624084 
L 259.055008 196.989301 
L 261.322639 196.173152 
L 263.59027 195.810419 
L 268.125532 194.540854 
L 270.393163 193.361972 
L 277.161169 191.548307 
L 279.428799 191.366941 
L 281.69643 190.732158 
L 286.196805 190.460109 
L 288.464436 189.64396 
L 290.732067 189.09986 
L 292.999698 187.830295 
L 297.500073 187.014146 
L 299.767704 186.379363 
L 302.035335 185.381848 
L 304.302966 184.837748 
L 306.570597 184.837748 
L 308.838228 186.01663 
L 311.070972 186.470047 
L 313.338603 187.467562 
L 315.606234 188.102345 
L 320.141495 189.64396 
L 322.37424 189.916009 
L 324.64187 189.734643 
L 326.909501 189.916009 
L 329.177132 189.462593 
L 331.444763 189.462593 
L 333.712394 189.64396 
L 335.945138 190.460109 
L 338.212769 190.278742 
L 340.4804 190.732158 
L 342.748031 190.550792 
L 345.015662 191.276258 
L 354.051299 191.548307 
L 358.58656 191.094891 
L 360.854191 191.366941 
L 363.121822 191.366941 
L 365.354566 190.278742 
L 367.622197 191.094891 
L 369.889828 190.913525 
L 376.657834 192.364457 
L 378.925465 193.543339 
L 381.193096 194.178121 
L 383.460727 193.996755 
L 385.728358 194.178121 
L 390.263619 194.99427 
L 392.496364 195.447686 
L 397.031625 195.175637 
L 399.299256 194.812904 
L 401.566887 195.357003 
L 403.834518 195.357003 
L 406.067262 195.810419 
L 408.334893 196.807935 
L 410.602524 196.989301 
L 412.870155 197.80545 
L 415.137786 198.0775 
L 417.405417 198.0775 
L 419.673047 198.258866 
L 421.905792 198.621599 
L 424.173423 198.0775 
L 426.441053 198.621599 
L 428.708684 198.621599 
L 430.976315 199.256382 
L 435.47669 200.253898 
L 437.744321 200.88868 
L 440.011952 201.16073 
L 444.547214 202.158245 
L 446.814845 202.339612 
L 449.047589 202.702345 
L 451.31522 202.702345 
L 453.582851 203.155761 
L 455.850482 203.337127 
L 458.118112 203.155761 
L 460.350857 203.609177 
L 462.618488 203.518494 
L 464.886118 203.790543 
L 471.689011 203.790543 
L 473.956642 205.150792 
L 476.189386 205.422842 
L 478.457017 205.966941 
L 482.992279 205.966941 
L 485.25991 205.604208 
L 487.527541 206.420357 
L 487.527541 206.420357 
" clip-path="url(#pd92001e00a)" style="fill: none; stroke: #1e90ff; stroke-width: 2; stroke-linecap: square"/>
   </g>
   <g id="line2d_19">
    <path d="M 71.155625 266.815388 
L 73.562802 266.815388 
L 75.830433 266.634022 
L 78.098064 266.815388 
L 80.365695 266.634022 
L 82.633326 266.634022 
L 84.86607 265.999239 
L 87.133701 266.996755 
L 91.668963 266.996755 
L 93.936594 265.545823 
L 96.204225 265.18309 
L 98.436969 265.001724 
L 100.7046 265.18309 
L 102.972231 265.18309 
L 105.239861 265.545823 
L 109.775123 265.636506 
L 112.007867 265.364457 
L 116.543129 265.364457 
L 118.81076 265.545823 
L 123.346022 265.18309 
L 125.578766 265.364457 
L 127.846397 266.361972 
L 130.114028 265.817873 
L 134.64929 265.817873 
L 136.91692 263.188059 
L 143.684926 257.837748 
L 150.452932 252.487438 
L 152.720563 264.820357 
L 154.988194 246.865078 
L 159.523456 243.328432 
L 179.862361 227.00545 
L 182.129991 223.378121 
L 184.397622 223.378121 
L 186.665253 252.124705 
L 188.897997 218.027811 
L 191.165628 216.03278 
L 204.736527 205.241475 
L 209.271789 201.704829 
L 211.53942 199.709798 
L 213.80705 197.896134 
L 216.039795 194.359488 
L 243.181592 172.595512 
L 245.449223 169.058866 
L 247.716854 167.063835 
L 261.287752 156.272531 
L 265.823014 152.735885 
L 268.055758 150.740854 
L 277.126282 143.576879 
L 279.359026 139.94955 
L 283.894288 136.412904 
L 286.161919 134.417873 
L 299.732817 123.626568 
L 304.233193 120.089922 
L 306.500823 118.094891 
L 308.768454 114.558245 
L 335.910252 92.79427 
L 338.177882 91.796755 
L 340.410627 91.796755 
L 342.678258 93.610419 
L 344.945888 95.60545 
L 358.516787 106.396755 
L 363.017162 109.933401 
L 365.284793 111.928432 
L 369.820055 115.465078 
L 372.087686 119.092407 
L 385.658584 130.065078 
L 387.891329 196.989301 
L 390.158959 197.624084 
L 392.42659 198.893649 
L 394.694221 198.712283 
L 396.961852 199.256382 
L 399.229483 199.528432 
L 401.462227 199.528432 
L 403.729858 199.256382 
L 408.26512 200.072531 
L 410.532751 201.16073 
L 412.765495 201.342096 
L 415.033126 201.704829 
L 417.300757 202.520978 
L 419.568388 202.793028 
L 421.836018 203.790543 
L 424.103649 204.153276 
L 426.336394 204.788059 
L 428.604024 204.606693 
L 430.871655 205.422842 
L 433.139286 207.05514 
L 435.406917 208.234022 
L 437.639661 208.687438 
L 442.174923 209.86632 
L 444.442554 210.319736 
L 446.710185 211.135885 
L 448.977816 211.770668 
L 455.745822 212.94955 
L 458.013453 213.584332 
L 460.281083 213.947065 
L 462.513828 214.581848 
L 464.781459 215.851413 
L 467.049089 216.576879 
L 469.31672 216.848929 
L 471.584351 216.395512 
L 473.851982 217.665078 
L 476.084726 218.209177 
L 480.619988 219.841475 
L 482.887619 220.113525 
L 485.15525 220.657624 
L 487.387994 220.929674 
L 489.655625 221.473773 
L 489.655625 221.473773 
" clip-path="url(#pd92001e00a)" style="fill: none; stroke: #ff69b4; stroke-width: 2; stroke-linecap: square"/>
   </g>
   <g id="line2d_20">
    <path d="M 71.155625 259.56073 
L 112.042754 259.651413 
L 121.113278 259.923463 
L 125.613653 260.014146 
L 136.951807 260.376879 
L 143.719813 260.104829 
L 148.255075 259.56073 
L 152.75545 258.653898 
L 157.290712 257.293649 
L 161.825973 255.570668 
L 166.326349 253.303587 
L 170.86161 250.764457 
L 175.396872 247.77191 
L 179.932134 244.597997 
L 193.503032 233.988059 
L 198.003408 230.36073 
L 204.8063 225.282469 
L 209.306675 222.017873 
L 213.841937 219.025326 
L 218.377199 216.214146 
L 222.877574 213.675016 
L 227.412836 211.407935 
L 231.948097 209.231537 
L 240.983734 205.604208 
L 245.484109 204.062593 
L 252.287002 201.976879 
L 256.822264 200.797997 
L 263.59027 199.256382 
L 268.125532 198.258866 
L 283.929175 195.810419 
L 288.464436 195.357003 
L 292.999698 194.903587 
L 302.035335 194.268804 
L 315.606234 193.815388 
L 329.177132 193.906071 
L 345.015662 194.631537 
L 367.622197 196.535885 
L 433.209059 204.334643 
L 464.886118 206.78309 
L 471.689011 207.145823 
L 476.189386 207.417873 
L 487.527541 207.961972 
L 487.527541 207.961972 
" clip-path="url(#pd92001e00a)" style="fill: none; stroke: #000000; stroke-width: 2; stroke-linecap: square"/>
   </g>
   <g id="patch_3">
    <path d="M 71.155625 300.2775 
L 71.155625 37.4775 
" style="fill: none; stroke: #000000; stroke-width: 2; stroke-linejoin: miter; stroke-linecap: square"/>
   </g>
   <g id="patch_4">
    <path d="M 71.155625 300.2775 
L 489.655625 300.2775 
" style="fill: none; stroke: #000000; stroke-width: 2; stroke-linejoin: miter; stroke-linecap: square"/>
   </g>
   <g id="text_19">
    <!-- a -->
    <g transform="translate(20.935625 20.79375) scale(0.2 -0.2)">
     <defs>
      <path id="Calibri-Bold-61" d="M 2769 97 
Q 2769 53 2737 28 
Q 2706 3 2639 -8 
Q 2572 -19 2441 -19 
Q 2300 -19 2236 -8 
Q 2172 3 2145 28 
Q 2119 53 2119 97 
L 2119 319 
Q 1947 134 1726 31 
Q 1506 -72 1238 -72 
Q 1016 -72 830 -14 
Q 644 44 508 158 
Q 372 272 297 440 
Q 222 609 222 834 
Q 222 1078 317 1258 
Q 413 1438 602 1555 
Q 791 1672 1072 1728 
Q 1353 1784 1725 1784 
L 1997 1784 
L 1997 1953 
Q 1997 2084 1970 2182 
Q 1944 2281 1883 2347 
Q 1822 2413 1720 2444 
Q 1619 2475 1469 2475 
Q 1272 2475 1117 2431 
Q 963 2388 844 2334 
Q 725 2281 645 2237 
Q 566 2194 516 2194 
Q 481 2194 454 2216 
Q 428 2238 411 2278 
Q 394 2319 384 2378 
Q 375 2438 375 2509 
Q 375 2606 390 2662 
Q 406 2719 450 2764 
Q 494 2809 603 2864 
Q 713 2919 859 2966 
Q 1006 3013 1179 3042 
Q 1353 3072 1538 3072 
Q 1866 3072 2098 3008 
Q 2331 2944 2481 2811 
Q 2631 2678 2700 2468 
Q 2769 2259 2769 1972 
L 2769 97 
z
M 1997 1291 
L 1697 1291 
Q 1506 1291 1372 1262 
Q 1238 1234 1153 1178 
Q 1069 1122 1030 1042 
Q 991 963 991 859 
Q 991 684 1102 584 
Q 1213 484 1409 484 
Q 1575 484 1714 568 
Q 1853 653 1997 816 
L 1997 1291 
z
" transform="scale(0.015625)"/>
     </defs>
     <use xlink:href="#Calibri-Bold-61"/>
    </g>
   </g>
   <g id="legend_1">
    <g id="line2d_21">
     <path d="M 12.8 338.8015 
L 26.8 338.8015 
L 40.8 338.8015 
" style="fill: none; stroke: #1e90ff; stroke-width: 2; stroke-linecap: square"/>
    </g>
    <g id="text_20">
     <!-- CGM Reading -->
     <g transform="translate(52 343.7015) scale(0.14 -0.14)">
      <defs>
       <path id="Calibri-Bold-43" d="M 3238 613 
Q 3238 534 3233 479 
Q 3228 425 3218 386 
Q 3209 347 3193 319 
Q 3178 291 3143 255 
Q 3109 219 3011 162 
Q 2913 106 2770 54 
Q 2628 3 2445 -31 
Q 2263 -66 2050 -66 
Q 1634 -66 1300 62 
Q 966 191 731 445 
Q 497 700 372 1081 
Q 247 1463 247 1969 
Q 247 2484 384 2884 
Q 522 3284 769 3556 
Q 1016 3828 1361 3968 
Q 1706 4109 2122 4109 
Q 2291 4109 2447 4081 
Q 2603 4053 2736 4008 
Q 2869 3963 2975 3903 
Q 3081 3844 3123 3801 
Q 3166 3759 3181 3731 
Q 3197 3703 3206 3659 
Q 3216 3616 3220 3556 
Q 3225 3497 3225 3409 
Q 3225 3316 3219 3250 
Q 3213 3184 3197 3143 
Q 3181 3103 3159 3084 
Q 3138 3066 3109 3066 
Q 3063 3066 2991 3120 
Q 2919 3175 2805 3242 
Q 2691 3309 2533 3364 
Q 2375 3419 2156 3419 
Q 1916 3419 1727 3320 
Q 1538 3222 1405 3039 
Q 1272 2856 1203 2597 
Q 1134 2338 1134 2013 
Q 1134 1656 1207 1395 
Q 1281 1134 1417 965 
Q 1553 797 1745 714 
Q 1938 631 2178 631 
Q 2397 631 2556 682 
Q 2716 734 2830 796 
Q 2944 859 3017 909 
Q 3091 959 3131 959 
Q 3163 959 3181 946 
Q 3200 934 3212 896 
Q 3225 859 3231 792 
Q 3238 725 3238 613 
z
" transform="scale(0.015625)"/>
       <path id="Calibri-Bold-4d" d="M 5153 113 
Q 5153 81 5136 56 
Q 5119 31 5073 15 
Q 5028 0 4953 -9 
Q 4878 -19 4763 -19 
Q 4650 -19 4575 -9 
Q 4500 0 4456 15 
Q 4413 31 4394 56 
Q 4375 81 4375 113 
L 4375 3403 
L 4369 3403 
L 3197 116 
Q 3184 75 3156 48 
Q 3128 22 3079 6 
Q 3031 -9 2956 -14 
Q 2881 -19 2775 -19 
Q 2669 -19 2594 -11 
Q 2519 -3 2470 14 
Q 2422 31 2394 56 
Q 2366 81 2356 116 
L 1225 3403 
L 1219 3403 
L 1219 113 
Q 1219 81 1201 56 
Q 1184 31 1137 15 
Q 1091 0 1017 -9 
Q 944 -19 828 -19 
Q 716 -19 641 -9 
Q 566 0 520 15 
Q 475 31 458 56 
Q 441 81 441 113 
L 441 3716 
Q 441 3875 525 3959 
Q 609 4044 750 4044 
L 1288 4044 
Q 1431 4044 1534 4020 
Q 1638 3997 1713 3942 
Q 1788 3888 1838 3798 
Q 1888 3709 1925 3578 
L 2800 1169 
L 2813 1169 
L 3719 3572 
Q 3759 3703 3807 3793 
Q 3856 3884 3920 3940 
Q 3984 3997 4071 4020 
Q 4159 4044 4275 4044 
L 4828 4044 
Q 4913 4044 4973 4022 
Q 5034 4000 5073 3958 
Q 5113 3916 5133 3855 
Q 5153 3794 5153 3716 
L 5153 113 
z
" transform="scale(0.015625)"/>
       <path id="Calibri-Bold-52" d="M 3441 106 
Q 3441 72 3428 48 
Q 3416 25 3369 9 
Q 3322 -6 3231 -12 
Q 3141 -19 2984 -19 
Q 2853 -19 2775 -12 
Q 2697 -6 2651 11 
Q 2606 28 2587 54 
Q 2569 81 2556 119 
L 2194 1022 
Q 2128 1175 2065 1294 
Q 2003 1413 1926 1492 
Q 1850 1572 1750 1612 
Q 1650 1653 1519 1653 
L 1263 1653 
L 1263 113 
Q 1263 81 1242 56 
Q 1222 31 1175 15 
Q 1128 0 1050 -9 
Q 972 -19 850 -19 
Q 731 -19 651 -9 
Q 572 0 525 15 
Q 478 31 459 56 
Q 441 81 441 113 
L 441 3784 
Q 441 3922 511 3983 
Q 581 4044 684 4044 
L 1731 4044 
Q 1891 4044 1994 4037 
Q 2097 4031 2181 4022 
Q 2425 3988 2620 3903 
Q 2816 3819 2952 3683 
Q 3088 3547 3159 3361 
Q 3231 3175 3231 2934 
Q 3231 2731 3179 2564 
Q 3128 2397 3028 2265 
Q 2928 2134 2781 2037 
Q 2634 1941 2447 1881 
Q 2538 1838 2617 1775 
Q 2697 1713 2767 1623 
Q 2838 1534 2900 1420 
Q 2963 1306 3022 1163 
L 3363 366 
Q 3409 247 3425 192 
Q 3441 138 3441 106 
z
M 2381 2850 
Q 2381 3050 2290 3187 
Q 2200 3325 1994 3381 
Q 1931 3397 1851 3406 
Q 1772 3416 1631 3416 
L 1263 3416 
L 1263 2269 
L 1681 2269 
Q 1856 2269 1987 2311 
Q 2119 2353 2206 2429 
Q 2294 2506 2337 2612 
Q 2381 2719 2381 2850 
z
" transform="scale(0.015625)"/>
       <path id="Calibri-Bold-64" d="M 3038 106 
Q 3038 72 3022 48 
Q 3006 25 2968 9 
Q 2931 -6 2867 -12 
Q 2803 -19 2709 -19 
Q 2609 -19 2546 -12 
Q 2484 -6 2445 9 
Q 2406 25 2389 48 
Q 2372 72 2372 106 
L 2372 416 
Q 2156 184 1920 56 
Q 1684 -72 1397 -72 
Q 1078 -72 858 51 
Q 638 175 498 384 
Q 359 594 296 873 
Q 234 1153 234 1463 
Q 234 1834 314 2131 
Q 394 2428 547 2637 
Q 700 2847 928 2959 
Q 1156 3072 1453 3072 
Q 1688 3072 1878 2976 
Q 2069 2881 2256 2697 
L 2256 4206 
Q 2256 4238 2273 4263 
Q 2291 4288 2336 4305 
Q 2381 4322 2456 4331 
Q 2531 4341 2647 4341 
Q 2763 4341 2838 4331 
Q 2913 4322 2956 4305 
Q 3000 4288 3019 4263 
Q 3038 4238 3038 4206 
L 3038 106 
z
M 2256 1969 
Q 2088 2181 1933 2293 
Q 1778 2406 1609 2406 
Q 1456 2406 1345 2329 
Q 1234 2253 1167 2125 
Q 1100 1997 1067 1839 
Q 1034 1681 1034 1516 
Q 1034 1341 1062 1175 
Q 1091 1009 1155 879 
Q 1219 750 1325 672 
Q 1431 594 1594 594 
Q 1675 594 1751 617 
Q 1828 641 1908 694 
Q 1988 747 2072 833 
Q 2156 919 2256 1044 
L 2256 1969 
z
" transform="scale(0.015625)"/>
       <path id="Calibri-Bold-69" d="M 1181 106 
Q 1181 75 1162 51 
Q 1144 28 1098 12 
Q 1053 -3 978 -11 
Q 903 -19 788 -19 
Q 672 -19 597 -11 
Q 522 -3 476 12 
Q 431 28 412 51 
Q 394 75 394 106 
L 394 2888 
Q 394 2919 412 2942 
Q 431 2966 476 2983 
Q 522 3000 597 3009 
Q 672 3019 788 3019 
Q 903 3019 978 3009 
Q 1053 3000 1098 2983 
Q 1144 2966 1162 2942 
Q 1181 2919 1181 2888 
L 1181 106 
z
M 1241 3838 
Q 1241 3600 1144 3509 
Q 1047 3419 784 3419 
Q 519 3419 426 3506 
Q 334 3594 334 3822 
Q 334 4059 429 4151 
Q 525 4244 791 4244 
Q 1053 4244 1147 4155 
Q 1241 4066 1241 3838 
z
" transform="scale(0.015625)"/>
       <path id="Calibri-Bold-6e" d="M 3056 106 
Q 3056 75 3037 51 
Q 3019 28 2975 12 
Q 2931 -3 2854 -11 
Q 2778 -19 2666 -19 
Q 2550 -19 2473 -11 
Q 2397 -3 2353 12 
Q 2309 28 2290 51 
Q 2272 75 2272 106 
L 2272 1697 
Q 2272 1900 2242 2015 
Q 2213 2131 2156 2214 
Q 2100 2297 2011 2342 
Q 1922 2388 1803 2388 
Q 1653 2388 1500 2278 
Q 1347 2169 1181 1959 
L 1181 106 
Q 1181 75 1162 51 
Q 1144 28 1098 12 
Q 1053 -3 978 -11 
Q 903 -19 788 -19 
Q 672 -19 597 -11 
Q 522 -3 476 12 
Q 431 28 412 51 
Q 394 75 394 106 
L 394 2894 
Q 394 2925 409 2948 
Q 425 2972 465 2987 
Q 506 3003 570 3011 
Q 634 3019 731 3019 
Q 831 3019 897 3011 
Q 963 3003 998 2987 
Q 1034 2972 1050 2948 
Q 1066 2925 1066 2894 
L 1066 2572 
Q 1297 2822 1536 2947 
Q 1775 3072 2034 3072 
Q 2319 3072 2514 2978 
Q 2709 2884 2829 2723 
Q 2950 2563 3003 2347 
Q 3056 2131 3056 1828 
L 3056 106 
z
" transform="scale(0.015625)"/>
       <path id="Calibri-Bold-67" d="M 2906 2700 
Q 2906 2550 2872 2478 
Q 2838 2406 2788 2406 
L 2459 2406 
Q 2528 2331 2558 2236 
Q 2588 2141 2588 2038 
Q 2588 1794 2506 1605 
Q 2425 1416 2273 1286 
Q 2122 1156 1908 1089 
Q 1694 1022 1431 1022 
Q 1297 1022 1175 1055 
Q 1053 1088 988 1131 
Q 950 1091 920 1034 
Q 891 978 891 909 
Q 891 819 970 761 
Q 1050 703 1194 697 
L 1872 672 
Q 2109 663 2295 605 
Q 2481 547 2607 442 
Q 2734 338 2801 191 
Q 2869 44 2869 -144 
Q 2869 -350 2778 -533 
Q 2688 -716 2506 -850 
Q 2325 -984 2051 -1062 
Q 1778 -1141 1413 -1141 
Q 1056 -1141 804 -1084 
Q 553 -1028 392 -928 
Q 231 -828 157 -689 
Q 84 -550 84 -384 
Q 84 -281 111 -187 
Q 138 -94 189 -8 
Q 241 78 316 156 
Q 391 234 488 306 
Q 353 378 279 501 
Q 206 625 206 772 
Q 206 956 290 1107 
Q 375 1259 509 1381 
Q 400 1491 334 1644 
Q 269 1797 269 2025 
Q 269 2269 355 2461 
Q 441 2653 594 2786 
Q 747 2919 959 2989 
Q 1172 3059 1428 3059 
Q 1559 3059 1679 3043 
Q 1800 3028 1903 3000 
L 2788 3000 
Q 2841 3000 2873 2931 
Q 2906 2863 2906 2700 
z
M 1897 2041 
Q 1897 2266 1772 2391 
Q 1647 2516 1419 2516 
Q 1303 2516 1215 2477 
Q 1128 2438 1070 2370 
Q 1013 2303 984 2214 
Q 956 2125 956 2028 
Q 956 1816 1081 1692 
Q 1206 1569 1428 1569 
Q 1547 1569 1634 1606 
Q 1722 1644 1780 1709 
Q 1838 1775 1867 1861 
Q 1897 1947 1897 2041 
z
M 2081 -184 
Q 2081 -44 1968 31 
Q 1856 106 1659 113 
L 1100 128 
Q 1019 69 970 14 
Q 922 -41 892 -91 
Q 863 -141 853 -187 
Q 844 -234 844 -284 
Q 844 -441 1001 -522 
Q 1159 -603 1447 -603 
Q 1625 -603 1747 -567 
Q 1869 -531 1944 -472 
Q 2019 -413 2050 -339 
Q 2081 -266 2081 -184 
z
" transform="scale(0.015625)"/>
      </defs>
      <use xlink:href="#Calibri-Bold-43"/>
      <use xlink:href="#Calibri-Bold-47" transform="translate(52.179688 0)"/>
      <use xlink:href="#Calibri-Bold-4d" transform="translate(115.900391 0)"/>
      <use xlink:href="#Calibri-Bold-20" transform="translate(203.302734 0)"/>
      <use xlink:href="#Calibri-Bold-52" transform="translate(225.910156 0)"/>
      <use xlink:href="#Calibri-Bold-65" transform="translate(282.208984 0)"/>
      <use xlink:href="#Calibri-Bold-61" transform="translate(332.550781 0)"/>
      <use xlink:href="#Calibri-Bold-64" transform="translate(381.916016 0)"/>
      <use xlink:href="#Calibri-Bold-69" transform="translate(435.578125 0)"/>
      <use xlink:href="#Calibri-Bold-6e" transform="translate(460.138672 0)"/>
      <use xlink:href="#Calibri-Bold-67" transform="translate(513.800781 0)"/>
     </g>
    </g>
    <g id="line2d_22">
     <path d="M 158.568437 338.8015 
L 172.568437 338.8015 
L 186.568437 338.8015 
" style="fill: none; stroke: #ff69b4; stroke-width: 2; stroke-linecap: square"/>
    </g>
    <g id="text_21">
     <!-- CGM Reading (Attack) -->
     <g transform="translate(197.768438 343.7015) scale(0.14 -0.14)">
      <defs>
       <path id="Calibri-Bold-41" d="M 3753 306 
Q 3791 194 3800 128 
Q 3809 63 3775 30 
Q 3741 -3 3653 -11 
Q 3566 -19 3413 -19 
Q 3253 -19 3164 -14 
Q 3075 -9 3028 5 
Q 2981 19 2962 44 
Q 2944 69 2931 109 
L 2659 922 
L 1141 922 
L 884 131 
Q 872 88 851 58 
Q 831 28 786 11 
Q 741 -6 658 -12 
Q 575 -19 441 -19 
Q 297 -19 215 -9 
Q 134 0 103 36 
Q 72 72 81 137 
Q 91 203 128 313 
L 1375 3900 
Q 1394 3953 1419 3986 
Q 1444 4019 1498 4036 
Q 1553 4053 1650 4058 
Q 1747 4063 1906 4063 
Q 2091 4063 2200 4058 
Q 2309 4053 2370 4036 
Q 2431 4019 2457 3984 
Q 2484 3950 2503 3891 
L 3753 306 
z
M 1897 3272 
L 1894 3272 
L 1322 1553 
L 2469 1553 
L 1897 3272 
z
" transform="scale(0.015625)"/>
       <path id="Calibri-Bold-74" d="M 2044 381 
Q 2044 244 2026 170 
Q 2009 97 1981 67 
Q 1953 38 1898 14 
Q 1844 -9 1770 -26 
Q 1697 -44 1611 -53 
Q 1525 -63 1438 -63 
Q 1203 -63 1031 -3 
Q 859 56 746 179 
Q 634 303 581 490 
Q 528 678 528 934 
L 528 2363 
L 194 2363 
Q 134 2363 103 2436 
Q 72 2509 72 2681 
Q 72 2772 80 2834 
Q 88 2897 103 2933 
Q 119 2969 142 2984 
Q 166 3000 197 3000 
L 528 3000 
L 528 3622 
Q 528 3653 545 3678 
Q 563 3703 608 3720 
Q 653 3738 729 3745 
Q 806 3753 919 3753 
Q 1034 3753 1111 3745 
Q 1188 3738 1231 3720 
Q 1275 3703 1294 3678 
Q 1313 3653 1313 3622 
L 1313 3000 
L 1919 3000 
Q 1950 3000 1973 2984 
Q 1997 2969 2012 2933 
Q 2028 2897 2036 2834 
Q 2044 2772 2044 2681 
Q 2044 2509 2012 2436 
Q 1981 2363 1922 2363 
L 1313 2363 
L 1313 1053 
Q 1313 825 1384 711 
Q 1456 597 1641 597 
Q 1703 597 1753 608 
Q 1803 619 1842 633 
Q 1881 647 1907 658 
Q 1934 669 1956 669 
Q 1975 669 1992 658 
Q 2009 647 2018 614 
Q 2028 581 2036 525 
Q 2044 469 2044 381 
z
" transform="scale(0.015625)"/>
       <path id="Calibri-Bold-6b" d="M 2984 103 
Q 2984 72 2967 48 
Q 2950 25 2904 11 
Q 2859 -3 2781 -11 
Q 2703 -19 2578 -19 
Q 2450 -19 2370 -12 
Q 2291 -6 2239 8 
Q 2188 22 2159 47 
Q 2131 72 2109 113 
L 1181 1581 
L 1181 106 
Q 1181 75 1162 51 
Q 1144 28 1098 12 
Q 1053 -3 978 -11 
Q 903 -19 788 -19 
Q 672 -19 597 -11 
Q 522 -3 476 12 
Q 431 28 412 51 
Q 394 75 394 106 
L 394 4216 
Q 394 4247 412 4272 
Q 431 4297 476 4314 
Q 522 4331 597 4340 
Q 672 4350 788 4350 
Q 903 4350 978 4340 
Q 1053 4331 1098 4314 
Q 1144 4297 1162 4272 
Q 1181 4247 1181 4216 
L 1181 1769 
L 2006 2878 
Q 2031 2916 2062 2944 
Q 2094 2972 2145 2987 
Q 2197 3003 2273 3011 
Q 2350 3019 2469 3019 
Q 2584 3019 2664 3011 
Q 2744 3003 2792 2987 
Q 2841 2972 2859 2948 
Q 2878 2925 2878 2891 
Q 2878 2844 2854 2791 
Q 2831 2738 2784 2678 
L 1969 1753 
L 2913 294 
Q 2950 231 2967 186 
Q 2984 141 2984 103 
z
" transform="scale(0.015625)"/>
      </defs>
      <use xlink:href="#Calibri-Bold-43"/>
      <use xlink:href="#Calibri-Bold-47" transform="translate(52.179688 0)"/>
      <use xlink:href="#Calibri-Bold-4d" transform="translate(115.900391 0)"/>
      <use xlink:href="#Calibri-Bold-20" transform="translate(203.302734 0)"/>
      <use xlink:href="#Calibri-Bold-52" transform="translate(225.910156 0)"/>
      <use xlink:href="#Calibri-Bold-65" transform="translate(282.208984 0)"/>
      <use xlink:href="#Calibri-Bold-61" transform="translate(332.550781 0)"/>
      <use xlink:href="#Calibri-Bold-64" transform="translate(381.916016 0)"/>
      <use xlink:href="#Calibri-Bold-69" transform="translate(435.578125 0)"/>
      <use xlink:href="#Calibri-Bold-6e" transform="translate(460.138672 0)"/>
      <use xlink:href="#Calibri-Bold-67" transform="translate(513.800781 0)"/>
      <use xlink:href="#Calibri-Bold-20" transform="translate(561.212891 0)"/>
      <use xlink:href="#Calibri-Bold-28" transform="translate(583.820312 0)"/>
      <use xlink:href="#Calibri-Bold-41" transform="translate(614.972656 0)"/>
      <use xlink:href="#Calibri-Bold-74" transform="translate(672.443359 0)"/>
      <use xlink:href="#Calibri-Bold-74" transform="translate(707.111328 0)"/>
      <use xlink:href="#Calibri-Bold-61" transform="translate(741.779297 0)"/>
      <use xlink:href="#Calibri-Bold-63" transform="translate(791.144531 0)"/>
      <use xlink:href="#Calibri-Bold-6b" transform="translate(832.990234 0)"/>
      <use xlink:href="#Calibri-Bold-29" transform="translate(880.988281 0)"/>
     </g>
    </g>
    <g id="line2d_23">
     <path d="M 353.468125 338.8015 
L 367.468125 338.8015 
L 381.468125 338.8015 
" style="fill: none; stroke: #000000; stroke-width: 2; stroke-linecap: square"/>
    </g>
    <g id="text_22">
     <!-- Virtual Participant Glucose -->
     <g transform="translate(392.668125 343.7015) scale(0.14 -0.14)">
      <defs>
       <path id="Calibri-Bold-56" d="M 2453 144 
Q 2438 91 2413 58 
Q 2388 25 2331 8 
Q 2275 -9 2178 -14 
Q 2081 -19 1925 -19 
Q 1800 -19 1711 -17 
Q 1622 -16 1559 -9 
Q 1497 -3 1458 9 
Q 1419 22 1392 40 
Q 1366 59 1352 86 
Q 1338 113 1325 153 
L 122 3738 
Q 84 3850 76 3915 
Q 69 3981 108 4014 
Q 147 4047 240 4055 
Q 334 4063 503 4063 
Q 647 4063 728 4056 
Q 809 4050 853 4034 
Q 897 4019 914 3987 
Q 931 3956 947 3909 
L 1931 791 
L 1934 791 
L 2900 3894 
Q 2913 3947 2931 3980 
Q 2950 4013 2995 4031 
Q 3041 4050 3125 4056 
Q 3209 4063 3356 4063 
Q 3500 4063 3579 4053 
Q 3659 4044 3689 4008 
Q 3719 3972 3708 3906 
Q 3697 3841 3659 3731 
L 2453 144 
z
" transform="scale(0.015625)"/>
       <path id="Calibri-Bold-72" d="M 2184 2634 
Q 2184 2522 2178 2450 
Q 2172 2378 2159 2337 
Q 2147 2297 2126 2281 
Q 2106 2266 2075 2266 
Q 2050 2266 2019 2277 
Q 1988 2288 1948 2300 
Q 1909 2313 1862 2323 
Q 1816 2334 1759 2334 
Q 1694 2334 1628 2307 
Q 1563 2281 1492 2225 
Q 1422 2169 1345 2075 
Q 1269 1981 1181 1844 
L 1181 106 
Q 1181 75 1162 51 
Q 1144 28 1098 12 
Q 1053 -3 978 -11 
Q 903 -19 788 -19 
Q 672 -19 597 -11 
Q 522 -3 476 12 
Q 431 28 412 51 
Q 394 75 394 106 
L 394 2894 
Q 394 2925 409 2948 
Q 425 2972 465 2987 
Q 506 3003 570 3011 
Q 634 3019 731 3019 
Q 831 3019 897 3011 
Q 963 3003 998 2987 
Q 1034 2972 1050 2948 
Q 1066 2925 1066 2894 
L 1066 2547 
Q 1175 2703 1272 2804 
Q 1369 2906 1456 2965 
Q 1544 3025 1631 3048 
Q 1719 3072 1806 3072 
Q 1847 3072 1894 3067 
Q 1941 3063 1991 3052 
Q 2041 3041 2078 3027 
Q 2116 3013 2133 2997 
Q 2150 2981 2158 2962 
Q 2166 2944 2172 2911 
Q 2178 2878 2181 2812 
Q 2184 2747 2184 2634 
z
" transform="scale(0.015625)"/>
       <path id="Calibri-Bold-50" d="M 3209 2816 
Q 3209 2475 3103 2212 
Q 2997 1950 2794 1770 
Q 2591 1591 2295 1497 
Q 2000 1403 1600 1403 
L 1263 1403 
L 1263 113 
Q 1263 81 1242 56 
Q 1222 31 1175 15 
Q 1128 0 1050 -9 
Q 972 -19 850 -19 
Q 731 -19 651 -9 
Q 572 0 525 15 
Q 478 31 459 56 
Q 441 81 441 113 
L 441 3750 
Q 441 3897 517 3970 
Q 594 4044 719 4044 
L 1672 4044 
Q 1816 4044 1945 4033 
Q 2075 4022 2256 3986 
Q 2438 3950 2623 3853 
Q 2809 3756 2940 3607 
Q 3072 3459 3140 3261 
Q 3209 3063 3209 2816 
z
M 2350 2756 
Q 2350 2969 2275 3106 
Q 2200 3244 2090 3309 
Q 1981 3375 1861 3392 
Q 1741 3409 1613 3409 
L 1263 3409 
L 1263 2038 
L 1631 2038 
Q 1828 2038 1961 2091 
Q 2094 2144 2178 2239 
Q 2263 2334 2306 2467 
Q 2350 2600 2350 2756 
z
" transform="scale(0.015625)"/>
       <path id="Calibri-Bold-70" d="M 3200 1541 
Q 3200 1169 3120 870 
Q 3041 572 2887 362 
Q 2734 153 2506 40 
Q 2278 -72 1984 -72 
Q 1863 -72 1761 -48 
Q 1659 -25 1564 23 
Q 1469 72 1375 144 
Q 1281 216 1181 313 
L 1181 -1000 
Q 1181 -1031 1162 -1056 
Q 1144 -1081 1098 -1098 
Q 1053 -1116 978 -1125 
Q 903 -1134 788 -1134 
Q 672 -1134 597 -1125 
Q 522 -1116 476 -1098 
Q 431 -1081 412 -1056 
Q 394 -1031 394 -1000 
L 394 2894 
Q 394 2925 409 2948 
Q 425 2972 464 2987 
Q 503 3003 567 3011 
Q 631 3019 728 3019 
Q 822 3019 886 3011 
Q 950 3003 989 2987 
Q 1028 2972 1043 2948 
Q 1059 2925 1059 2894 
L 1059 2566 
Q 1181 2691 1298 2786 
Q 1416 2881 1537 2945 
Q 1659 3009 1789 3040 
Q 1919 3072 2066 3072 
Q 2372 3072 2587 2951 
Q 2803 2831 2939 2622 
Q 3075 2413 3137 2134 
Q 3200 1856 3200 1541 
z
M 2381 1484 
Q 2381 1663 2354 1827 
Q 2328 1991 2264 2119 
Q 2200 2247 2095 2323 
Q 1991 2400 1834 2400 
Q 1756 2400 1679 2376 
Q 1603 2353 1523 2300 
Q 1444 2247 1359 2162 
Q 1275 2078 1181 1953 
L 1181 1034 
Q 1347 825 1497 711 
Q 1647 597 1809 597 
Q 1963 597 2070 675 
Q 2178 753 2247 879 
Q 2316 1006 2348 1165 
Q 2381 1325 2381 1484 
z
" transform="scale(0.015625)"/>
      </defs>
      <use xlink:href="#Calibri-Bold-56"/>
      <use xlink:href="#Calibri-Bold-69" transform="translate(59.130859 0)"/>
      <use xlink:href="#Calibri-Bold-72" transform="translate(83.691406 0)"/>
      <use xlink:href="#Calibri-Bold-74" transform="translate(119.238281 0)"/>
      <use xlink:href="#Calibri-Bold-75" transform="translate(153.90625 0)"/>
      <use xlink:href="#Calibri-Bold-61" transform="translate(207.568359 0)"/>
      <use xlink:href="#Calibri-Bold-6c" transform="translate(256.933594 0)"/>
      <use xlink:href="#Calibri-Bold-20" transform="translate(281.494141 0)"/>
      <use xlink:href="#Calibri-Bold-50" transform="translate(304.101562 0)"/>
      <use xlink:href="#Calibri-Bold-61" transform="translate(357.324219 0)"/>
      <use xlink:href="#Calibri-Bold-72" transform="translate(406.689453 0)"/>
      <use xlink:href="#Calibri-Bold-74" transform="translate(442.236328 0)"/>
      <use xlink:href="#Calibri-Bold-69" transform="translate(476.904297 0)"/>
      <use xlink:href="#Calibri-Bold-63" transform="translate(501.464844 0)"/>
      <use xlink:href="#Calibri-Bold-69" transform="translate(543.310547 0)"/>
      <use xlink:href="#Calibri-Bold-70" transform="translate(567.871094 0)"/>
      <use xlink:href="#Calibri-Bold-61" transform="translate(621.533203 0)"/>
      <use xlink:href="#Calibri-Bold-6e" transform="translate(670.898438 0)"/>
      <use xlink:href="#Calibri-Bold-74" transform="translate(724.560547 0)"/>
      <use xlink:href="#Calibri-Bold-20" transform="translate(759.228516 0)"/>
      <use xlink:href="#Calibri-Bold-47" transform="translate(781.835938 0)"/>
      <use xlink:href="#Calibri-Bold-6c" transform="translate(845.556641 0)"/>
      <use xlink:href="#Calibri-Bold-75" transform="translate(870.117188 0)"/>
      <use xlink:href="#Calibri-Bold-63" transform="translate(923.779297 0)"/>
      <use xlink:href="#Calibri-Bold-6f" transform="translate(965.625 0)"/>
      <use xlink:href="#Calibri-Bold-73" transform="translate(1019.384766 0)"/>
      <use xlink:href="#Calibri-Bold-65" transform="translate(1059.277344 0)"/>
     </g>
    </g>
   </g>
  </g>
  <g id="axes_2">
   <g id="patch_5">
    <path d="M 71.155625 510.5175 
L 489.655625 510.5175 
L 489.655625 379.1175 
L 71.155625 379.1175 
z
" style="fill: #ffffff"/>
   </g>
   <g id="matplotlib.axis_3">
    <g id="xtick_9">
     <g id="line2d_24">
      <g>
       <use xlink:href="#m9419485053" x="71.155625" y="510.5175" style="stroke: #000000; stroke-width: 2"/>
      </g>
     </g>
     <g id="text_23">
      <!-- 0 -->
      <g transform="translate(67.6075 527.033125) scale(0.14 -0.14)">
       <use xlink:href="#Calibri-Bold-30"/>
      </g>
     </g>
    </g>
    <g id="xtick_10">
     <g id="line2d_25">
      <g>
       <use xlink:href="#m9419485053" x="123.485568" y="510.5175" style="stroke: #000000; stroke-width: 2"/>
      </g>
     </g>
     <g id="text_24">
      <!-- 25 -->
      <g transform="translate(116.389318 527.033125) scale(0.14 -0.14)">
       <use xlink:href="#Calibri-Bold-32"/>
       <use xlink:href="#Calibri-Bold-35" transform="translate(50.683594 0)"/>
      </g>
     </g>
    </g>
    <g id="xtick_11">
     <g id="line2d_26">
      <g>
       <use xlink:href="#m9419485053" x="175.815512" y="510.5175" style="stroke: #000000; stroke-width: 2"/>
      </g>
     </g>
     <g id="text_25">
      <!-- 50 -->
      <g transform="translate(168.719262 527.033125) scale(0.14 -0.14)">
       <use xlink:href="#Calibri-Bold-35"/>
       <use xlink:href="#Calibri-Bold-30" transform="translate(50.683594 0)"/>
      </g>
     </g>
    </g>
    <g id="xtick_12">
     <g id="line2d_27">
      <g>
       <use xlink:href="#m9419485053" x="228.145455" y="510.5175" style="stroke: #000000; stroke-width: 2"/>
      </g>
     </g>
     <g id="text_26">
      <!-- 75 -->
      <g transform="translate(221.049205 527.033125) scale(0.14 -0.14)">
       <use xlink:href="#Calibri-Bold-37"/>
       <use xlink:href="#Calibri-Bold-35" transform="translate(50.683594 0)"/>
      </g>
     </g>
    </g>
    <g id="xtick_13">
     <g id="line2d_28">
      <g>
       <use xlink:href="#m9419485053" x="280.475398" y="510.5175" style="stroke: #000000; stroke-width: 2"/>
      </g>
     </g>
     <g id="text_27">
      <!-- 100 -->
      <g transform="translate(269.831023 527.033125) scale(0.14 -0.14)">
       <use xlink:href="#Calibri-Bold-31"/>
       <use xlink:href="#Calibri-Bold-30" transform="translate(50.683594 0)"/>
       <use xlink:href="#Calibri-Bold-30" transform="translate(101.367188 0)"/>
      </g>
     </g>
    </g>
    <g id="xtick_14">
     <g id="line2d_29">
      <g>
       <use xlink:href="#m9419485053" x="332.805342" y="510.5175" style="stroke: #000000; stroke-width: 2"/>
      </g>
     </g>
     <g id="text_28">
      <!-- 125 -->
      <g transform="translate(322.160967 527.033125) scale(0.14 -0.14)">
       <use xlink:href="#Calibri-Bold-31"/>
       <use xlink:href="#Calibri-Bold-32" transform="translate(50.683594 0)"/>
       <use xlink:href="#Calibri-Bold-35" transform="translate(101.367188 0)"/>
      </g>
     </g>
    </g>
    <g id="xtick_15">
     <g id="line2d_30">
      <g>
       <use xlink:href="#m9419485053" x="385.135285" y="510.5175" style="stroke: #000000; stroke-width: 2"/>
      </g>
     </g>
     <g id="text_29">
      <!-- 150 -->
      <g transform="translate(374.49091 527.033125) scale(0.14 -0.14)">
       <use xlink:href="#Calibri-Bold-31"/>
       <use xlink:href="#Calibri-Bold-35" transform="translate(50.683594 0)"/>
       <use xlink:href="#Calibri-Bold-30" transform="translate(101.367188 0)"/>
      </g>
     </g>
    </g>
    <g id="xtick_16">
     <g id="line2d_31">
      <g>
       <use xlink:href="#m9419485053" x="437.465228" y="510.5175" style="stroke: #000000; stroke-width: 2"/>
      </g>
     </g>
     <g id="text_30">
      <!-- 175 -->
      <g transform="translate(426.820853 527.033125) scale(0.14 -0.14)">
       <use xlink:href="#Calibri-Bold-31"/>
       <use xlink:href="#Calibri-Bold-37" transform="translate(50.683594 0)"/>
       <use xlink:href="#Calibri-Bold-35" transform="translate(101.367188 0)"/>
      </g>
     </g>
    </g>
    <g id="text_31">
     <!-- Time (min) -->
     <g transform="translate(248.888125 566.174063) scale(0.14 -0.14)">
      <defs>
       <path id="Calibri-Bold-54" d="M 3131 3706 
Q 3131 3616 3123 3552 
Q 3116 3488 3100 3448 
Q 3084 3409 3061 3390 
Q 3038 3372 3009 3372 
L 1997 3372 
L 1997 113 
Q 1997 81 1976 56 
Q 1956 31 1909 15 
Q 1863 0 1783 -9 
Q 1703 -19 1584 -19 
Q 1466 -19 1386 -9 
Q 1306 0 1259 15 
Q 1213 31 1192 56 
Q 1172 81 1172 113 
L 1172 3372 
L 159 3372 
Q 128 3372 106 3390 
Q 84 3409 68 3448 
Q 53 3488 45 3552 
Q 38 3616 38 3706 
Q 38 3800 45 3865 
Q 53 3931 68 3970 
Q 84 4009 106 4026 
Q 128 4044 159 4044 
L 3009 4044 
Q 3038 4044 3061 4026 
Q 3084 4009 3100 3970 
Q 3116 3931 3123 3865 
Q 3131 3800 3131 3706 
z
" transform="scale(0.015625)"/>
      </defs>
      <use xlink:href="#Calibri-Bold-54"/>
      <use xlink:href="#Calibri-Bold-69" transform="translate(49.511719 0)"/>
      <use xlink:href="#Calibri-Bold-6d" transform="translate(74.072266 0)"/>
      <use xlink:href="#Calibri-Bold-65" transform="translate(155.419922 0)"/>
      <use xlink:href="#Calibri-Bold-20" transform="translate(205.761719 0)"/>
      <use xlink:href="#Calibri-Bold-28" transform="translate(228.369141 0)"/>
      <use xlink:href="#Calibri-Bold-6d" transform="translate(259.521484 0)"/>
      <use xlink:href="#Calibri-Bold-69" transform="translate(340.869141 0)"/>
      <use xlink:href="#Calibri-Bold-6e" transform="translate(365.429688 0)"/>
      <use xlink:href="#Calibri-Bold-29" transform="translate(419.091797 0)"/>
     </g>
    </g>
   </g>
   <g id="matplotlib.axis_4">
    <g id="ytick_10">
     <g id="line2d_32">
      <g>
       <use xlink:href="#m41b4b37948" x="71.155625" y="505.009223" style="stroke: #000000; stroke-width: 2"/>
      </g>
     </g>
     <g id="text_32">
      <!-- 2 -->
      <g style="fill: #2596be" transform="translate(57.059375 509.767036) scale(0.14 -0.14)">
       <use xlink:href="#Calibri-Bold-32"/>
      </g>
     </g>
    </g>
    <g id="ytick_11">
     <g id="line2d_33">
      <g>
       <use xlink:href="#m41b4b37948" x="71.155625" y="468.724012" style="stroke: #000000; stroke-width: 2"/>
      </g>
     </g>
     <g id="text_33">
      <!-- 3 -->
      <g style="fill: #2596be" transform="translate(57.059375 473.481824) scale(0.14 -0.14)">
       <defs>
        <path id="Calibri-Bold-33" d="M 2969 1184 
Q 2969 881 2853 647 
Q 2738 413 2531 253 
Q 2325 94 2037 11 
Q 1750 -72 1409 -72 
Q 1203 -72 1022 -42 
Q 841 -13 702 31 
Q 563 75 472 122 
Q 381 169 353 194 
Q 325 219 311 250 
Q 297 281 286 323 
Q 275 366 270 430 
Q 266 494 266 584 
Q 266 734 291 792 
Q 316 850 366 850 
Q 397 850 473 808 
Q 550 766 669 717 
Q 788 669 947 626 
Q 1106 584 1309 584 
Q 1481 584 1612 625 
Q 1744 666 1836 739 
Q 1928 813 1973 917 
Q 2019 1022 2019 1150 
Q 2019 1291 1964 1403 
Q 1909 1516 1801 1595 
Q 1694 1675 1530 1719 
Q 1366 1763 1144 1763 
L 794 1763 
Q 753 1763 725 1773 
Q 697 1784 678 1818 
Q 659 1853 651 1914 
Q 644 1975 644 2072 
Q 644 2163 651 2220 
Q 659 2278 676 2309 
Q 694 2341 720 2353 
Q 747 2366 784 2366 
L 1138 2366 
Q 1319 2366 1459 2408 
Q 1600 2450 1695 2528 
Q 1791 2606 1841 2717 
Q 1891 2828 1891 2963 
Q 1891 3066 1856 3158 
Q 1822 3250 1755 3317 
Q 1688 3384 1581 3423 
Q 1475 3463 1331 3463 
Q 1169 3463 1025 3414 
Q 881 3366 767 3308 
Q 653 3250 573 3200 
Q 494 3150 456 3150 
Q 431 3150 412 3161 
Q 394 3172 381 3203 
Q 369 3234 362 3293 
Q 356 3353 356 3447 
Q 356 3525 359 3576 
Q 363 3628 372 3662 
Q 381 3697 395 3722 
Q 409 3747 440 3776 
Q 472 3806 569 3865 
Q 666 3925 812 3981 
Q 959 4038 1151 4077 
Q 1344 4116 1569 4116 
Q 1863 4116 2089 4047 
Q 2316 3978 2470 3848 
Q 2625 3719 2704 3530 
Q 2784 3341 2784 3103 
Q 2784 2919 2737 2759 
Q 2691 2600 2600 2475 
Q 2509 2350 2373 2262 
Q 2238 2175 2059 2131 
L 2059 2122 
Q 2272 2097 2440 2014 
Q 2609 1931 2726 1806 
Q 2844 1681 2906 1523 
Q 2969 1366 2969 1184 
z
" transform="scale(0.015625)"/>
       </defs>
       <use xlink:href="#Calibri-Bold-33"/>
      </g>
     </g>
    </g>
    <g id="ytick_12">
     <g id="line2d_34">
      <g>
       <use xlink:href="#m41b4b37948" x="71.155625" y="432.4388" style="stroke: #000000; stroke-width: 2"/>
      </g>
     </g>
     <g id="text_34">
      <!-- 4 -->
      <g style="fill: #2596be" transform="translate(57.059375 437.196613) scale(0.14 -0.14)">
       <use xlink:href="#Calibri-Bold-34"/>
      </g>
     </g>
    </g>
    <g id="ytick_13">
     <g id="line2d_35">
      <g>
       <use xlink:href="#m41b4b37948" x="71.155625" y="396.153588" style="stroke: #000000; stroke-width: 2"/>
      </g>
     </g>
     <g id="text_35">
      <!-- 5 -->
      <g style="fill: #2596be" transform="translate(57.059375 400.911401) scale(0.14 -0.14)">
       <use xlink:href="#Calibri-Bold-35"/>
      </g>
     </g>
    </g>
    <g id="text_36">
     <!-- IOB (U) -->
     <g style="fill: #2596be" transform="translate(50.57875 465.855781) rotate(-90) scale(0.14 -0.14)">
      <defs>
       <path id="Calibri-Bold-49" d="M 1266 113 
Q 1266 81 1245 56 
Q 1225 31 1178 15 
Q 1131 0 1053 -9 
Q 975 -19 853 -19 
Q 734 -19 654 -9 
Q 575 0 528 15 
Q 481 31 461 56 
Q 441 81 441 113 
L 441 3931 
Q 441 3963 461 3988 
Q 481 4013 529 4028 
Q 578 4044 656 4053 
Q 734 4063 853 4063 
Q 975 4063 1053 4053 
Q 1131 4044 1178 4028 
Q 1225 4013 1245 3988 
Q 1266 3963 1266 3931 
L 1266 113 
z
" transform="scale(0.015625)"/>
       <path id="Calibri-Bold-4f" d="M 4078 2069 
Q 4078 1566 3953 1169 
Q 3828 772 3581 495 
Q 3334 219 2970 73 
Q 2606 -72 2128 -72 
Q 1656 -72 1304 51 
Q 953 175 718 428 
Q 484 681 367 1072 
Q 250 1463 250 1997 
Q 250 2488 375 2880 
Q 500 3272 747 3547 
Q 994 3822 1358 3969 
Q 1722 4116 2203 4116 
Q 2663 4116 3014 3994 
Q 3366 3872 3602 3619 
Q 3838 3366 3958 2980 
Q 4078 2594 4078 2069 
z
M 3216 2025 
Q 3216 2344 3166 2605 
Q 3116 2866 2995 3052 
Q 2875 3238 2675 3339 
Q 2475 3441 2175 3441 
Q 1872 3441 1669 3327 
Q 1466 3213 1341 3022 
Q 1216 2831 1164 2576 
Q 1113 2322 1113 2038 
Q 1113 1706 1163 1442 
Q 1213 1178 1331 990 
Q 1450 803 1650 704 
Q 1850 606 2153 606 
Q 2456 606 2659 718 
Q 2863 831 2988 1025 
Q 3113 1219 3164 1476 
Q 3216 1734 3216 2025 
z
" transform="scale(0.015625)"/>
       <path id="Calibri-Bold-42" d="M 3369 1213 
Q 3369 997 3309 822 
Q 3250 647 3145 512 
Q 3041 378 2895 281 
Q 2750 184 2575 121 
Q 2400 59 2201 29 
Q 2003 0 1759 0 
L 684 0 
Q 581 0 511 61 
Q 441 122 441 259 
L 441 3784 
Q 441 3922 511 3983 
Q 581 4044 684 4044 
L 1700 4044 
Q 2072 4044 2330 3981 
Q 2588 3919 2764 3792 
Q 2941 3666 3034 3472 
Q 3128 3278 3128 3016 
Q 3128 2869 3090 2739 
Q 3053 2609 2981 2503 
Q 2909 2397 2804 2315 
Q 2700 2234 2566 2184 
Q 2738 2153 2883 2075 
Q 3028 1997 3136 1873 
Q 3244 1750 3306 1584 
Q 3369 1419 3369 1213 
z
M 2306 2916 
Q 2306 3038 2268 3134 
Q 2231 3231 2156 3295 
Q 2081 3359 1967 3393 
Q 1853 3428 1663 3428 
L 1247 3428 
L 1247 2378 
L 1706 2378 
Q 1884 2378 1990 2420 
Q 2097 2463 2167 2536 
Q 2238 2609 2272 2707 
Q 2306 2806 2306 2916 
z
M 2516 1184 
Q 2516 1325 2469 1436 
Q 2422 1547 2331 1622 
Q 2241 1697 2100 1737 
Q 1959 1778 1734 1778 
L 1247 1778 
L 1247 628 
L 1841 628 
Q 2013 628 2130 664 
Q 2247 700 2333 770 
Q 2419 841 2467 945 
Q 2516 1050 2516 1184 
z
" transform="scale(0.015625)"/>
       <path id="Calibri-Bold-55" d="M 3741 1506 
Q 3741 1134 3631 840 
Q 3522 547 3309 344 
Q 3097 141 2784 34 
Q 2472 -72 2066 -72 
Q 1684 -72 1381 23 
Q 1078 119 868 312 
Q 659 506 548 795 
Q 438 1084 438 1472 
L 438 3931 
Q 438 3963 456 3988 
Q 475 4013 523 4028 
Q 572 4044 650 4053 
Q 728 4063 850 4063 
Q 969 4063 1047 4053 
Q 1125 4044 1172 4028 
Q 1219 4013 1239 3988 
Q 1259 3963 1259 3931 
L 1259 1544 
Q 1259 1303 1318 1126 
Q 1378 950 1489 834 
Q 1600 719 1754 661 
Q 1909 603 2100 603 
Q 2294 603 2447 662 
Q 2600 722 2706 836 
Q 2813 950 2870 1117 
Q 2928 1284 2928 1497 
L 2928 3931 
Q 2928 3963 2947 3988 
Q 2966 4013 3012 4028 
Q 3059 4044 3139 4053 
Q 3219 4063 3338 4063 
Q 3456 4063 3532 4053 
Q 3609 4044 3656 4028 
Q 3703 4013 3722 3988 
Q 3741 3963 3741 3931 
L 3741 1506 
z
" transform="scale(0.015625)"/>
      </defs>
      <use xlink:href="#Calibri-Bold-49"/>
      <use xlink:href="#Calibri-Bold-4f" transform="translate(26.660156 0)"/>
      <use xlink:href="#Calibri-Bold-42" transform="translate(94.287109 0)"/>
      <use xlink:href="#Calibri-Bold-20" transform="translate(150.341797 0)"/>
      <use xlink:href="#Calibri-Bold-28" transform="translate(172.949219 0)"/>
      <use xlink:href="#Calibri-Bold-55" transform="translate(204.101562 0)"/>
      <use xlink:href="#Calibri-Bold-29" transform="translate(269.384766 0)"/>
     </g>
    </g>
   </g>
   <g id="line2d_36">
    <path d="M 71.155625 504.283519 
L 91.703849 504.283519 
L 93.97148 385.090227 
L 98.471855 387.111314 
L 105.274748 390.65275 
L 112.042754 394.459069 
L 114.310385 395.768965 
L 123.380908 398.160161 
L 134.684176 401.483886 
L 145.987444 405.087007 
L 159.558343 409.666201 
L 175.396872 415.217839 
L 229.680467 434.318374 
L 247.75174 440.319948 
L 263.59027 445.330936 
L 279.428799 450.084298 
L 295.267329 454.569151 
L 306.570597 457.602594 
L 322.37424 461.615739 
L 335.945138 464.834237 
L 340.4804 465.861109 
L 354.051299 473.321348 
L 363.121822 478.129139 
L 374.42509 480.175625 
L 385.728358 482.062456 
L 401.566887 484.45728 
L 417.405417 486.601736 
L 433.209059 488.517595 
L 451.31522 490.455225 
L 467.153749 491.961061 
L 487.527541 493.659209 
L 487.527541 493.659209 
" clip-path="url(#p01bc2b5811)" style="fill: none; stroke: #2596be; stroke-width: 2; stroke-linecap: square"/>
   </g>
   <g id="line2d_37">
    <path d="M 71.155625 504.283519 
L 91.668963 504.283519 
L 93.936594 385.090227 
L 96.204225 386.044528 
L 100.7046 388.250669 
L 107.507492 391.897333 
L 114.275498 395.768965 
L 123.346022 398.160161 
L 134.64929 401.483886 
L 145.952557 405.087007 
L 159.523456 409.666201 
L 175.361985 415.217839 
L 207.004158 426.480768 
L 231.878324 435.083992 
L 249.984485 441.052909 
L 265.823014 446.023983 
L 277.126282 449.420279 
L 288.42955 452.68232 
L 295.197556 454.569151 
L 340.410627 437.972295 
L 376.588061 448.172068 
L 385.658584 450.617691 
L 394.694221 456.020559 
L 408.26512 463.923478 
L 421.836018 471.539744 
L 435.406917 478.8367 
L 444.442554 483.513864 
L 455.745822 489.1417 
L 467.049089 494.522797 
L 478.352357 499.657155 
L 489.655625 504.544773 
L 489.655625 504.544773 
" clip-path="url(#p01bc2b5811)" style="fill: none; stroke: #ff69b4; stroke-width: 2; stroke-linecap: square"/>
   </g>
   <g id="patch_6">
    <path d="M 71.155625 510.5175 
L 71.155625 379.1175 
" style="fill: none; stroke: #000000; stroke-width: 2; stroke-linejoin: miter; stroke-linecap: square"/>
   </g>
   <g id="patch_7">
    <path d="M 71.155625 510.5175 
L 489.655625 510.5175 
" style="fill: none; stroke: #000000; stroke-width: 2; stroke-linejoin: miter; stroke-linecap: square"/>
   </g>
   <g id="text_37">
    <!-- b -->
    <g transform="translate(20.935625 369.00375) scale(0.2 -0.2)">
     <defs>
      <path id="Calibri-Bold-62" d="M 3200 1538 
Q 3200 1166 3119 869 
Q 3038 572 2884 362 
Q 2731 153 2507 40 
Q 2284 -72 2000 -72 
Q 1859 -72 1737 -45 
Q 1616 -19 1505 40 
Q 1394 100 1286 190 
Q 1178 281 1066 409 
L 1066 106 
Q 1066 72 1048 48 
Q 1031 25 992 9 
Q 953 -6 887 -12 
Q 822 -19 728 -19 
Q 631 -19 567 -12 
Q 503 -6 464 9 
Q 425 25 409 48 
Q 394 72 394 106 
L 394 4216 
Q 394 4247 412 4272 
Q 431 4297 476 4314 
Q 522 4331 597 4340 
Q 672 4350 788 4350 
Q 903 4350 978 4340 
Q 1053 4331 1098 4314 
Q 1144 4297 1162 4272 
Q 1181 4247 1181 4216 
L 1181 2675 
Q 1288 2781 1394 2856 
Q 1500 2931 1606 2979 
Q 1713 3028 1825 3050 
Q 1938 3072 2063 3072 
Q 2372 3072 2587 2948 
Q 2803 2825 2939 2615 
Q 3075 2406 3137 2126 
Q 3200 1847 3200 1538 
z
M 2384 1481 
Q 2384 1659 2357 1825 
Q 2331 1991 2265 2119 
Q 2200 2247 2095 2323 
Q 1991 2400 1831 2400 
Q 1753 2400 1678 2378 
Q 1603 2356 1523 2303 
Q 1444 2250 1359 2165 
Q 1275 2081 1181 1956 
L 1181 1031 
Q 1347 819 1498 708 
Q 1650 597 1816 597 
Q 1969 597 2075 675 
Q 2181 753 2251 878 
Q 2322 1003 2353 1162 
Q 2384 1322 2384 1481 
z
" transform="scale(0.015625)"/>
     </defs>
     <use xlink:href="#Calibri-Bold-62"/>
    </g>
   </g>
   <g id="legend_2">
    <g id="line2d_38">
     <path d="M 135.135938 543.7855 
L 149.135938 543.7855 
L 163.135938 543.7855 
" style="fill: none; stroke: #2596be; stroke-width: 2; stroke-linecap: square"/>
    </g>
    <g id="text_38">
     <!-- IOB -->
     <g transform="translate(174.335938 548.6855) scale(0.14 -0.14)">
      <use xlink:href="#Calibri-Bold-49"/>
      <use xlink:href="#Calibri-Bold-4f" transform="translate(26.660156 0)"/>
      <use xlink:href="#Calibri-Bold-42" transform="translate(94.287109 0)"/>
     </g>
    </g>
    <g id="line2d_39">
     <path d="M 223.384063 543.7855 
L 237.384063 543.7855 
L 251.384063 543.7855 
" style="fill: none; stroke: #ff69b4; stroke-width: 2; stroke-linecap: square"/>
    </g>
    <g id="text_39">
     <!-- IOB (Attack) -->
     <g transform="translate(262.584063 548.6855) scale(0.14 -0.14)">
      <use xlink:href="#Calibri-Bold-49"/>
      <use xlink:href="#Calibri-Bold-4f" transform="translate(26.660156 0)"/>
      <use xlink:href="#Calibri-Bold-42" transform="translate(94.287109 0)"/>
      <use xlink:href="#Calibri-Bold-20" transform="translate(150.341797 0)"/>
      <use xlink:href="#Calibri-Bold-28" transform="translate(172.949219 0)"/>
      <use xlink:href="#Calibri-Bold-41" transform="translate(204.101562 0)"/>
      <use xlink:href="#Calibri-Bold-74" transform="translate(261.572266 0)"/>
      <use xlink:href="#Calibri-Bold-74" transform="translate(296.240234 0)"/>
      <use xlink:href="#Calibri-Bold-61" transform="translate(330.908203 0)"/>
      <use xlink:href="#Calibri-Bold-63" transform="translate(380.273438 0)"/>
      <use xlink:href="#Calibri-Bold-6b" transform="translate(422.119141 0)"/>
      <use xlink:href="#Calibri-Bold-29" transform="translate(470.117188 0)"/>
     </g>
    </g>
    <g id="line2d_40">
     <path d="M 360.763438 543.7855 
L 374.763438 543.7855 
L 388.763438 543.7855 
" style="fill: none; stroke: #e96929; stroke-width: 2; stroke-linecap: square"/>
    </g>
    <g id="text_40">
     <!-- CHO -->
     <g transform="translate(399.963437 548.6855) scale(0.14 -0.14)">
      <defs>
       <path id="Calibri-Bold-48" d="M 3597 113 
Q 3597 81 3576 56 
Q 3556 31 3509 15 
Q 3463 0 3384 -9 
Q 3306 -19 3188 -19 
Q 3066 -19 2986 -9 
Q 2906 0 2861 15 
Q 2816 31 2795 56 
Q 2775 81 2775 113 
L 2775 1747 
L 1263 1747 
L 1263 113 
Q 1263 81 1244 56 
Q 1225 31 1178 15 
Q 1131 0 1053 -9 
Q 975 -19 853 -19 
Q 734 -19 654 -9 
Q 575 0 528 15 
Q 481 31 461 56 
Q 441 81 441 113 
L 441 3931 
Q 441 3963 461 3988 
Q 481 4013 528 4028 
Q 575 4044 654 4053 
Q 734 4063 853 4063 
Q 975 4063 1053 4053 
Q 1131 4044 1178 4028 
Q 1225 4013 1244 3988 
Q 1263 3963 1263 3931 
L 1263 2447 
L 2775 2447 
L 2775 3931 
Q 2775 3963 2795 3988 
Q 2816 4013 2861 4028 
Q 2906 4044 2986 4053 
Q 3066 4063 3188 4063 
Q 3306 4063 3384 4053 
Q 3463 4044 3509 4028 
Q 3556 4013 3576 3988 
Q 3597 3963 3597 3931 
L 3597 113 
z
" transform="scale(0.015625)"/>
      </defs>
      <use xlink:href="#Calibri-Bold-43"/>
      <use xlink:href="#Calibri-Bold-48" transform="translate(52.929688 0)"/>
      <use xlink:href="#Calibri-Bold-4f" transform="translate(116.015625 0)"/>
     </g>
    </g>
   </g>
  </g>
  <g id="axes_3">
   <g id="matplotlib.axis_5">
    <g id="ytick_14">
     <g id="line2d_41">
      <defs>
       <path id="m8c1eb4c54c" d="M 0 0 
L 3.5 0 
" style="stroke: #000000; stroke-width: 2"/>
      </defs>
      <g>
       <use xlink:href="#m8c1eb4c54c" x="489.655625" y="504.544773" style="stroke: #000000; stroke-width: 2"/>
      </g>
     </g>
     <g id="text_41">
      <!-- 0 -->
      <g style="fill: #e96929" transform="translate(496.655625 509.302585) scale(0.14 -0.14)">
       <use xlink:href="#Calibri-Bold-30"/>
      </g>
     </g>
    </g>
    <g id="ytick_15">
     <g id="line2d_42">
      <g>
       <use xlink:href="#m8c1eb4c54c" x="489.655625" y="464.726591" style="stroke: #000000; stroke-width: 2"/>
      </g>
     </g>
     <g id="text_42">
      <!-- 20 -->
      <g style="fill: #e96929" transform="translate(496.655625 469.484403) scale(0.14 -0.14)">
       <use xlink:href="#Calibri-Bold-32"/>
       <use xlink:href="#Calibri-Bold-30" transform="translate(50.683594 0)"/>
      </g>
     </g>
    </g>
    <g id="ytick_16">
     <g id="line2d_43">
      <g>
       <use xlink:href="#m8c1eb4c54c" x="489.655625" y="424.908409" style="stroke: #000000; stroke-width: 2"/>
      </g>
     </g>
     <g id="text_43">
      <!-- 40 -->
      <g style="fill: #e96929" transform="translate(496.655625 429.666222) scale(0.14 -0.14)">
       <use xlink:href="#Calibri-Bold-34"/>
       <use xlink:href="#Calibri-Bold-30" transform="translate(50.683594 0)"/>
      </g>
     </g>
    </g>
    <g id="ytick_17">
     <g id="line2d_44">
      <g>
       <use xlink:href="#m8c1eb4c54c" x="489.655625" y="385.090227" style="stroke: #000000; stroke-width: 2"/>
      </g>
     </g>
     <g id="text_44">
      <!-- 60 -->
      <g style="fill: #e96929" transform="translate(496.655625 389.84804) scale(0.14 -0.14)">
       <use xlink:href="#Calibri-Bold-36"/>
       <use xlink:href="#Calibri-Bold-30" transform="translate(50.683594 0)"/>
      </g>
     </g>
    </g>
    <g id="text_45">
     <!-- CHO (g) -->
     <g style="fill: #e96929" transform="translate(524.5825 466.936406) rotate(-90) scale(0.14 -0.14)">
      <use xlink:href="#Calibri-Bold-43"/>
      <use xlink:href="#Calibri-Bold-48" transform="translate(52.929688 0)"/>
      <use xlink:href="#Calibri-Bold-4f" transform="translate(116.015625 0)"/>
      <use xlink:href="#Calibri-Bold-20" transform="translate(183.642578 0)"/>
      <use xlink:href="#Calibri-Bold-28" transform="translate(206.25 0)"/>
      <use xlink:href="#Calibri-Bold-67" transform="translate(237.402344 0)"/>
      <use xlink:href="#Calibri-Bold-29" transform="translate(284.814453 0)"/>
     </g>
    </g>
   </g>
   <g id="line2d_45">
    <path d="M 71.155625 504.544773 
L 112.042754 504.544773 
L 114.310385 385.090227 
L 116.578016 504.544773 
L 487.527541 504.544773 
L 487.527541 504.544773 
" clip-path="url(#p01bc2b5811)" style="fill: none; stroke: #e96929; stroke-width: 2; stroke-linecap: square"/>
   </g>
   <g id="patch_8">
    <path d="M 489.655625 510.5175 
L 489.655625 379.1175 
" style="fill: none; stroke: #000000; stroke-width: 2; stroke-linejoin: miter; stroke-linecap: square"/>
   </g>
   <g id="patch_9">
    <path d="M 71.155625 510.5175 
L 489.655625 510.5175 
" style="fill: none; stroke: #000000; stroke-width: 2; stroke-linejoin: miter; stroke-linecap: square"/>
   </g>
  </g>
 </g>
 <defs>
  <clipPath id="pd92001e00a">
   <rect x="71.155625" y="37.4775" width="418.5" height="262.8"/>
  </clipPath>
  <clipPath id="p01bc2b5811">
   <rect x="71.155625" y="379.1175" width="418.5" height="131.4"/>
  </clipPath>
 </defs>
</svg>
