<?xml version="1.0" encoding="utf-8" standalone="no"?>
<!DOCTYPE svg PUBLIC "-//W3C//DTD SVG 1.1//EN"
  "http://www.w3.org/Graphics/SVG/1.1/DTD/svg11.dtd">
<svg xmlns:xlink="http://www.w3.org/1999/xlink" width="919.207187pt" height="524.478062pt" viewBox="0 0 919.207187 524.478062" xmlns="http://www.w3.org/2000/svg" version="1.1">
 <metadata>
  <rdf:RDF xmlns:dc="http://purl.org/dc/elements/1.1/" xmlns:cc="http://creativecommons.org/ns#" xmlns:rdf="http://www.w3.org/1999/02/22-rdf-syntax-ns#">
   <cc:Work>
    <dc:type rdf:resource="http://purl.org/dc/dcmitype/StillImage"/>
    <dc:date>2026-02-26T09:48:18.819126</dc:date>
    <dc:format>image/svg+xml</dc:format>
    <dc:creator>
     <cc:Agent>
      <dc:title>Matplotlib v3.10.8, https://matplotlib.org/</dc:title>
     </cc:Agent>
    </dc:creator>
   </cc:Work>
  </rdf:RDF>
 </metadata>
 <defs>
  <style type="text/css">*{stroke-linejoin: round; stroke-linecap: butt}</style>
 </defs>
 <g id="figure_1">
  <g id="patch_1">
   <path d="M 0 524.478062 
L 919.207187 524.478062 
L 919.207187 0 
L 0 0 
z
" style="fill: #ffffff"/>
  </g>
  <g id="axes_1">
   <g id="patch_2">
    <path d="M 52.4 300.020426 
L 405.075325 300.020426 
L 405.075325 71.254468 
L 52.4 71.254468 
z
" style="fill: #ffffff"/>
   </g>
   <g id="patch_3">
    <path d="M 52.4 275.939798 
L 405.075325 275.939798 
L 405.075325 131.456036 
L 52.4 131.456036 
z
" clip-path="url(#p7dabf20edf)" style="fill: #00b050; opacity: 0.15; stroke: #00b050; stroke-linejoin: miter"/>
   </g>
   <g id="matplotlib.axis_1">
    <g id="xtick_1">
     <g id="line2d_1">
      <defs>
       <path id="m4bdae540df" d="M 0 0 
L 0 3.5 
" style="stroke: #000000; stroke-width: 2"/>
      </defs>
      <g>
       <use xlink:href="#m4bdae540df" x="52.4" y="300.020426" style="stroke: #000000; stroke-width: 2"/>
      </g>
     </g>
     <g id="text_1">
      <!-- 0 -->
      <g transform="translate(47.838125 319.263238) scale(0.18 -0.18)">
       <defs>
        <path id="Calibri-30" d="M 3022 2031 
Q 3022 1566 2948 1181 
Q 2875 797 2704 520 
Q 2534 244 2259 92 
Q 1984 -59 1581 -59 
Q 1200 -59 939 77 
Q 678 213 518 477 
Q 359 741 292 1127 
Q 225 1513 225 2013 
Q 225 2475 300 2861 
Q 375 3247 544 3523 
Q 713 3800 988 3951 
Q 1263 4103 1663 4103 
Q 2047 4103 2308 3967 
Q 2569 3831 2728 3567 
Q 2888 3303 2955 2917 
Q 3022 2531 3022 2031 
z
M 2472 1994 
Q 2472 2297 2450 2537 
Q 2428 2778 2386 2962 
Q 2344 3147 2276 3280 
Q 2209 3413 2115 3498 
Q 2022 3584 1901 3623 
Q 1781 3663 1631 3663 
Q 1366 3663 1200 3538 
Q 1034 3413 939 3194 
Q 844 2975 809 2681 
Q 775 2388 775 2050 
Q 775 1597 822 1280 
Q 869 963 970 763 
Q 1072 563 1230 472 
Q 1388 381 1613 381 
Q 1788 381 1920 437 
Q 2053 494 2148 598 
Q 2244 703 2306 850 
Q 2369 997 2406 1175 
Q 2444 1353 2458 1561 
Q 2472 1769 2472 1994 
z
" transform="scale(0.015625)"/>
       </defs>
       <use xlink:href="#Calibri-30"/>
      </g>
     </g>
    </g>
    <g id="xtick_2">
     <g id="line2d_2">
      <g>
       <use xlink:href="#m4bdae540df" x="150.50162" y="300.020426" style="stroke: #000000; stroke-width: 2"/>
      </g>
     </g>
     <g id="text_2">
      <!-- 200 -->
      <g transform="translate(136.815995 319.263238) scale(0.18 -0.18)">
       <defs>
        <path id="Calibri-32" d="M 2888 231 
Q 2888 175 2880 131 
Q 2872 88 2858 58 
Q 2844 28 2820 14 
Q 2797 0 2769 0 
L 534 0 
Q 491 0 458 11 
Q 425 22 401 47 
Q 378 72 367 119 
Q 356 166 356 234 
Q 356 297 361 344 
Q 366 391 381 427 
Q 397 463 420 498 
Q 444 534 481 575 
L 1266 1406 
Q 1538 1694 1702 1922 
Q 1866 2150 1955 2337 
Q 2044 2525 2072 2678 
Q 2100 2831 2100 2966 
Q 2100 3100 2056 3220 
Q 2013 3341 1930 3431 
Q 1847 3522 1722 3575 
Q 1597 3628 1434 3628 
Q 1244 3628 1092 3575 
Q 941 3522 827 3459 
Q 713 3397 636 3344 
Q 559 3291 522 3291 
Q 500 3291 483 3303 
Q 466 3316 455 3344 
Q 444 3372 437 3419 
Q 431 3466 431 3531 
Q 431 3578 434 3612 
Q 438 3647 445 3672 
Q 453 3697 465 3719 
Q 478 3741 515 3773 
Q 553 3806 645 3862 
Q 738 3919 877 3973 
Q 1016 4028 1183 4065 
Q 1350 4103 1534 4103 
Q 1828 4103 2048 4020 
Q 2269 3938 2414 3794 
Q 2559 3650 2631 3459 
Q 2703 3269 2703 3053 
Q 2703 2859 2668 2667 
Q 2634 2475 2523 2251 
Q 2413 2028 2203 1754 
Q 1994 1481 1647 1125 
L 1006 456 
L 2766 456 
Q 2791 456 2814 442 
Q 2838 428 2855 400 
Q 2872 372 2880 330 
Q 2888 288 2888 231 
z
" transform="scale(0.015625)"/>
       </defs>
       <use xlink:href="#Calibri-32"/>
       <use xlink:href="#Calibri-30" transform="translate(50.683594 0)"/>
       <use xlink:href="#Calibri-30" transform="translate(101.367188 0)"/>
      </g>
     </g>
    </g>
    <g id="xtick_3">
     <g id="line2d_3">
      <g>
       <use xlink:href="#m4bdae540df" x="248.60324" y="300.020426" style="stroke: #000000; stroke-width: 2"/>
      </g>
     </g>
     <g id="text_3">
      <!-- 400 -->
      <g transform="translate(234.917615 319.263238) scale(0.18 -0.18)">
       <defs>
        <path id="Calibri-34" d="M 3059 1150 
Q 3059 1047 3028 987 
Q 2997 928 2941 928 
L 2484 928 
L 2484 78 
Q 2484 53 2471 36 
Q 2459 19 2428 6 
Q 2397 -6 2347 -12 
Q 2297 -19 2219 -19 
Q 2144 -19 2094 -12 
Q 2044 -6 2014 6 
Q 1984 19 1973 36 
Q 1963 53 1963 78 
L 1963 928 
L 294 928 
Q 256 928 231 937 
Q 206 947 186 972 
Q 166 997 158 1044 
Q 150 1091 150 1166 
Q 150 1225 153 1272 
Q 156 1319 165 1358 
Q 175 1397 190 1433 
Q 206 1469 228 1509 
L 1684 3966 
Q 1700 3991 1729 4009 
Q 1759 4028 1806 4040 
Q 1853 4053 1922 4058 
Q 1991 4063 2084 4063 
Q 2188 4063 2264 4055 
Q 2341 4047 2387 4034 
Q 2434 4022 2459 4001 
Q 2484 3981 2484 3953 
L 2484 1372 
L 2941 1372 
Q 2994 1372 3026 1317 
Q 3059 1263 3059 1150 
z
M 1963 3591 
L 1956 3591 
L 641 1372 
L 1963 1372 
L 1963 3591 
z
" transform="scale(0.015625)"/>
       </defs>
       <use xlink:href="#Calibri-34"/>
       <use xlink:href="#Calibri-30" transform="translate(50.683594 0)"/>
       <use xlink:href="#Calibri-30" transform="translate(101.367188 0)"/>
      </g>
     </g>
    </g>
    <g id="xtick_4">
     <g id="line2d_4">
      <g>
       <use xlink:href="#m4bdae540df" x="346.704861" y="300.020426" style="stroke: #000000; stroke-width: 2"/>
      </g>
     </g>
     <g id="text_4">
      <!-- 600 -->
      <g transform="translate(333.019236 319.263238) scale(0.18 -0.18)">
       <defs>
        <path id="Calibri-36" d="M 2991 1309 
Q 2991 1044 2909 795 
Q 2828 547 2659 358 
Q 2491 169 2231 55 
Q 1972 -59 1619 -59 
Q 1366 -59 1172 3 
Q 978 66 834 181 
Q 691 297 595 465 
Q 500 634 442 850 
Q 384 1066 359 1322 
Q 334 1578 334 1872 
Q 334 2131 362 2397 
Q 391 2663 462 2909 
Q 534 3156 657 3373 
Q 781 3591 967 3752 
Q 1153 3913 1412 4006 
Q 1672 4100 2016 4100 
Q 2131 4100 2250 4086 
Q 2369 4072 2469 4048 
Q 2569 4025 2637 3997 
Q 2706 3969 2728 3951 
Q 2750 3934 2761 3914 
Q 2772 3894 2778 3870 
Q 2784 3847 2787 3817 
Q 2791 3788 2791 3744 
Q 2791 3688 2789 3647 
Q 2788 3606 2777 3581 
Q 2766 3556 2748 3543 
Q 2731 3531 2703 3531 
Q 2669 3531 2609 3553 
Q 2550 3575 2465 3601 
Q 2381 3628 2261 3650 
Q 2141 3672 1981 3672 
Q 1691 3672 1481 3553 
Q 1272 3434 1139 3234 
Q 1006 3034 942 2770 
Q 878 2506 869 2219 
Q 950 2266 1051 2312 
Q 1153 2359 1273 2396 
Q 1394 2434 1528 2457 
Q 1663 2481 1816 2481 
Q 2144 2481 2369 2392 
Q 2594 2303 2733 2145 
Q 2872 1988 2931 1773 
Q 2991 1559 2991 1309 
z
M 2447 1259 
Q 2447 1441 2411 1589 
Q 2375 1738 2290 1841 
Q 2206 1944 2065 2000 
Q 1925 2056 1719 2056 
Q 1603 2056 1487 2036 
Q 1372 2016 1264 1980 
Q 1156 1944 1057 1895 
Q 959 1847 878 1791 
Q 878 1388 929 1116 
Q 981 844 1079 680 
Q 1178 516 1325 445 
Q 1472 375 1669 375 
Q 1869 375 2016 450 
Q 2163 525 2259 651 
Q 2356 778 2401 936 
Q 2447 1094 2447 1259 
z
" transform="scale(0.015625)"/>
       </defs>
       <use xlink:href="#Calibri-36"/>
       <use xlink:href="#Calibri-30" transform="translate(50.683594 0)"/>
       <use xlink:href="#Calibri-30" transform="translate(101.367188 0)"/>
      </g>
     </g>
    </g>
    <g id="text_5">
     <!-- Time (min) -->
     <g transform="translate(189.139069 338.765738) scale(0.18 -0.18)">
      <defs>
       <path id="Calibri-54" d="M 3072 3813 
Q 3072 3753 3065 3709 
Q 3059 3666 3045 3639 
Q 3031 3613 3011 3600 
Q 2991 3588 2966 3588 
L 1828 3588 
L 1828 81 
Q 1828 56 1815 37 
Q 1803 19 1772 8 
Q 1741 -3 1689 -11 
Q 1638 -19 1559 -19 
Q 1484 -19 1431 -11 
Q 1378 -3 1347 8 
Q 1316 19 1303 37 
Q 1291 56 1291 81 
L 1291 3588 
L 153 3588 
Q 128 3588 108 3600 
Q 88 3613 75 3639 
Q 63 3666 55 3709 
Q 47 3753 47 3813 
Q 47 3872 55 3917 
Q 63 3963 75 3991 
Q 88 4019 108 4031 
Q 128 4044 153 4044 
L 2966 4044 
Q 2991 4044 3011 4031 
Q 3031 4019 3045 3991 
Q 3059 3963 3065 3917 
Q 3072 3872 3072 3813 
z
" transform="scale(0.015625)"/>
       <path id="Calibri-69" d="M 994 78 
Q 994 53 981 36 
Q 969 19 941 6 
Q 913 -6 863 -12 
Q 813 -19 734 -19 
Q 659 -19 609 -12 
Q 559 -6 529 6 
Q 500 19 489 36 
Q 478 53 478 78 
L 478 2891 
Q 478 2913 489 2931 
Q 500 2950 529 2962 
Q 559 2975 609 2981 
Q 659 2988 734 2988 
Q 813 2988 863 2981 
Q 913 2975 941 2962 
Q 969 2950 981 2931 
Q 994 2913 994 2891 
L 994 78 
z
M 1053 3841 
Q 1053 3659 984 3593 
Q 916 3528 731 3528 
Q 550 3528 483 3592 
Q 416 3656 416 3834 
Q 416 4016 484 4081 
Q 553 4147 738 4147 
Q 919 4147 986 4083 
Q 1053 4019 1053 3841 
z
" transform="scale(0.015625)"/>
       <path id="Calibri-6d" d="M 4650 78 
Q 4650 53 4637 36 
Q 4625 19 4597 6 
Q 4569 -6 4519 -12 
Q 4469 -19 4394 -19 
Q 4316 -19 4266 -12 
Q 4216 -6 4186 6 
Q 4156 19 4143 36 
Q 4131 53 4131 78 
L 4131 1788 
Q 4131 1966 4100 2112 
Q 4069 2259 4000 2365 
Q 3931 2472 3825 2528 
Q 3719 2584 3575 2584 
Q 3397 2584 3217 2446 
Q 3038 2309 2822 2044 
L 2822 78 
Q 2822 53 2809 36 
Q 2797 19 2767 6 
Q 2738 -6 2688 -12 
Q 2638 -19 2563 -19 
Q 2491 -19 2439 -12 
Q 2388 -6 2358 6 
Q 2328 19 2317 36 
Q 2306 53 2306 78 
L 2306 1788 
Q 2306 1966 2272 2112 
Q 2238 2259 2169 2365 
Q 2100 2472 1995 2528 
Q 1891 2584 1747 2584 
Q 1569 2584 1387 2446 
Q 1206 2309 994 2044 
L 994 78 
Q 994 53 981 36 
Q 969 19 941 6 
Q 913 -6 863 -12 
Q 813 -19 734 -19 
Q 659 -19 609 -12 
Q 559 -6 529 6 
Q 500 19 489 36 
Q 478 53 478 78 
L 478 2891 
Q 478 2916 487 2933 
Q 497 2950 525 2964 
Q 553 2978 597 2983 
Q 641 2988 713 2988 
Q 781 2988 826 2983 
Q 872 2978 897 2964 
Q 922 2950 933 2933 
Q 944 2916 944 2891 
L 944 2519 
Q 1181 2784 1404 2907 
Q 1628 3031 1856 3031 
Q 2031 3031 2170 2990 
Q 2309 2950 2415 2876 
Q 2522 2803 2597 2701 
Q 2672 2600 2722 2475 
Q 2863 2628 2989 2734 
Q 3116 2841 3233 2906 
Q 3350 2972 3461 3001 
Q 3572 3031 3684 3031 
Q 3956 3031 4140 2936 
Q 4325 2841 4439 2681 
Q 4553 2522 4601 2308 
Q 4650 2094 4650 1856 
L 4650 78 
z
" transform="scale(0.015625)"/>
       <path id="Calibri-65" d="M 2878 1606 
Q 2878 1484 2817 1432 
Q 2756 1381 2678 1381 
L 834 1381 
Q 834 1147 881 959 
Q 928 772 1037 637 
Q 1147 503 1322 431 
Q 1497 359 1750 359 
Q 1950 359 2106 392 
Q 2263 425 2377 465 
Q 2491 506 2564 539 
Q 2638 572 2675 572 
Q 2697 572 2714 561 
Q 2731 550 2740 528 
Q 2750 506 2754 467 
Q 2759 428 2759 372 
Q 2759 331 2756 301 
Q 2753 272 2748 248 
Q 2744 225 2733 206 
Q 2722 188 2705 170 
Q 2688 153 2603 114 
Q 2519 75 2384 37 
Q 2250 0 2073 -29 
Q 1897 -59 1697 -59 
Q 1350 -59 1089 37 
Q 828 134 650 325 
Q 472 516 381 803 
Q 291 1091 291 1472 
Q 291 1834 384 2123 
Q 478 2413 654 2614 
Q 831 2816 1081 2923 
Q 1331 3031 1641 3031 
Q 1972 3031 2205 2925 
Q 2438 2819 2588 2639 
Q 2738 2459 2808 2217 
Q 2878 1975 2878 1700 
L 2878 1606 
z
M 2359 1759 
Q 2369 2166 2180 2397 
Q 1991 2628 1619 2628 
Q 1428 2628 1284 2556 
Q 1141 2484 1044 2365 
Q 947 2247 894 2089 
Q 841 1931 834 1759 
L 2359 1759 
z
" transform="scale(0.015625)"/>
       <path id="Calibri-20" transform="scale(0.015625)"/>
       <path id="Calibri-28" d="M 1547 4306 
Q 1250 3678 1104 3017 
Q 959 2356 959 1688 
Q 959 1016 1107 356 
Q 1256 -303 1541 -938 
Q 1556 -975 1557 -1001 
Q 1559 -1028 1537 -1045 
Q 1516 -1063 1470 -1070 
Q 1425 -1078 1347 -1078 
Q 1291 -1078 1250 -1075 
Q 1209 -1072 1179 -1062 
Q 1150 -1053 1131 -1040 
Q 1113 -1028 1103 -1013 
Q 934 -694 806 -367 
Q 678 -41 590 296 
Q 503 634 459 979 
Q 416 1325 416 1678 
Q 416 2031 464 2375 
Q 513 2719 602 3058 
Q 691 3397 819 3725 
Q 947 4053 1106 4375 
Q 1109 4388 1123 4397 
Q 1138 4406 1163 4415 
Q 1188 4425 1231 4429 
Q 1275 4434 1344 4434 
Q 1416 4434 1459 4425 
Q 1503 4416 1528 4400 
Q 1553 4384 1556 4359 
Q 1559 4334 1547 4306 
z
" transform="scale(0.015625)"/>
       <path id="Calibri-6e" d="M 2900 78 
Q 2900 53 2887 36 
Q 2875 19 2847 6 
Q 2819 -6 2769 -12 
Q 2719 -19 2644 -19 
Q 2566 -19 2516 -12 
Q 2466 -6 2437 6 
Q 2409 19 2396 36 
Q 2384 53 2384 78 
L 2384 1725 
Q 2384 1966 2346 2112 
Q 2309 2259 2237 2365 
Q 2166 2472 2052 2528 
Q 1938 2584 1788 2584 
Q 1594 2584 1400 2446 
Q 1206 2309 994 2044 
L 994 78 
Q 994 53 981 36 
Q 969 19 941 6 
Q 913 -6 863 -12 
Q 813 -19 734 -19 
Q 659 -19 609 -12 
Q 559 -6 529 6 
Q 500 19 489 36 
Q 478 53 478 78 
L 478 2891 
Q 478 2916 487 2933 
Q 497 2950 525 2964 
Q 553 2978 597 2983 
Q 641 2988 713 2988 
Q 781 2988 826 2983 
Q 872 2978 897 2964 
Q 922 2950 933 2933 
Q 944 2916 944 2891 
L 944 2519 
Q 1181 2784 1417 2907 
Q 1653 3031 1894 3031 
Q 2175 3031 2367 2936 
Q 2559 2841 2678 2681 
Q 2797 2522 2848 2308 
Q 2900 2094 2900 1794 
L 2900 78 
z
" transform="scale(0.015625)"/>
       <path id="Calibri-29" d="M 1522 1678 
Q 1522 1325 1478 979 
Q 1434 634 1346 296 
Q 1259 -41 1132 -367 
Q 1006 -694 838 -1013 
Q 828 -1028 809 -1040 
Q 791 -1053 761 -1062 
Q 731 -1072 690 -1075 
Q 650 -1078 594 -1078 
Q 513 -1078 467 -1070 
Q 422 -1063 401 -1045 
Q 381 -1028 382 -1001 
Q 384 -975 400 -938 
Q 688 -306 834 355 
Q 981 1016 981 1688 
Q 981 2356 834 3017 
Q 688 3678 394 4306 
Q 381 4334 384 4359 
Q 388 4384 413 4400 
Q 438 4416 481 4425 
Q 525 4434 597 4434 
Q 663 4434 706 4429 
Q 750 4425 776 4415 
Q 803 4406 815 4397 
Q 828 4388 834 4375 
Q 1156 3734 1339 3057 
Q 1522 2381 1522 1678 
z
" transform="scale(0.015625)"/>
      </defs>
      <use xlink:href="#Calibri-54"/>
      <use xlink:href="#Calibri-69" transform="translate(48.730469 0)"/>
      <use xlink:href="#Calibri-6d" transform="translate(71.679688 0)"/>
      <use xlink:href="#Calibri-65" transform="translate(151.5625 0)"/>
      <use xlink:href="#Calibri-20" transform="translate(201.318359 0)"/>
      <use xlink:href="#Calibri-28" transform="translate(223.925781 0)"/>
      <use xlink:href="#Calibri-6d" transform="translate(254.248047 0)"/>
      <use xlink:href="#Calibri-69" transform="translate(334.130859 0)"/>
      <use xlink:href="#Calibri-6e" transform="translate(357.080078 0)"/>
      <use xlink:href="#Calibri-29" transform="translate(409.619141 0)"/>
     </g>
    </g>
   </g>
   <g id="matplotlib.axis_2">
    <g id="ytick_1">
     <g id="line2d_5">
      <defs>
       <path id="m8ebe4e7890" d="M 0 0 
L -3.5 0 
" style="stroke: #000000; stroke-width: 2"/>
      </defs>
      <g>
       <use xlink:href="#m8ebe4e7890" x="52.4" y="300.020426" style="stroke: #000000; stroke-width: 2"/>
      </g>
     </g>
     <g id="text_6">
      <!-- 3 -->
      <g transform="translate(36.27625 306.141832) scale(0.18 -0.18)">
       <defs>
        <path id="Calibri-33" d="M 2856 1156 
Q 2856 878 2759 654 
Q 2663 431 2481 272 
Q 2300 113 2034 27 
Q 1769 -59 1434 -59 
Q 1231 -59 1054 -26 
Q 878 6 740 51 
Q 603 97 512 145 
Q 422 194 398 216 
Q 375 238 362 259 
Q 350 281 340 312 
Q 331 344 326 389 
Q 322 434 322 500 
Q 322 613 344 656 
Q 366 700 406 700 
Q 434 700 517 650 
Q 600 600 729 542 
Q 859 484 1032 434 
Q 1206 384 1419 384 
Q 1625 384 1781 437 
Q 1938 491 2044 587 
Q 2150 684 2203 817 
Q 2256 950 2256 1106 
Q 2256 1278 2189 1415 
Q 2122 1553 1992 1653 
Q 1863 1753 1673 1806 
Q 1484 1859 1244 1859 
L 859 1859 
Q 834 1859 811 1870 
Q 788 1881 770 1906 
Q 753 1931 742 1972 
Q 731 2013 731 2078 
Q 731 2138 740 2177 
Q 750 2216 767 2239 
Q 784 2263 806 2273 
Q 828 2284 856 2284 
L 1209 2284 
Q 1416 2284 1580 2337 
Q 1744 2391 1858 2491 
Q 1972 2591 2033 2730 
Q 2094 2869 2094 3041 
Q 2094 3166 2053 3280 
Q 2013 3394 1931 3478 
Q 1850 3563 1723 3611 
Q 1597 3659 1431 3659 
Q 1250 3659 1098 3604 
Q 947 3550 828 3487 
Q 709 3425 631 3370 
Q 553 3316 522 3316 
Q 500 3316 483 3323 
Q 466 3331 455 3354 
Q 444 3378 439 3420 
Q 434 3463 434 3531 
Q 434 3578 437 3614 
Q 441 3650 450 3676 
Q 459 3703 471 3725 
Q 484 3747 514 3776 
Q 544 3806 634 3862 
Q 725 3919 858 3973 
Q 991 4028 1164 4065 
Q 1338 4103 1538 4103 
Q 1819 4103 2031 4031 
Q 2244 3959 2386 3828 
Q 2528 3697 2598 3514 
Q 2669 3331 2669 3109 
Q 2669 2919 2619 2755 
Q 2569 2591 2472 2464 
Q 2375 2338 2234 2248 
Q 2094 2159 1909 2125 
L 1909 2119 
Q 2119 2097 2292 2014 
Q 2466 1931 2591 1806 
Q 2716 1681 2786 1514 
Q 2856 1347 2856 1156 
z
" transform="scale(0.015625)"/>
       </defs>
       <use xlink:href="#Calibri-33"/>
      </g>
     </g>
    </g>
    <g id="ytick_2">
     <g id="line2d_6">
      <g>
       <use xlink:href="#m8ebe4e7890" x="52.4" y="227.778544" style="stroke: #000000; stroke-width: 2"/>
      </g>
     </g>
     <g id="text_7">
      <!-- 6 -->
      <g transform="translate(36.27625 233.89995) scale(0.18 -0.18)">
       <use xlink:href="#Calibri-36"/>
      </g>
     </g>
    </g>
    <g id="ytick_3">
     <g id="line2d_7">
      <g>
       <use xlink:href="#m8ebe4e7890" x="52.4" y="155.536663" style="stroke: #000000; stroke-width: 2"/>
      </g>
     </g>
     <g id="text_8">
      <!-- 9 -->
      <g transform="translate(36.27625 161.658069) scale(0.18 -0.18)">
       <defs>
        <path id="Calibri-39" d="M 2919 2181 
Q 2919 1919 2887 1650 
Q 2856 1381 2781 1132 
Q 2706 884 2579 667 
Q 2453 450 2261 287 
Q 2069 125 1805 33 
Q 1541 -59 1191 -59 
Q 1056 -59 929 -42 
Q 803 -25 701 0 
Q 600 25 531 53 
Q 463 81 431 109 
Q 400 138 386 186 
Q 372 234 372 316 
Q 372 384 376 425 
Q 381 466 390 487 
Q 400 509 417 517 
Q 434 525 459 525 
Q 494 525 556 501 
Q 619 478 714 450 
Q 809 422 937 398 
Q 1066 375 1225 375 
Q 1528 375 1745 492 
Q 1963 609 2100 806 
Q 2238 1003 2306 1262 
Q 2375 1522 2381 1809 
Q 2216 1713 1984 1638 
Q 1753 1563 1453 1563 
Q 1116 1563 886 1655 
Q 656 1747 517 1906 
Q 378 2066 317 2284 
Q 256 2503 256 2763 
Q 256 3031 334 3273 
Q 413 3516 578 3700 
Q 744 3884 1000 3993 
Q 1256 4103 1613 4103 
Q 1866 4103 2061 4039 
Q 2256 3975 2400 3854 
Q 2544 3734 2644 3564 
Q 2744 3394 2805 3178 
Q 2866 2963 2892 2711 
Q 2919 2459 2919 2181 
z
M 2372 2241 
Q 2372 2641 2319 2914 
Q 2266 3188 2162 3356 
Q 2059 3525 1909 3600 
Q 1759 3675 1563 3675 
Q 1359 3675 1215 3601 
Q 1072 3528 980 3404 
Q 888 3281 844 3125 
Q 800 2969 800 2803 
Q 800 2619 839 2466 
Q 878 2313 965 2206 
Q 1053 2100 1193 2042 
Q 1334 1984 1541 1984 
Q 1775 1984 1994 2054 
Q 2213 2125 2372 2241 
z
" transform="scale(0.015625)"/>
       </defs>
       <use xlink:href="#Calibri-39"/>
      </g>
     </g>
    </g>
    <g id="ytick_4">
     <g id="line2d_8">
      <g>
       <use xlink:href="#m8ebe4e7890" x="52.4" y="83.294782" style="stroke: #000000; stroke-width: 2"/>
      </g>
     </g>
     <g id="text_9">
      <!-- 12 -->
      <g transform="translate(27.1525 89.416188) scale(0.18 -0.18)">
       <defs>
        <path id="Calibri-31" d="M 2897 213 
Q 2897 153 2887 112 
Q 2878 72 2862 47 
Q 2847 22 2826 11 
Q 2806 0 2784 0 
L 672 0 
Q 650 0 631 11 
Q 613 22 595 47 
Q 578 72 568 112 
Q 559 153 559 213 
Q 559 269 568 309 
Q 578 350 592 376 
Q 606 403 626 417 
Q 647 431 672 431 
L 1516 431 
L 1516 3506 
L 734 3041 
Q 675 3009 639 3003 
Q 603 2997 581 3017 
Q 559 3038 551 3084 
Q 544 3131 544 3203 
Q 544 3256 548 3293 
Q 553 3331 562 3356 
Q 572 3381 589 3400 
Q 606 3419 634 3438 
L 1566 4034 
Q 1578 4044 1597 4050 
Q 1616 4056 1644 4062 
Q 1672 4069 1709 4070 
Q 1747 4072 1803 4072 
Q 1878 4072 1928 4065 
Q 1978 4059 2006 4048 
Q 2034 4038 2043 4020 
Q 2053 4003 2053 3984 
L 2053 431 
L 2784 431 
Q 2809 431 2831 417 
Q 2853 403 2867 376 
Q 2881 350 2889 309 
Q 2897 269 2897 213 
z
" transform="scale(0.015625)"/>
       </defs>
       <use xlink:href="#Calibri-31"/>
       <use xlink:href="#Calibri-32" transform="translate(50.683594 0)"/>
      </g>
     </g>
    </g>
    <g id="text_10">
     <!-- Glucose (mmol/L) -->
     <g transform="translate(19.951875 250.606197) rotate(-90) scale(0.18 -0.18)">
      <defs>
       <path id="Calibri-47" d="M 3575 3494 
Q 3575 3434 3569 3389 
Q 3563 3344 3550 3314 
Q 3538 3284 3519 3271 
Q 3500 3259 3478 3259 
Q 3441 3259 3353 3318 
Q 3266 3378 3119 3450 
Q 2972 3522 2767 3581 
Q 2563 3641 2281 3641 
Q 1947 3641 1681 3519 
Q 1416 3397 1231 3181 
Q 1047 2966 948 2669 
Q 850 2372 850 2025 
Q 850 1638 958 1338 
Q 1066 1038 1256 831 
Q 1447 625 1711 519 
Q 1975 413 2291 413 
Q 2478 413 2670 458 
Q 2863 503 3028 594 
L 3028 1772 
L 2091 1772 
Q 2038 1772 2011 1825 
Q 1984 1878 1984 1991 
Q 1984 2050 1990 2092 
Q 1997 2134 2011 2161 
Q 2025 2188 2044 2200 
Q 2063 2213 2091 2213 
L 3375 2213 
Q 3409 2213 3443 2200 
Q 3478 2188 3506 2163 
Q 3534 2138 3550 2094 
Q 3566 2050 3566 1994 
L 3566 453 
Q 3566 372 3537 312 
Q 3509 253 3418 208 
Q 3328 163 3184 109 
Q 3041 56 2887 18 
Q 2734 -19 2578 -37 
Q 2422 -56 2269 -56 
Q 1800 -56 1431 89 
Q 1063 234 808 503 
Q 553 772 418 1147 
Q 284 1522 284 1984 
Q 284 2466 429 2856 
Q 575 3247 839 3522 
Q 1103 3797 1473 3948 
Q 1844 4100 2294 4100 
Q 2525 4100 2728 4059 
Q 2931 4019 3089 3964 
Q 3247 3909 3355 3845 
Q 3463 3781 3503 3740 
Q 3544 3700 3559 3647 
Q 3575 3594 3575 3494 
z
" transform="scale(0.015625)"/>
       <path id="Calibri-6c" d="M 994 78 
Q 994 53 981 36 
Q 969 19 941 6 
Q 913 -6 863 -12 
Q 813 -19 734 -19 
Q 659 -19 609 -12 
Q 559 -6 529 6 
Q 500 19 489 36 
Q 478 53 478 78 
L 478 4253 
Q 478 4278 489 4297 
Q 500 4316 529 4328 
Q 559 4341 609 4347 
Q 659 4353 734 4353 
Q 813 4353 863 4347 
Q 913 4341 941 4328 
Q 969 4316 981 4297 
Q 994 4278 994 4253 
L 994 78 
z
" transform="scale(0.015625)"/>
       <path id="Calibri-75" d="M 2888 78 
Q 2888 53 2877 36 
Q 2866 19 2837 6 
Q 2809 -6 2764 -12 
Q 2719 -19 2653 -19 
Q 2581 -19 2536 -12 
Q 2491 -6 2464 6 
Q 2438 19 2428 36 
Q 2419 53 2419 78 
L 2419 450 
Q 2178 184 1943 62 
Q 1709 -59 1469 -59 
Q 1188 -59 995 34 
Q 803 128 684 289 
Q 566 450 514 664 
Q 463 878 463 1184 
L 463 2891 
Q 463 2916 473 2933 
Q 484 2950 515 2964 
Q 547 2978 597 2983 
Q 647 2988 722 2988 
Q 797 2988 847 2983 
Q 897 2978 926 2964 
Q 956 2950 968 2933 
Q 981 2916 981 2891 
L 981 1253 
Q 981 1006 1017 857 
Q 1053 709 1126 604 
Q 1200 500 1312 442 
Q 1425 384 1575 384 
Q 1769 384 1961 521 
Q 2153 659 2369 925 
L 2369 2891 
Q 2369 2916 2380 2933 
Q 2391 2950 2422 2964 
Q 2453 2978 2501 2983 
Q 2550 2988 2628 2988 
Q 2703 2988 2753 2983 
Q 2803 2978 2831 2964 
Q 2859 2950 2873 2933 
Q 2888 2916 2888 2891 
L 2888 78 
z
" transform="scale(0.015625)"/>
       <path id="Calibri-63" d="M 2500 506 
Q 2500 453 2497 414 
Q 2494 375 2486 348 
Q 2478 322 2467 301 
Q 2456 281 2417 242 
Q 2378 203 2284 145 
Q 2191 88 2073 42 
Q 1956 -3 1818 -31 
Q 1681 -59 1534 -59 
Q 1231 -59 997 41 
Q 763 141 605 333 
Q 447 525 364 804 
Q 281 1084 281 1450 
Q 281 1866 382 2164 
Q 484 2463 661 2653 
Q 838 2844 1077 2936 
Q 1316 3028 1594 3028 
Q 1728 3028 1854 3003 
Q 1981 2978 2087 2937 
Q 2194 2897 2276 2844 
Q 2359 2791 2396 2753 
Q 2434 2716 2448 2694 
Q 2463 2672 2472 2642 
Q 2481 2613 2484 2575 
Q 2488 2538 2488 2481 
Q 2488 2359 2459 2311 
Q 2431 2263 2391 2263 
Q 2344 2263 2283 2314 
Q 2222 2366 2128 2428 
Q 2034 2491 1901 2542 
Q 1769 2594 1588 2594 
Q 1216 2594 1017 2308 
Q 819 2022 819 1478 
Q 819 1206 870 1001 
Q 922 797 1022 659 
Q 1122 522 1267 455 
Q 1413 388 1600 388 
Q 1778 388 1912 444 
Q 2047 500 2145 567 
Q 2244 634 2311 689 
Q 2378 744 2416 744 
Q 2438 744 2453 731 
Q 2469 719 2480 689 
Q 2491 659 2495 614 
Q 2500 569 2500 506 
z
" transform="scale(0.015625)"/>
       <path id="Calibri-6f" d="M 3094 1516 
Q 3094 1172 3003 883 
Q 2913 594 2733 384 
Q 2553 175 2283 58 
Q 2013 -59 1656 -59 
Q 1309 -59 1051 44 
Q 794 147 622 344 
Q 450 541 365 822 
Q 281 1103 281 1459 
Q 281 1803 370 2092 
Q 459 2381 639 2590 
Q 819 2800 1087 2915 
Q 1356 3031 1716 3031 
Q 2063 3031 2320 2928 
Q 2578 2825 2750 2628 
Q 2922 2431 3008 2150 
Q 3094 1869 3094 1516 
z
M 2550 1481 
Q 2550 1709 2508 1912 
Q 2466 2116 2369 2269 
Q 2272 2422 2106 2511 
Q 1941 2600 1694 2600 
Q 1466 2600 1302 2519 
Q 1138 2438 1031 2289 
Q 925 2141 873 1937 
Q 822 1734 822 1494 
Q 822 1263 864 1059 
Q 906 856 1004 704 
Q 1103 553 1268 464 
Q 1434 375 1681 375 
Q 1906 375 2072 456 
Q 2238 538 2344 684 
Q 2450 831 2500 1034 
Q 2550 1238 2550 1481 
z
" transform="scale(0.015625)"/>
       <path id="Calibri-73" d="M 2244 844 
Q 2244 628 2164 459 
Q 2084 291 1937 175 
Q 1791 59 1587 0 
Q 1384 -59 1141 -59 
Q 991 -59 855 -36 
Q 719 -13 611 23 
Q 503 59 428 98 
Q 353 138 318 169 
Q 284 200 268 256 
Q 253 313 253 409 
Q 253 469 259 509 
Q 266 550 275 575 
Q 284 600 301 611 
Q 319 622 341 622 
Q 375 622 442 580 
Q 509 538 607 488 
Q 706 438 840 395 
Q 975 353 1150 353 
Q 1281 353 1387 381 
Q 1494 409 1572 464 
Q 1650 519 1692 603 
Q 1734 688 1734 803 
Q 1734 922 1673 1003 
Q 1613 1084 1513 1146 
Q 1413 1209 1288 1257 
Q 1163 1306 1030 1359 
Q 897 1413 770 1480 
Q 644 1547 544 1644 
Q 444 1741 383 1875 
Q 322 2009 322 2197 
Q 322 2363 386 2514 
Q 450 2666 578 2780 
Q 706 2894 898 2962 
Q 1091 3031 1347 3031 
Q 1459 3031 1571 3012 
Q 1684 2994 1775 2966 
Q 1866 2938 1930 2905 
Q 1994 2872 2026 2847 
Q 2059 2822 2070 2803 
Q 2081 2784 2086 2761 
Q 2091 2738 2095 2703 
Q 2100 2669 2100 2619 
Q 2100 2566 2095 2527 
Q 2091 2488 2080 2463 
Q 2069 2438 2053 2427 
Q 2038 2416 2019 2416 
Q 1991 2416 1937 2450 
Q 1884 2484 1800 2523 
Q 1716 2563 1602 2597 
Q 1488 2631 1341 2631 
Q 1209 2631 1109 2601 
Q 1009 2572 945 2517 
Q 881 2463 848 2388 
Q 816 2313 816 2225 
Q 816 2103 878 2020 
Q 941 1938 1041 1875 
Q 1141 1813 1269 1763 
Q 1397 1713 1530 1659 
Q 1663 1606 1792 1540 
Q 1922 1475 2022 1381 
Q 2122 1288 2183 1156 
Q 2244 1025 2244 844 
z
" transform="scale(0.015625)"/>
       <path id="Calibri-2f" d="M 525 -753 
Q 513 -794 492 -817 
Q 472 -841 440 -853 
Q 409 -866 364 -872 
Q 319 -878 253 -878 
Q 175 -878 123 -867 
Q 72 -856 44 -836 
Q 16 -816 9 -786 
Q 3 -756 22 -716 
L 1913 4469 
Q 1925 4509 1945 4532 
Q 1966 4556 1995 4570 
Q 2025 4584 2072 4589 
Q 2119 4594 2184 4594 
Q 2263 4594 2313 4583 
Q 2363 4572 2391 4553 
Q 2419 4534 2425 4503 
Q 2431 4472 2416 4431 
L 525 -753 
z
" transform="scale(0.015625)"/>
       <path id="Calibri-4c" d="M 2634 234 
Q 2634 172 2628 130 
Q 2622 88 2608 58 
Q 2594 28 2573 14 
Q 2553 0 2525 0 
L 738 0 
Q 666 0 602 48 
Q 538 97 538 219 
L 538 3963 
Q 538 3988 550 4006 
Q 563 4025 594 4036 
Q 625 4047 678 4055 
Q 731 4063 806 4063 
Q 884 4063 936 4055 
Q 988 4047 1019 4036 
Q 1050 4025 1062 4006 
Q 1075 3988 1075 3963 
L 1075 466 
L 2525 466 
Q 2553 466 2573 452 
Q 2594 438 2608 411 
Q 2622 384 2628 340 
Q 2634 297 2634 234 
z
" transform="scale(0.015625)"/>
      </defs>
      <use xlink:href="#Calibri-47"/>
      <use xlink:href="#Calibri-6c" transform="translate(63.085938 0)"/>
      <use xlink:href="#Calibri-75" transform="translate(86.035156 0)"/>
      <use xlink:href="#Calibri-63" transform="translate(138.574219 0)"/>
      <use xlink:href="#Calibri-6f" transform="translate(180.859375 0)"/>
      <use xlink:href="#Calibri-73" transform="translate(233.59375 0)"/>
      <use xlink:href="#Calibri-65" transform="translate(272.705078 0)"/>
      <use xlink:href="#Calibri-20" transform="translate(322.460938 0)"/>
      <use xlink:href="#Calibri-28" transform="translate(345.068359 0)"/>
      <use xlink:href="#Calibri-6d" transform="translate(375.390625 0)"/>
      <use xlink:href="#Calibri-6d" transform="translate(455.273438 0)"/>
      <use xlink:href="#Calibri-6f" transform="translate(535.15625 0)"/>
      <use xlink:href="#Calibri-6c" transform="translate(587.890625 0)"/>
      <use xlink:href="#Calibri-2f" transform="translate(610.839844 0)"/>
      <use xlink:href="#Calibri-4c" transform="translate(649.462891 0)"/>
      <use xlink:href="#Calibri-29" transform="translate(691.503906 0)"/>
     </g>
    </g>
   </g>
   <g id="line2d_9">
    <path d="M 52.4 218.337187 
L 61.229146 218.409983 
L 62.70067 218.622471 
L 64.172194 219.067852 
L 66.134227 219.950564 
L 67.605751 220.58097 
L 68.586767 220.785375 
L 69.567784 220.656554 
L 70.058292 220.421279 
L 70.5488 220.047383 
L 71.039308 219.518029 
L 72.020324 217.939004 
L 73.00134 215.607699 
L 73.982356 212.498184 
L 74.963373 208.630678 
L 76.434897 201.546858 
L 77.906421 193.22778 
L 80.84947 174.724946 
L 83.30201 159.71245 
L 85.264043 149.154207 
L 86.735567 142.314128 
L 88.207091 136.404618 
L 89.678616 131.360276 
L 91.15014 127.08818 
L 92.621664 123.491048 
L 94.093189 120.479848 
L 95.564713 117.978955 
L 97.036237 115.926836 
L 98.507762 114.274495 
L 99.979286 112.983074 
L 101.45081 112.021402 
L 102.922334 111.363846 
L 104.393859 110.988612 
L 105.865383 110.876464 
L 107.336907 111.009817 
L 108.808432 111.372128 
L 110.279956 111.947488 
L 111.75148 112.720372 
L 113.713513 114.031713 
L 115.675545 115.630985 
L 118.128086 117.979831 
L 120.580626 120.649512 
L 124.014183 124.777406 
L 133.333837 136.300351 
L 135.786377 138.882702 
L 138.238918 141.169277 
L 141.672474 144.029456 
L 146.577555 148.126427 
L 149.520604 150.9155 
L 152.463653 154.035438 
L 155.897209 158.054225 
L 159.821274 163.008447 
L 176.008041 183.857407 
L 180.422614 188.948128 
L 184.346679 193.133413 
L 188.270744 196.982919 
L 192.194809 200.495268 
L 196.118874 203.678417 
L 200.042938 206.546543 
L 203.967003 209.117714 
L 207.891068 211.412187 
L 211.815133 213.45118 
L 215.739198 215.256006 
L 220.153771 217.032424 
L 224.568343 218.566341 
L 228.982916 219.878109 
L 233.887997 221.095454 
L 238.793078 222.082798 
L 244.188668 222.931043 
L 249.584257 223.558452 
L 255.470354 224.022612 
L 261.846959 224.302072 
L 268.714073 224.384935 
L 276.562202 224.256429 
L 285.881856 223.87311 
L 298.144559 223.13194 
L 338.856731 220.506658 
L 354.55299 219.807162 
L 371.720774 219.269056 
L 391.831606 218.8694 
L 405.075325 218.70143 
L 405.075325 218.70143 
" clip-path="url(#p7dabf20edf)" style="fill: none; stroke: #000000; stroke-width: 3; stroke-linecap: square"/>
   </g>
   <g id="line2d_10">
    <path d="M 52.4 275.939798 
L 405.075325 275.939798 
" clip-path="url(#p7dabf20edf)" style="fill: none; stroke-dasharray: 5.55,2.4; stroke-dashoffset: 0; stroke: #808080; stroke-opacity: 0.7; stroke-width: 1.5"/>
   </g>
   <g id="line2d_11">
    <path d="M 52.4 131.456036 
L 405.075325 131.456036 
" clip-path="url(#p7dabf20edf)" style="fill: none; stroke-dasharray: 5.55,2.4; stroke-dashoffset: 0; stroke: #808080; stroke-opacity: 0.7; stroke-width: 1.5"/>
   </g>
   <g id="patch_4">
    <path d="M 52.4 300.020426 
L 52.4 71.254468 
" style="fill: none; stroke: #000000; stroke-width: 2; stroke-linejoin: miter; stroke-linecap: square"/>
   </g>
   <g id="patch_5">
    <path d="M 52.4 300.020426 
L 405.075325 300.020426 
" style="fill: none; stroke: #000000; stroke-width: 2; stroke-linejoin: miter; stroke-linecap: square"/>
   </g>
   <g id="text_11">
    <g id="patch_6">
     <path d="M 194.678287 138.940801 
L 262.797037 138.940801 
L 262.797037 123.97127 
L 194.678287 123.97127 
z
" style="fill: #ffffff"/>
    </g>
    <!-- 10 mmol/L -->
    <g style="fill: #808080" transform="translate(195.728287 135.223614) scale(0.15 -0.15)">
     <use xlink:href="#Calibri-31"/>
     <use xlink:href="#Calibri-30" transform="translate(50.683594 0)"/>
     <use xlink:href="#Calibri-20" transform="translate(101.367188 0)"/>
     <use xlink:href="#Calibri-6d" transform="translate(123.974609 0)"/>
     <use xlink:href="#Calibri-6d" transform="translate(203.857422 0)"/>
     <use xlink:href="#Calibri-6f" transform="translate(283.740234 0)"/>
     <use xlink:href="#Calibri-6c" transform="translate(336.474609 0)"/>
     <use xlink:href="#Calibri-2f" transform="translate(359.423828 0)"/>
     <use xlink:href="#Calibri-4c" transform="translate(398.046875 0)"/>
    </g>
   </g>
   <g id="text_12">
    <g id="patch_7">
     <path d="M 198.47985 283.424564 
L 258.995475 283.424564 
L 258.995475 268.455033 
L 198.47985 268.455033 
z
" style="fill: #ffffff"/>
    </g>
    <!-- 4 mmol/L -->
    <g style="fill: #808080" transform="translate(199.52985 279.707377) scale(0.15 -0.15)">
     <use xlink:href="#Calibri-34"/>
     <use xlink:href="#Calibri-20" transform="translate(50.683594 0)"/>
     <use xlink:href="#Calibri-6d" transform="translate(73.291016 0)"/>
     <use xlink:href="#Calibri-6d" transform="translate(153.173828 0)"/>
     <use xlink:href="#Calibri-6f" transform="translate(233.056641 0)"/>
     <use xlink:href="#Calibri-6c" transform="translate(285.791016 0)"/>
     <use xlink:href="#Calibri-2f" transform="translate(308.740234 0)"/>
     <use xlink:href="#Calibri-4c" transform="translate(347.363281 0)"/>
    </g>
   </g>
   <g id="text_13">
    <!-- Target glucose range -->
    <g style="fill: #808080" transform="translate(165.314615 255.623234) scale(0.15 -0.15)">
     <defs>
      <path id="Calibri-61" d="M 2597 75 
Q 2597 38 2572 19 
Q 2547 0 2503 -9 
Q 2459 -19 2375 -19 
Q 2294 -19 2245 -9 
Q 2197 0 2175 19 
Q 2153 38 2153 75 
L 2153 356 
Q 1969 159 1742 50 
Q 1516 -59 1263 -59 
Q 1041 -59 861 -1 
Q 681 56 554 165 
Q 428 275 358 434 
Q 288 594 288 797 
Q 288 1034 384 1209 
Q 481 1384 662 1500 
Q 844 1616 1106 1673 
Q 1369 1731 1697 1731 
L 2084 1731 
L 2084 1950 
Q 2084 2113 2050 2238 
Q 2016 2363 1939 2445 
Q 1863 2528 1741 2570 
Q 1619 2613 1441 2613 
Q 1250 2613 1098 2567 
Q 947 2522 833 2467 
Q 719 2413 642 2367 
Q 566 2322 528 2322 
Q 503 2322 484 2334 
Q 466 2347 452 2372 
Q 438 2397 431 2436 
Q 425 2475 425 2522 
Q 425 2600 436 2645 
Q 447 2691 489 2731 
Q 531 2772 634 2826 
Q 738 2881 872 2926 
Q 1006 2972 1165 3001 
Q 1325 3031 1488 3031 
Q 1791 3031 2003 2962 
Q 2216 2894 2347 2761 
Q 2478 2628 2537 2431 
Q 2597 2234 2597 1972 
L 2597 75 
z
M 2084 1359 
L 1644 1359 
Q 1431 1359 1275 1323 
Q 1119 1288 1016 1217 
Q 913 1147 864 1048 
Q 816 950 816 822 
Q 816 603 955 473 
Q 1094 344 1344 344 
Q 1547 344 1720 447 
Q 1894 550 2084 763 
L 2084 1359 
z
" transform="scale(0.015625)"/>
      <path id="Calibri-72" d="M 2122 2706 
Q 2122 2638 2119 2591 
Q 2116 2544 2106 2517 
Q 2097 2491 2083 2477 
Q 2069 2463 2044 2463 
Q 2019 2463 1983 2477 
Q 1947 2491 1901 2505 
Q 1856 2519 1800 2531 
Q 1744 2544 1678 2544 
Q 1600 2544 1525 2512 
Q 1450 2481 1367 2409 
Q 1284 2338 1193 2219 
Q 1103 2100 994 1928 
L 994 78 
Q 994 53 981 36 
Q 969 19 941 6 
Q 913 -6 863 -12 
Q 813 -19 734 -19 
Q 659 -19 609 -12 
Q 559 -6 529 6 
Q 500 19 489 36 
Q 478 53 478 78 
L 478 2891 
Q 478 2916 487 2933 
Q 497 2950 525 2964 
Q 553 2978 597 2983 
Q 641 2988 713 2988 
Q 781 2988 826 2983 
Q 872 2978 897 2964 
Q 922 2950 933 2933 
Q 944 2916 944 2891 
L 944 2481 
Q 1059 2650 1161 2756 
Q 1263 2863 1353 2923 
Q 1444 2984 1533 3007 
Q 1622 3031 1713 3031 
Q 1753 3031 1804 3026 
Q 1856 3022 1912 3009 
Q 1969 2997 2014 2981 
Q 2059 2966 2078 2950 
Q 2097 2934 2103 2920 
Q 2109 2906 2114 2884 
Q 2119 2863 2120 2820 
Q 2122 2778 2122 2706 
z
" transform="scale(0.015625)"/>
      <path id="Calibri-67" d="M 2828 2763 
Q 2828 2653 2798 2604 
Q 2769 2556 2722 2556 
L 2319 2556 
Q 2428 2444 2472 2308 
Q 2516 2172 2516 2025 
Q 2516 1781 2437 1593 
Q 2359 1406 2214 1276 
Q 2069 1147 1869 1078 
Q 1669 1009 1425 1009 
Q 1253 1009 1098 1054 
Q 944 1100 859 1169 
Q 803 1113 767 1041 
Q 731 969 731 875 
Q 731 766 832 694 
Q 934 622 1103 616 
L 1838 584 
Q 2047 578 2222 526 
Q 2397 475 2525 379 
Q 2653 284 2725 145 
Q 2797 6 2797 -178 
Q 2797 -372 2715 -547 
Q 2634 -722 2467 -855 
Q 2300 -988 2040 -1064 
Q 1781 -1141 1428 -1141 
Q 1088 -1141 848 -1083 
Q 609 -1025 456 -925 
Q 303 -825 234 -686 
Q 166 -547 166 -384 
Q 166 -281 191 -184 
Q 216 -88 267 0 
Q 319 88 395 167 
Q 472 247 572 325 
Q 419 403 345 522 
Q 272 641 272 778 
Q 272 969 350 1119 
Q 428 1269 544 1388 
Q 447 1503 390 1648 
Q 334 1794 334 2000 
Q 334 2241 415 2431 
Q 497 2622 640 2753 
Q 784 2884 986 2954 
Q 1188 3025 1425 3025 
Q 1553 3025 1664 3011 
Q 1775 2997 1872 2972 
L 2722 2972 
Q 2775 2972 2801 2920 
Q 2828 2869 2828 2763 
z
M 2022 2022 
Q 2022 2309 1864 2470 
Q 1706 2631 1416 2631 
Q 1266 2631 1155 2581 
Q 1044 2531 970 2443 
Q 897 2356 861 2242 
Q 825 2128 825 2003 
Q 825 1725 983 1565 
Q 1141 1406 1425 1406 
Q 1578 1406 1690 1454 
Q 1803 1503 1876 1589 
Q 1950 1675 1986 1787 
Q 2022 1900 2022 2022 
z
M 2281 -206 
Q 2281 -25 2132 73 
Q 1984 172 1731 178 
L 1003 203 
Q 903 125 839 54 
Q 775 -16 737 -80 
Q 700 -144 686 -206 
Q 672 -269 672 -334 
Q 672 -538 878 -642 
Q 1084 -747 1453 -747 
Q 1688 -747 1845 -701 
Q 2003 -656 2100 -581 
Q 2197 -506 2239 -409 
Q 2281 -313 2281 -206 
z
" transform="scale(0.015625)"/>
      <path id="Calibri-74" d="M 1941 284 
Q 1941 194 1928 141 
Q 1916 88 1891 63 
Q 1866 38 1816 16 
Q 1766 -6 1702 -20 
Q 1638 -34 1566 -43 
Q 1494 -53 1422 -53 
Q 1203 -53 1047 5 
Q 891 63 791 180 
Q 691 297 645 476 
Q 600 656 600 900 
L 600 2544 
L 206 2544 
Q 159 2544 131 2594 
Q 103 2644 103 2756 
Q 103 2816 111 2856 
Q 119 2897 131 2923 
Q 144 2950 164 2961 
Q 184 2972 209 2972 
L 600 2972 
L 600 3641 
Q 600 3663 611 3681 
Q 622 3700 651 3714 
Q 681 3728 731 3734 
Q 781 3741 856 3741 
Q 934 3741 984 3734 
Q 1034 3728 1062 3714 
Q 1091 3700 1103 3681 
Q 1116 3663 1116 3641 
L 1116 2972 
L 1838 2972 
Q 1863 2972 1881 2961 
Q 1900 2950 1914 2923 
Q 1928 2897 1934 2856 
Q 1941 2816 1941 2756 
Q 1941 2644 1912 2594 
Q 1884 2544 1838 2544 
L 1116 2544 
L 1116 975 
Q 1116 684 1202 536 
Q 1288 388 1509 388 
Q 1581 388 1637 402 
Q 1694 416 1737 431 
Q 1781 447 1812 461 
Q 1844 475 1869 475 
Q 1884 475 1898 467 
Q 1913 459 1920 437 
Q 1928 416 1934 378 
Q 1941 341 1941 284 
z
" transform="scale(0.015625)"/>
     </defs>
     <use xlink:href="#Calibri-54"/>
     <use xlink:href="#Calibri-61" transform="translate(48.730469 0)"/>
     <use xlink:href="#Calibri-72" transform="translate(96.630859 0)"/>
     <use xlink:href="#Calibri-67" transform="translate(131.494141 0)"/>
     <use xlink:href="#Calibri-65" transform="translate(178.564453 0)"/>
     <use xlink:href="#Calibri-74" transform="translate(228.320312 0)"/>
     <use xlink:href="#Calibri-20" transform="translate(261.816406 0)"/>
     <use xlink:href="#Calibri-67" transform="translate(284.423828 0)"/>
     <use xlink:href="#Calibri-6c" transform="translate(331.494141 0)"/>
     <use xlink:href="#Calibri-75" transform="translate(354.443359 0)"/>
     <use xlink:href="#Calibri-63" transform="translate(406.982422 0)"/>
     <use xlink:href="#Calibri-6f" transform="translate(449.267578 0)"/>
     <use xlink:href="#Calibri-73" transform="translate(502.001953 0)"/>
     <use xlink:href="#Calibri-65" transform="translate(541.113281 0)"/>
     <use xlink:href="#Calibri-20" transform="translate(590.869141 0)"/>
     <use xlink:href="#Calibri-72" transform="translate(613.476562 0)"/>
     <use xlink:href="#Calibri-61" transform="translate(648.339844 0)"/>
     <use xlink:href="#Calibri-6e" transform="translate(696.240234 0)"/>
     <use xlink:href="#Calibri-67" transform="translate(748.779297 0)"/>
     <use xlink:href="#Calibri-65" transform="translate(795.849609 0)"/>
    </g>
   </g>
   <g id="text_14">
    <!-- a -->
    <g transform="translate(10.078961 56.095233) scale(0.21 -0.21)">
     <defs>
      <path id="Calibri-Bold-61" d="M 2769 97 
Q 2769 53 2737 28 
Q 2706 3 2639 -8 
Q 2572 -19 2441 -19 
Q 2300 -19 2236 -8 
Q 2172 3 2145 28 
Q 2119 53 2119 97 
L 2119 319 
Q 1947 134 1726 31 
Q 1506 -72 1238 -72 
Q 1016 -72 830 -14 
Q 644 44 508 158 
Q 372 272 297 440 
Q 222 609 222 834 
Q 222 1078 317 1258 
Q 413 1438 602 1555 
Q 791 1672 1072 1728 
Q 1353 1784 1725 1784 
L 1997 1784 
L 1997 1953 
Q 1997 2084 1970 2182 
Q 1944 2281 1883 2347 
Q 1822 2413 1720 2444 
Q 1619 2475 1469 2475 
Q 1272 2475 1117 2431 
Q 963 2388 844 2334 
Q 725 2281 645 2237 
Q 566 2194 516 2194 
Q 481 2194 454 2216 
Q 428 2238 411 2278 
Q 394 2319 384 2378 
Q 375 2438 375 2509 
Q 375 2606 390 2662 
Q 406 2719 450 2764 
Q 494 2809 603 2864 
Q 713 2919 859 2966 
Q 1006 3013 1179 3042 
Q 1353 3072 1538 3072 
Q 1866 3072 2098 3008 
Q 2331 2944 2481 2811 
Q 2631 2678 2700 2468 
Q 2769 2259 2769 1972 
L 2769 97 
z
M 1997 1291 
L 1697 1291 
Q 1506 1291 1372 1262 
Q 1238 1234 1153 1178 
Q 1069 1122 1030 1042 
Q 991 963 991 859 
Q 991 684 1102 584 
Q 1213 484 1409 484 
Q 1575 484 1714 568 
Q 1853 653 1997 816 
L 1997 1291 
z
" transform="scale(0.015625)"/>
     </defs>
     <use xlink:href="#Calibri-Bold-61"/>
    </g>
   </g>
   <g id="axes_2">
    <g id="patch_8">
     <path d="M 278.978645 122.498043 
L 397.479411 122.498043 
Q 403.884858 122.498043 403.884858 116.092596 
L 403.884858 52.038128 
Q 403.884858 45.632681 397.479411 45.632681 
L 278.978645 45.632681 
Q 272.573198 45.632681 272.573198 52.038128 
L 272.573198 116.092596 
Q 272.573198 122.498043 278.978645 122.498043 
z
" clip-path="url(#pc4f41810b1)" style="fill: #ececec; opacity: 0.85"/>
    </g>
    <g id="patch_9">
     <path d="M 319.030369 62.914382 
C 316.193975 65.336892 313.802474 68.236401 311.963911 71.481916 
C 310.125347 74.727432 308.867833 78.269336 308.248175 81.947611 
C 307.628519 85.625887 307.656191 89.384292 308.329946 93.053044 
C 309.0037 96.721796 310.313236 100.2448 312.199392 103.46289 
C 314.085548 106.680982 316.519485 109.544959 319.391245 111.925437 
C 322.263005 114.305916 325.528676 116.166499 329.040734 117.423135 
C 332.552793 118.679771 336.257538 119.313244 339.987599 119.294934 
C 343.71766 119.276625 347.416008 118.606812 350.915561 117.315759 
C 354.415114 116.024706 357.662369 114.13215 360.51062 111.723592 
C 363.358871 109.315035 365.764575 106.427298 367.619046 103.190846 
C 369.473516 99.954393 370.748402 96.418711 371.386108 92.743522 
C 372.023815 89.068332 372.014591 85.309837 371.358851 81.637822 
C 370.703114 77.965806 369.410883 74.436411 367.540547 71.209101 
C 365.67021 67.981792 363.250365 65.105906 360.390324 62.711359 
C 357.530284 60.316811 354.273772 58.440215 350.767923 57.166357 
C 347.262075 55.892498 343.560494 55.240851 339.830388 55.240851 
L 339.83039 87.268085 
z
" style="fill: #b5e6cc; stroke: #ffffff; stroke-width: 2; stroke-linejoin: miter"/>
    </g>
    <g id="patch_10">
     <path d="M 339.83039 55.240851 
C 336.04748 55.240851 332.294321 55.91108 328.745227 57.220407 
C 325.196134 58.529735 321.906917 60.457579 319.030369 62.914382 
L 339.83039 87.268085 
z
" style="fill: #ffb347; stroke: #ffffff; stroke-width: 2; stroke-linejoin: miter"/>
    </g>
    <g id="matplotlib.axis_3"/>
    <g id="matplotlib.axis_4"/>
    <g id="text_15">
     <!-- 88.8% -->
     <g transform="translate(321.539857 105.010155) scale(0.18 -0.18)">
      <defs>
       <path id="Calibri-38" d="M 2981 1038 
Q 2981 775 2887 570 
Q 2794 366 2617 225 
Q 2441 84 2181 12 
Q 1922 -59 1588 -59 
Q 1275 -59 1028 6 
Q 781 72 609 200 
Q 438 328 347 515 
Q 256 703 256 944 
Q 256 1134 318 1293 
Q 381 1453 498 1587 
Q 616 1722 787 1839 
Q 959 1956 1175 2063 
Q 988 2159 844 2267 
Q 700 2375 600 2501 
Q 500 2628 448 2772 
Q 397 2916 397 3084 
Q 397 3297 473 3483 
Q 550 3669 704 3806 
Q 859 3944 1098 4023 
Q 1338 4103 1656 4103 
Q 1963 4103 2186 4029 
Q 2409 3956 2554 3829 
Q 2700 3703 2769 3531 
Q 2838 3359 2838 3163 
Q 2838 3003 2786 2856 
Q 2734 2709 2634 2578 
Q 2534 2447 2389 2333 
Q 2244 2219 2056 2119 
Q 2278 2009 2451 1893 
Q 2625 1778 2742 1645 
Q 2859 1513 2920 1364 
Q 2981 1216 2981 1038 
z
M 2306 3113 
Q 2306 3244 2261 3350 
Q 2216 3456 2128 3531 
Q 2041 3606 1911 3645 
Q 1781 3684 1616 3684 
Q 1278 3684 1104 3531 
Q 931 3378 931 3113 
Q 931 2991 973 2886 
Q 1016 2781 1105 2687 
Q 1194 2594 1330 2505 
Q 1466 2416 1653 2319 
Q 1969 2481 2137 2678 
Q 2306 2875 2306 3113 
z
M 2438 981 
Q 2438 1125 2384 1242 
Q 2331 1359 2223 1461 
Q 2116 1563 1955 1658 
Q 1794 1753 1581 1856 
Q 1384 1759 1236 1662 
Q 1088 1566 992 1462 
Q 897 1359 848 1245 
Q 800 1131 800 994 
Q 800 691 1008 525 
Q 1216 359 1628 359 
Q 2028 359 2233 526 
Q 2438 694 2438 981 
z
" transform="scale(0.015625)"/>
       <path id="Calibri-2e" d="M 1144 341 
Q 1144 119 1070 45 
Q 997 -28 803 -28 
Q 616 -28 544 44 
Q 472 116 472 331 
Q 472 553 545 626 
Q 619 700 813 700 
Q 1000 700 1072 628 
Q 1144 556 1144 341 
z
" transform="scale(0.015625)"/>
       <path id="Calibri-25" d="M 1964 3070 
Q 1964 2829 1910 2632 
Q 1857 2436 1748 2296 
Q 1639 2157 1471 2079 
Q 1304 2001 1079 2001 
Q 851 2001 688 2073 
Q 526 2145 423 2281 
Q 320 2417 271 2612 
Q 223 2807 223 3057 
Q 223 3286 274 3479 
Q 326 3673 432 3813 
Q 539 3954 706 4035 
Q 873 4117 1101 4117 
Q 1348 4117 1515 4032 
Q 1682 3948 1782 3806 
Q 1882 3664 1923 3473 
Q 1964 3282 1964 3070 
z
M 1526 3054 
Q 1526 3229 1501 3365 
Q 1476 3501 1424 3591 
Q 1373 3682 1288 3727 
Q 1204 3773 1089 3773 
Q 979 3773 898 3729 
Q 817 3686 765 3598 
Q 714 3511 689 3381 
Q 664 3251 664 3076 
Q 664 2864 693 2721 
Q 723 2579 777 2496 
Q 832 2414 915 2381 
Q 998 2348 1104 2348 
Q 1229 2348 1309 2395 
Q 1389 2442 1437 2534 
Q 1486 2626 1506 2756 
Q 1526 2886 1526 3054 
z
M 4348 1022 
Q 4348 781 4294 584 
Q 4241 388 4132 248 
Q 4023 109 3855 31 
Q 3688 -47 3463 -47 
Q 3235 -47 3072 25 
Q 2910 97 2807 233 
Q 2704 369 2655 564 
Q 2607 759 2607 1009 
Q 2607 1238 2658 1431 
Q 2710 1625 2816 1765 
Q 2923 1906 3090 1987 
Q 3257 2069 3485 2069 
Q 3732 2069 3899 1984 
Q 4066 1900 4166 1758 
Q 4266 1616 4307 1425 
Q 4348 1234 4348 1022 
z
M 3910 1006 
Q 3910 1181 3885 1317 
Q 3860 1453 3808 1543 
Q 3757 1634 3672 1679 
Q 3588 1725 3473 1725 
Q 3363 1725 3282 1681 
Q 3201 1638 3149 1550 
Q 3098 1463 3073 1333 
Q 3048 1203 3048 1028 
Q 3048 816 3077 673 
Q 3107 531 3161 448 
Q 3216 366 3299 333 
Q 3382 300 3488 300 
Q 3613 300 3693 347 
Q 3773 394 3821 486 
Q 3870 578 3890 708 
Q 3910 838 3910 1006 
z
M 1078 -25 
Q 1062 -53 1040 -67 
Q 1018 -81 987 -92 
Q 956 -103 912 -108 
Q 868 -113 806 -113 
Q 737 -113 695 -100 
Q 653 -88 635 -67 
Q 618 -47 623 -17 
Q 628 13 653 50 
L 3465 4078 
Q 3481 4103 3503 4120 
Q 3525 4138 3557 4147 
Q 3590 4156 3632 4161 
Q 3675 4166 3740 4166 
Q 3806 4166 3848 4155 
Q 3890 4144 3909 4122 
Q 3928 4100 3923 4069 
Q 3918 4038 3893 4003 
L 1078 -25 
z
" transform="scale(0.015625)"/>
      </defs>
      <use xlink:href="#Calibri-38"/>
      <use xlink:href="#Calibri-38" transform="translate(50.683594 0)"/>
      <use xlink:href="#Calibri-2e" transform="translate(101.367188 0)"/>
      <use xlink:href="#Calibri-38" transform="translate(126.611328 0)"/>
      <use xlink:href="#Calibri-25" transform="translate(177.294922 0)"/>
     </g>
    </g>
    <g id="text_16">
     <!-- 11.2% -->
     <g transform="translate(282.853274 58.736734) scale(0.18 -0.18)">
      <use xlink:href="#Calibri-31"/>
      <use xlink:href="#Calibri-31" transform="translate(50.683594 0)"/>
      <use xlink:href="#Calibri-2e" transform="translate(101.367188 0)"/>
      <use xlink:href="#Calibri-32" transform="translate(126.611328 0)"/>
      <use xlink:href="#Calibri-25" transform="translate(177.294922 0)"/>
     </g>
    </g>
    <g id="text_17">
     <!-- TIR -->
     <g transform="translate(378.26307 91.035663) scale(0.15 -0.15)">
      <defs>
       <path id="Calibri-49" d="M 1075 81 
Q 1075 56 1062 37 
Q 1050 19 1019 8 
Q 988 -3 936 -11 
Q 884 -19 806 -19 
Q 731 -19 678 -11 
Q 625 -3 594 8 
Q 563 19 550 37 
Q 538 56 538 81 
L 538 3963 
Q 538 3988 552 4006 
Q 566 4025 598 4036 
Q 631 4047 682 4055 
Q 734 4063 806 4063 
Q 884 4063 936 4055 
Q 988 4047 1019 4036 
Q 1050 4025 1062 4006 
Q 1075 3988 1075 3963 
L 1075 81 
z
" transform="scale(0.015625)"/>
       <path id="Calibri-52" d="M 3234 81 
Q 3234 56 3225 37 
Q 3216 19 3184 6 
Q 3153 -6 3097 -12 
Q 3041 -19 2947 -19 
Q 2866 -19 2814 -12 
Q 2763 -6 2731 8 
Q 2700 22 2683 47 
Q 2666 72 2653 109 
L 2281 1063 
Q 2216 1225 2145 1361 
Q 2075 1497 1978 1595 
Q 1881 1694 1750 1748 
Q 1619 1803 1434 1803 
L 1075 1803 
L 1075 81 
Q 1075 56 1061 37 
Q 1047 19 1017 8 
Q 988 -3 936 -11 
Q 884 -19 806 -19 
Q 728 -19 676 -11 
Q 625 -3 594 8 
Q 563 19 550 37 
Q 538 56 538 81 
L 538 3825 
Q 538 3947 602 3995 
Q 666 4044 738 4044 
L 1597 4044 
Q 1750 4044 1851 4036 
Q 1953 4028 2034 4019 
Q 2269 3978 2448 3890 
Q 2628 3803 2750 3668 
Q 2872 3534 2933 3361 
Q 2994 3188 2994 2978 
Q 2994 2775 2939 2614 
Q 2884 2453 2781 2329 
Q 2678 2206 2534 2115 
Q 2391 2025 2213 1963 
Q 2313 1919 2394 1851 
Q 2475 1784 2545 1690 
Q 2616 1597 2678 1475 
Q 2741 1353 2803 1200 
L 3166 309 
Q 3209 197 3221 151 
Q 3234 106 3234 81 
z
M 2425 2922 
Q 2425 3159 2319 3323 
Q 2213 3488 1963 3559 
Q 1884 3581 1786 3590 
Q 1688 3600 1528 3600 
L 1075 3600 
L 1075 2238 
L 1600 2238 
Q 1813 2238 1967 2289 
Q 2122 2341 2225 2433 
Q 2328 2525 2376 2650 
Q 2425 2775 2425 2922 
z
" transform="scale(0.015625)"/>
      </defs>
      <use xlink:href="#Calibri-54"/>
      <use xlink:href="#Calibri-49" transform="translate(48.730469 0)"/>
      <use xlink:href="#Calibri-52" transform="translate(73.925781 0)"/>
     </g>
    </g>
    <g id="text_18">
     <!-- TAR -->
     <g transform="translate(277.264115 91.035663) scale(0.15 -0.15)">
      <defs>
       <path id="Calibri-41" d="M 3566 191 
Q 3591 122 3592 80 
Q 3594 38 3569 16 
Q 3544 -6 3486 -12 
Q 3428 -19 3331 -19 
Q 3234 -19 3176 -14 
Q 3119 -9 3089 2 
Q 3059 13 3045 31 
Q 3031 50 3019 78 
L 2672 1063 
L 991 1063 
L 659 91 
Q 650 63 634 42 
Q 619 22 589 8 
Q 559 -6 504 -12 
Q 450 -19 363 -19 
Q 272 -19 214 -11 
Q 156 -3 132 19 
Q 109 41 111 83 
Q 113 125 138 194 
L 1494 3950 
Q 1506 3984 1526 4006 
Q 1547 4028 1586 4040 
Q 1625 4053 1686 4058 
Q 1747 4063 1841 4063 
Q 1941 4063 2006 4058 
Q 2072 4053 2112 4040 
Q 2153 4028 2175 4004 
Q 2197 3981 2209 3947 
L 3566 191 
z
M 1825 3506 
L 1822 3506 
L 1125 1491 
L 2531 1491 
L 1825 3506 
z
" transform="scale(0.015625)"/>
      </defs>
      <use xlink:href="#Calibri-54"/>
      <use xlink:href="#Calibri-41" transform="translate(48.730469 0)"/>
      <use xlink:href="#Calibri-52" transform="translate(106.591797 0)"/>
     </g>
    </g>
    <g id="line2d_12">
     <path d="M 357.246309 79.146909 
L 376.981981 87.268085 
" clip-path="url(#pc4f41810b1)" style="fill: none; stroke: #404040; stroke-width: 1.2; stroke-linecap: square"/>
    </g>
    <g id="line2d_13">
     <path d="M 332.070769 66.234714 
L 302.678798 87.268085 
" clip-path="url(#pc4f41810b1)" style="fill: none; stroke: #404040; stroke-width: 1.2; stroke-linecap: square"/>
    </g>
    <g id="line2d_14">
     <defs>
      <path id="mb483740d70" d="M 0 2.5 
C 0.663008 2.5 1.29895 2.236584 1.767767 1.767767 
C 2.236584 1.29895 2.5 0.663008 2.5 0 
C 2.5 -0.663008 2.236584 -1.29895 1.767767 -1.767767 
C 1.29895 -2.236584 0.663008 -2.5 0 -2.5 
C -0.663008 -2.5 -1.29895 -2.236584 -1.767767 -1.767767 
C -2.236584 -1.29895 -2.5 -0.663008 -2.5 0 
C -2.5 0.663008 -2.236584 1.29895 -1.767767 1.767767 
C -1.29895 2.236584 -0.663008 2.5 0 2.5 
z
" style="stroke: #404040"/>
     </defs>
     <g clip-path="url(#pc4f41810b1)">
      <use xlink:href="#mb483740d70" x="357.246309" y="79.146909" style="fill: #404040; stroke: #404040"/>
     </g>
    </g>
    <g id="line2d_15">
     <g clip-path="url(#pc4f41810b1)">
      <use xlink:href="#mb483740d70" x="332.070769" y="66.234714" style="fill: #404040; stroke: #404040"/>
     </g>
    </g>
   </g>
  </g>
  <g id="axes_3">
   <g id="patch_11">
    <path d="M 52.4 474.454468 
L 405.075325 474.454468 
L 405.075325 360.071489 
L 52.4 360.071489 
z
" style="fill: #ffffff"/>
   </g>
   <g id="matplotlib.axis_5">
    <g id="xtick_5">
     <g id="line2d_16">
      <g>
       <use xlink:href="#m4bdae540df" x="52.4" y="474.454468" style="stroke: #000000; stroke-width: 2"/>
      </g>
     </g>
     <g id="text_19">
      <!-- 0 -->
      <g transform="translate(47.838125 493.697281) scale(0.18 -0.18)">
       <use xlink:href="#Calibri-30"/>
      </g>
     </g>
    </g>
    <g id="xtick_6">
     <g id="line2d_17">
      <g>
       <use xlink:href="#m4bdae540df" x="150.50162" y="474.454468" style="stroke: #000000; stroke-width: 2"/>
      </g>
     </g>
     <g id="text_20">
      <!-- 200 -->
      <g transform="translate(136.815995 493.697281) scale(0.18 -0.18)">
       <use xlink:href="#Calibri-32"/>
       <use xlink:href="#Calibri-30" transform="translate(50.683594 0)"/>
       <use xlink:href="#Calibri-30" transform="translate(101.367188 0)"/>
      </g>
     </g>
    </g>
    <g id="xtick_7">
     <g id="line2d_18">
      <g>
       <use xlink:href="#m4bdae540df" x="248.60324" y="474.454468" style="stroke: #000000; stroke-width: 2"/>
      </g>
     </g>
     <g id="text_21">
      <!-- 400 -->
      <g transform="translate(234.917615 493.697281) scale(0.18 -0.18)">
       <use xlink:href="#Calibri-34"/>
       <use xlink:href="#Calibri-30" transform="translate(50.683594 0)"/>
       <use xlink:href="#Calibri-30" transform="translate(101.367188 0)"/>
      </g>
     </g>
    </g>
    <g id="xtick_8">
     <g id="line2d_19">
      <g>
       <use xlink:href="#m4bdae540df" x="346.704861" y="474.454468" style="stroke: #000000; stroke-width: 2"/>
      </g>
     </g>
     <g id="text_22">
      <!-- 600 -->
      <g transform="translate(333.019236 493.697281) scale(0.18 -0.18)">
       <use xlink:href="#Calibri-36"/>
       <use xlink:href="#Calibri-30" transform="translate(50.683594 0)"/>
       <use xlink:href="#Calibri-30" transform="translate(101.367188 0)"/>
      </g>
     </g>
    </g>
    <g id="text_23">
     <!-- Time (min) -->
     <g transform="translate(189.139069 513.199781) scale(0.18 -0.18)">
      <use xlink:href="#Calibri-54"/>
      <use xlink:href="#Calibri-69" transform="translate(48.730469 0)"/>
      <use xlink:href="#Calibri-6d" transform="translate(71.679688 0)"/>
      <use xlink:href="#Calibri-65" transform="translate(151.5625 0)"/>
      <use xlink:href="#Calibri-20" transform="translate(201.318359 0)"/>
      <use xlink:href="#Calibri-28" transform="translate(223.925781 0)"/>
      <use xlink:href="#Calibri-6d" transform="translate(254.248047 0)"/>
      <use xlink:href="#Calibri-69" transform="translate(334.130859 0)"/>
      <use xlink:href="#Calibri-6e" transform="translate(357.080078 0)"/>
      <use xlink:href="#Calibri-29" transform="translate(409.619141 0)"/>
     </g>
    </g>
   </g>
   <g id="matplotlib.axis_6">
    <g id="ytick_5">
     <g id="line2d_20">
      <g>
       <use xlink:href="#m8ebe4e7890" x="52.4" y="469.757395" style="stroke: #000000; stroke-width: 2"/>
      </g>
     </g>
     <g id="text_24">
      <!-- 2 -->
      <g style="fill: #2596be" transform="translate(36.27625 475.878801) scale(0.18 -0.18)">
       <use xlink:href="#Calibri-32"/>
      </g>
     </g>
    </g>
    <g id="ytick_6">
     <g id="line2d_21">
      <g>
       <use xlink:href="#m8ebe4e7890" x="52.4" y="419.427223" style="stroke: #000000; stroke-width: 2"/>
      </g>
     </g>
     <g id="text_25">
      <!-- 4 -->
      <g style="fill: #2596be" transform="translate(36.27625 425.548629) scale(0.18 -0.18)">
       <use xlink:href="#Calibri-34"/>
      </g>
     </g>
    </g>
    <g id="ytick_7">
     <g id="line2d_22">
      <g>
       <use xlink:href="#m8ebe4e7890" x="52.4" y="369.097051" style="stroke: #000000; stroke-width: 2"/>
      </g>
     </g>
     <g id="text_26">
      <!-- 6 -->
      <g style="fill: #2596be" transform="translate(36.27625 375.218457) scale(0.18 -0.18)">
       <use xlink:href="#Calibri-36"/>
      </g>
     </g>
    </g>
    <g id="text_27">
     <!-- IOB (U) -->
     <g style="fill: #2596be" transform="translate(29.075625 443.654072) rotate(-90) scale(0.18 -0.18)">
      <defs>
       <path id="Calibri-4f" d="M 3925 2069 
Q 3925 1578 3809 1184 
Q 3694 791 3464 514 
Q 3234 238 2887 89 
Q 2541 -59 2078 -59 
Q 1622 -59 1289 77 
Q 956 213 739 472 
Q 522 731 415 1115 
Q 309 1500 309 2000 
Q 309 2478 425 2868 
Q 541 3259 772 3532 
Q 1003 3806 1350 3954 
Q 1697 4103 2159 4103 
Q 2606 4103 2937 3968 
Q 3269 3834 3489 3576 
Q 3709 3319 3817 2939 
Q 3925 2559 3925 2069 
z
M 3359 2031 
Q 3359 2375 3298 2670 
Q 3238 2966 3095 3183 
Q 2953 3400 2715 3522 
Q 2478 3644 2128 3644 
Q 1778 3644 1540 3512 
Q 1303 3381 1154 3162 
Q 1006 2944 942 2651 
Q 878 2359 878 2038 
Q 878 1681 937 1381 
Q 997 1081 1137 864 
Q 1278 647 1514 526 
Q 1750 406 2106 406 
Q 2459 406 2700 537 
Q 2941 669 3087 892 
Q 3234 1116 3296 1409 
Q 3359 1703 3359 2031 
z
" transform="scale(0.015625)"/>
       <path id="Calibri-42" d="M 3203 1159 
Q 3203 969 3154 808 
Q 3106 647 3018 519 
Q 2931 391 2807 294 
Q 2684 197 2529 131 
Q 2375 66 2198 33 
Q 2022 0 1794 0 
L 738 0 
Q 666 0 602 48 
Q 538 97 538 219 
L 538 3825 
Q 538 3947 602 3995 
Q 666 4044 738 4044 
L 1656 4044 
Q 2019 4044 2250 3975 
Q 2481 3906 2636 3775 
Q 2791 3644 2869 3453 
Q 2947 3263 2947 3022 
Q 2947 2878 2912 2747 
Q 2878 2616 2811 2505 
Q 2744 2394 2642 2306 
Q 2541 2219 2409 2163 
Q 2575 2131 2719 2048 
Q 2863 1966 2970 1837 
Q 3078 1709 3140 1537 
Q 3203 1366 3203 1159 
z
M 2394 2969 
Q 2394 3116 2353 3234 
Q 2313 3353 2225 3436 
Q 2138 3519 1997 3562 
Q 1856 3606 1625 3606 
L 1069 3606 
L 1069 2297 
L 1681 2297 
Q 1891 2297 2019 2351 
Q 2147 2406 2231 2498 
Q 2316 2591 2355 2714 
Q 2394 2838 2394 2969 
z
M 2638 1128 
Q 2638 1309 2580 1446 
Q 2522 1584 2411 1678 
Q 2300 1772 2133 1820 
Q 1966 1869 1713 1869 
L 1069 1869 
L 1069 444 
L 1850 444 
Q 2034 444 2171 487 
Q 2309 531 2414 617 
Q 2519 703 2578 831 
Q 2638 959 2638 1128 
z
" transform="scale(0.015625)"/>
       <path id="Calibri-55" d="M 3578 1494 
Q 3578 1125 3470 836 
Q 3363 547 3163 347 
Q 2963 147 2675 44 
Q 2388 -59 2022 -59 
Q 1688 -59 1413 37 
Q 1138 134 941 323 
Q 744 513 637 797 
Q 531 1081 531 1453 
L 531 3963 
Q 531 3988 543 4006 
Q 556 4025 587 4036 
Q 619 4047 669 4055 
Q 719 4063 800 4063 
Q 875 4063 928 4055 
Q 981 4047 1011 4036 
Q 1041 4025 1053 4006 
Q 1066 3988 1066 3963 
L 1066 1519 
Q 1066 1238 1134 1028 
Q 1203 819 1333 680 
Q 1463 541 1645 470 
Q 1828 400 2056 400 
Q 2291 400 2473 469 
Q 2656 538 2782 675 
Q 2909 813 2976 1016 
Q 3044 1219 3044 1491 
L 3044 3963 
Q 3044 3988 3056 4006 
Q 3069 4025 3100 4036 
Q 3131 4047 3182 4055 
Q 3234 4063 3313 4063 
Q 3388 4063 3439 4055 
Q 3491 4047 3520 4036 
Q 3550 4025 3564 4006 
Q 3578 3988 3578 3963 
L 3578 1494 
z
" transform="scale(0.015625)"/>
      </defs>
      <use xlink:href="#Calibri-49"/>
      <use xlink:href="#Calibri-4f" transform="translate(25.195312 0)"/>
      <use xlink:href="#Calibri-42" transform="translate(91.40625 0)"/>
      <use xlink:href="#Calibri-20" transform="translate(145.800781 0)"/>
      <use xlink:href="#Calibri-28" transform="translate(168.408203 0)"/>
      <use xlink:href="#Calibri-55" transform="translate(198.730469 0)"/>
      <use xlink:href="#Calibri-29" transform="translate(262.890625 0)"/>
     </g>
    </g>
   </g>
   <g id="line2d_23">
    <path d="M 52.4 469.255242 
L 57.305081 469.255242 
L 57.795589 365.270716 
L 58.776605 365.718202 
L 60.24813 366.844207 
L 62.210162 368.730325 
L 64.172194 370.917314 
L 66.624735 373.970643 
L 69.567784 377.977401 
L 73.982356 384.425884 
L 89.678616 407.833966 
L 94.093189 413.886067 
L 98.507762 419.555911 
L 102.431826 424.250035 
L 106.355891 428.60975 
L 110.279956 432.635675 
L 114.204021 436.334981 
L 118.128086 439.719514 
L 122.05215 442.804324 
L 125.976215 445.606516 
L 129.90028 448.14436 
L 133.824345 450.436621 
L 138.238918 452.745197 
L 142.653491 454.792754 
L 147.068064 456.604284 
L 151.973145 458.368926 
L 156.878226 459.901353 
L 162.273815 461.351599 
L 168.159912 462.689915 
L 174.536517 463.895326 
L 181.403631 464.955716 
L 188.761252 465.867246 
L 197.09989 466.675074 
L 206.910052 467.387862 
L 218.191738 467.97209 
L 231.925965 468.446083 
L 249.093749 468.803116 
L 272.638137 469.053458 
L 309.916753 469.199875 
L 395.265163 469.252512 
L 405.075325 469.253317 
L 405.075325 469.253317 
" clip-path="url(#p1d9bbfe7ba)" style="fill: none; stroke: #2596be; stroke-width: 3; stroke-linecap: square"/>
   </g>
   <g id="patch_12">
    <path d="M 52.4 474.454468 
L 52.4 360.071489 
" style="fill: none; stroke: #000000; stroke-width: 2; stroke-linejoin: miter; stroke-linecap: square"/>
   </g>
   <g id="patch_13">
    <path d="M 52.4 474.454468 
L 405.075325 474.454468 
" style="fill: none; stroke: #000000; stroke-width: 2; stroke-linejoin: miter; stroke-linecap: square"/>
   </g>
  </g>
  <g id="axes_4">
   <g id="patch_14">
    <path d="M 514.404675 300.020426 
L 867.08 300.020426 
L 867.08 71.254468 
L 514.404675 71.254468 
z
" style="fill: #ffffff"/>
   </g>
   <g id="patch_15">
    <path d="M 514.404675 275.939798 
L 867.08 275.939798 
L 867.08 131.456036 
L 514.404675 131.456036 
z
" clip-path="url(#p85831687f0)" style="fill: #00b050; opacity: 0.15; stroke: #00b050; stroke-linejoin: miter"/>
   </g>
   <g id="matplotlib.axis_7">
    <g id="xtick_9">
     <g id="line2d_24">
      <g>
       <use xlink:href="#m4bdae540df" x="514.404675" y="300.020426" style="stroke: #000000; stroke-width: 2"/>
      </g>
     </g>
     <g id="text_28">
      <!-- 0 -->
      <g transform="translate(509.8428 319.263238) scale(0.18 -0.18)">
       <use xlink:href="#Calibri-30"/>
      </g>
     </g>
    </g>
    <g id="xtick_10">
     <g id="line2d_25">
      <g>
       <use xlink:href="#m4bdae540df" x="612.506296" y="300.020426" style="stroke: #000000; stroke-width: 2"/>
      </g>
     </g>
     <g id="text_29">
      <!-- 200 -->
      <g transform="translate(598.820671 319.263238) scale(0.18 -0.18)">
       <use xlink:href="#Calibri-32"/>
       <use xlink:href="#Calibri-30" transform="translate(50.683594 0)"/>
       <use xlink:href="#Calibri-30" transform="translate(101.367188 0)"/>
      </g>
     </g>
    </g>
    <g id="xtick_11">
     <g id="line2d_26">
      <g>
       <use xlink:href="#m4bdae540df" x="710.607916" y="300.020426" style="stroke: #000000; stroke-width: 2"/>
      </g>
     </g>
     <g id="text_30">
      <!-- 400 -->
      <g transform="translate(696.922291 319.263238) scale(0.18 -0.18)">
       <use xlink:href="#Calibri-34"/>
       <use xlink:href="#Calibri-30" transform="translate(50.683594 0)"/>
       <use xlink:href="#Calibri-30" transform="translate(101.367188 0)"/>
      </g>
     </g>
    </g>
    <g id="xtick_12">
     <g id="line2d_27">
      <g>
       <use xlink:href="#m4bdae540df" x="808.709536" y="300.020426" style="stroke: #000000; stroke-width: 2"/>
      </g>
     </g>
     <g id="text_31">
      <!-- 600 -->
      <g transform="translate(795.023911 319.263238) scale(0.18 -0.18)">
       <use xlink:href="#Calibri-36"/>
       <use xlink:href="#Calibri-30" transform="translate(50.683594 0)"/>
       <use xlink:href="#Calibri-30" transform="translate(101.367188 0)"/>
      </g>
     </g>
    </g>
    <g id="text_32">
     <!-- Time (min) -->
     <g transform="translate(651.143744 338.765738) scale(0.18 -0.18)">
      <use xlink:href="#Calibri-54"/>
      <use xlink:href="#Calibri-69" transform="translate(48.730469 0)"/>
      <use xlink:href="#Calibri-6d" transform="translate(71.679688 0)"/>
      <use xlink:href="#Calibri-65" transform="translate(151.5625 0)"/>
      <use xlink:href="#Calibri-20" transform="translate(201.318359 0)"/>
      <use xlink:href="#Calibri-28" transform="translate(223.925781 0)"/>
      <use xlink:href="#Calibri-6d" transform="translate(254.248047 0)"/>
      <use xlink:href="#Calibri-69" transform="translate(334.130859 0)"/>
      <use xlink:href="#Calibri-6e" transform="translate(357.080078 0)"/>
      <use xlink:href="#Calibri-29" transform="translate(409.619141 0)"/>
     </g>
    </g>
   </g>
   <g id="matplotlib.axis_8">
    <g id="ytick_8">
     <g id="line2d_28">
      <g>
       <use xlink:href="#m8ebe4e7890" x="514.404675" y="300.020426" style="stroke: #000000; stroke-width: 2"/>
      </g>
     </g>
     <g id="text_33">
      <!-- 3 -->
      <g transform="translate(498.280925 306.141832) scale(0.18 -0.18)">
       <use xlink:href="#Calibri-33"/>
      </g>
     </g>
    </g>
    <g id="ytick_9">
     <g id="line2d_29">
      <g>
       <use xlink:href="#m8ebe4e7890" x="514.404675" y="227.778544" style="stroke: #000000; stroke-width: 2"/>
      </g>
     </g>
     <g id="text_34">
      <!-- 6 -->
      <g transform="translate(498.280925 233.89995) scale(0.18 -0.18)">
       <use xlink:href="#Calibri-36"/>
      </g>
     </g>
    </g>
    <g id="ytick_10">
     <g id="line2d_30">
      <g>
       <use xlink:href="#m8ebe4e7890" x="514.404675" y="155.536663" style="stroke: #000000; stroke-width: 2"/>
      </g>
     </g>
     <g id="text_35">
      <!-- 9 -->
      <g transform="translate(498.280925 161.658069) scale(0.18 -0.18)">
       <use xlink:href="#Calibri-39"/>
      </g>
     </g>
    </g>
    <g id="ytick_11">
     <g id="line2d_31">
      <g>
       <use xlink:href="#m8ebe4e7890" x="514.404675" y="83.294782" style="stroke: #000000; stroke-width: 2"/>
      </g>
     </g>
     <g id="text_36">
      <!-- 12 -->
      <g transform="translate(489.157175 89.416188) scale(0.18 -0.18)">
       <use xlink:href="#Calibri-31"/>
       <use xlink:href="#Calibri-32" transform="translate(50.683594 0)"/>
      </g>
     </g>
    </g>
    <g id="text_37">
     <!-- Glucose (mmol/L) -->
     <g transform="translate(481.95655 250.606197) rotate(-90) scale(0.18 -0.18)">
      <use xlink:href="#Calibri-47"/>
      <use xlink:href="#Calibri-6c" transform="translate(63.085938 0)"/>
      <use xlink:href="#Calibri-75" transform="translate(86.035156 0)"/>
      <use xlink:href="#Calibri-63" transform="translate(138.574219 0)"/>
      <use xlink:href="#Calibri-6f" transform="translate(180.859375 0)"/>
      <use xlink:href="#Calibri-73" transform="translate(233.59375 0)"/>
      <use xlink:href="#Calibri-65" transform="translate(272.705078 0)"/>
      <use xlink:href="#Calibri-20" transform="translate(322.460938 0)"/>
      <use xlink:href="#Calibri-28" transform="translate(345.068359 0)"/>
      <use xlink:href="#Calibri-6d" transform="translate(375.390625 0)"/>
      <use xlink:href="#Calibri-6d" transform="translate(455.273438 0)"/>
      <use xlink:href="#Calibri-6f" transform="translate(535.15625 0)"/>
      <use xlink:href="#Calibri-6c" transform="translate(587.890625 0)"/>
      <use xlink:href="#Calibri-2f" transform="translate(610.839844 0)"/>
      <use xlink:href="#Calibri-4c" transform="translate(649.462891 0)"/>
      <use xlink:href="#Calibri-29" transform="translate(691.503906 0)"/>
     </g>
    </g>
   </g>
   <g id="line2d_32">
    <path d="M 514.404675 218.337187 
L 523.233821 218.409979 
L 524.705345 218.622316 
L 526.17687 219.066558 
L 528.62941 220.172254 
L 530.100935 220.691193 
L 531.081951 220.733001 
L 531.572459 220.609197 
L 532.062967 220.364157 
L 532.553475 219.979341 
L 533.043983 219.437889 
L 534.024999 217.831068 
L 535.006016 215.467114 
L 535.987032 212.320087 
L 536.968048 208.410241 
L 538.439572 201.253983 
L 539.911097 192.851948 
L 542.854145 174.152453 
L 545.306686 158.946057 
L 547.268718 148.214775 
L 548.740242 141.235368 
L 550.211767 135.179239 
L 551.683291 129.981963 
L 553.154815 125.55169 
L 554.62634 121.792256 
L 556.097864 118.615738 
L 557.569388 115.947576 
L 559.040913 113.727233 
L 560.512437 111.906623 
L 561.983961 110.447705 
L 563.455485 109.320032 
L 564.92701 108.498609 
L 566.398534 107.962193 
L 567.870058 107.692026 
L 569.341583 107.670935 
L 570.813107 107.882722 
L 572.284631 108.311775 
L 573.756156 108.942815 
L 575.718188 110.072315 
L 577.68022 111.498408 
L 579.642253 113.1852 
L 582.094793 115.60418 
L 585.037842 118.85986 
L 594.357496 129.595793 
L 596.319528 131.422847 
L 598.281561 132.948545 
L 600.243593 134.157504 
L 602.205625 135.078629 
L 604.658166 135.923516 
L 608.091723 136.801733 
L 614.468328 138.405373 
L 618.882901 139.792333 
L 624.27849 141.745095 
L 640.955765 147.956632 
L 647.822879 150.198559 
L 655.1805 152.352864 
L 663.02863 154.416081 
L 672.838792 156.750249 
L 686.082511 159.646291 
L 708.645883 164.314093 
L 745.433991 171.705843 
L 769.468888 176.319991 
L 790.070228 180.051591 
L 809.690552 183.377844 
L 828.820368 186.394488 
L 847.950184 189.187143 
L 867.08 191.76245 
L 867.08 191.76245 
" clip-path="url(#p85831687f0)" style="fill: none; stroke: #000000; stroke-width: 3; stroke-linecap: square"/>
   </g>
   <g id="line2d_33">
    <path d="M 514.404675 275.939798 
L 867.08 275.939798 
" clip-path="url(#p85831687f0)" style="fill: none; stroke-dasharray: 5.55,2.4; stroke-dashoffset: 0; stroke: #808080; stroke-opacity: 0.7; stroke-width: 1.5"/>
   </g>
   <g id="line2d_34">
    <path d="M 514.404675 131.456036 
L 867.08 131.456036 
" clip-path="url(#p85831687f0)" style="fill: none; stroke-dasharray: 5.55,2.4; stroke-dashoffset: 0; stroke: #808080; stroke-opacity: 0.7; stroke-width: 1.5"/>
   </g>
   <g id="patch_16">
    <path d="M 514.404675 300.020426 
L 514.404675 71.254468 
" style="fill: none; stroke: #000000; stroke-width: 2; stroke-linejoin: miter; stroke-linecap: square"/>
   </g>
   <g id="patch_17">
    <path d="M 514.404675 300.020426 
L 867.08 300.020426 
" style="fill: none; stroke: #000000; stroke-width: 2; stroke-linejoin: miter; stroke-linecap: square"/>
   </g>
   <g id="text_38">
    <g id="patch_18">
     <path d="M 656.682963 138.940801 
L 724.801713 138.940801 
L 724.801713 123.97127 
L 656.682963 123.97127 
z
" style="fill: #ffffff"/>
    </g>
    <!-- 10 mmol/L -->
    <g style="fill: #808080" transform="translate(657.732963 135.223614) scale(0.15 -0.15)">
     <use xlink:href="#Calibri-31"/>
     <use xlink:href="#Calibri-30" transform="translate(50.683594 0)"/>
     <use xlink:href="#Calibri-20" transform="translate(101.367188 0)"/>
     <use xlink:href="#Calibri-6d" transform="translate(123.974609 0)"/>
     <use xlink:href="#Calibri-6d" transform="translate(203.857422 0)"/>
     <use xlink:href="#Calibri-6f" transform="translate(283.740234 0)"/>
     <use xlink:href="#Calibri-6c" transform="translate(336.474609 0)"/>
     <use xlink:href="#Calibri-2f" transform="translate(359.423828 0)"/>
     <use xlink:href="#Calibri-4c" transform="translate(398.046875 0)"/>
    </g>
   </g>
   <g id="text_39">
    <g id="patch_19">
     <path d="M 660.484525 283.424564 
L 721.00015 283.424564 
L 721.00015 268.455033 
L 660.484525 268.455033 
z
" style="fill: #ffffff"/>
    </g>
    <!-- 4 mmol/L -->
    <g style="fill: #808080" transform="translate(661.534525 279.707377) scale(0.15 -0.15)">
     <use xlink:href="#Calibri-34"/>
     <use xlink:href="#Calibri-20" transform="translate(50.683594 0)"/>
     <use xlink:href="#Calibri-6d" transform="translate(73.291016 0)"/>
     <use xlink:href="#Calibri-6d" transform="translate(153.173828 0)"/>
     <use xlink:href="#Calibri-6f" transform="translate(233.056641 0)"/>
     <use xlink:href="#Calibri-6c" transform="translate(285.791016 0)"/>
     <use xlink:href="#Calibri-2f" transform="translate(308.740234 0)"/>
     <use xlink:href="#Calibri-4c" transform="translate(347.363281 0)"/>
    </g>
   </g>
   <g id="text_40">
    <!-- Target glucose range -->
    <g style="fill: #808080" transform="translate(627.319291 255.623234) scale(0.15 -0.15)">
     <use xlink:href="#Calibri-54"/>
     <use xlink:href="#Calibri-61" transform="translate(48.730469 0)"/>
     <use xlink:href="#Calibri-72" transform="translate(96.630859 0)"/>
     <use xlink:href="#Calibri-67" transform="translate(131.494141 0)"/>
     <use xlink:href="#Calibri-65" transform="translate(178.564453 0)"/>
     <use xlink:href="#Calibri-74" transform="translate(228.320312 0)"/>
     <use xlink:href="#Calibri-20" transform="translate(261.816406 0)"/>
     <use xlink:href="#Calibri-67" transform="translate(284.423828 0)"/>
     <use xlink:href="#Calibri-6c" transform="translate(331.494141 0)"/>
     <use xlink:href="#Calibri-75" transform="translate(354.443359 0)"/>
     <use xlink:href="#Calibri-63" transform="translate(406.982422 0)"/>
     <use xlink:href="#Calibri-6f" transform="translate(449.267578 0)"/>
     <use xlink:href="#Calibri-73" transform="translate(502.001953 0)"/>
     <use xlink:href="#Calibri-65" transform="translate(541.113281 0)"/>
     <use xlink:href="#Calibri-20" transform="translate(590.869141 0)"/>
     <use xlink:href="#Calibri-72" transform="translate(613.476562 0)"/>
     <use xlink:href="#Calibri-61" transform="translate(648.339844 0)"/>
     <use xlink:href="#Calibri-6e" transform="translate(696.240234 0)"/>
     <use xlink:href="#Calibri-67" transform="translate(748.779297 0)"/>
     <use xlink:href="#Calibri-65" transform="translate(795.849609 0)"/>
    </g>
   </g>
   <g id="text_41">
    <!-- b -->
    <g transform="translate(472.083636 56.095233) scale(0.21 -0.21)">
     <defs>
      <path id="Calibri-Bold-62" d="M 3200 1538 
Q 3200 1166 3119 869 
Q 3038 572 2884 362 
Q 2731 153 2507 40 
Q 2284 -72 2000 -72 
Q 1859 -72 1737 -45 
Q 1616 -19 1505 40 
Q 1394 100 1286 190 
Q 1178 281 1066 409 
L 1066 106 
Q 1066 72 1048 48 
Q 1031 25 992 9 
Q 953 -6 887 -12 
Q 822 -19 728 -19 
Q 631 -19 567 -12 
Q 503 -6 464 9 
Q 425 25 409 48 
Q 394 72 394 106 
L 394 4216 
Q 394 4247 412 4272 
Q 431 4297 476 4314 
Q 522 4331 597 4340 
Q 672 4350 788 4350 
Q 903 4350 978 4340 
Q 1053 4331 1098 4314 
Q 1144 4297 1162 4272 
Q 1181 4247 1181 4216 
L 1181 2675 
Q 1288 2781 1394 2856 
Q 1500 2931 1606 2979 
Q 1713 3028 1825 3050 
Q 1938 3072 2063 3072 
Q 2372 3072 2587 2948 
Q 2803 2825 2939 2615 
Q 3075 2406 3137 2126 
Q 3200 1847 3200 1538 
z
M 2384 1481 
Q 2384 1659 2357 1825 
Q 2331 1991 2265 2119 
Q 2200 2247 2095 2323 
Q 1991 2400 1831 2400 
Q 1753 2400 1678 2378 
Q 1603 2356 1523 2303 
Q 1444 2250 1359 2165 
Q 1275 2081 1181 1956 
L 1181 1031 
Q 1347 819 1498 708 
Q 1650 597 1816 597 
Q 1969 597 2075 675 
Q 2181 753 2251 878 
Q 2322 1003 2353 1162 
Q 2384 1322 2384 1481 
z
" transform="scale(0.015625)"/>
     </defs>
     <use xlink:href="#Calibri-Bold-62"/>
    </g>
   </g>
   <g id="axes_5">
    <g id="patch_20">
     <path d="M 740.98332 122.498043 
L 859.484086 122.498043 
Q 865.889533 122.498043 865.889533 116.092596 
L 865.889533 52.038128 
Q 865.889533 45.632681 859.484086 45.632681 
L 740.98332 45.632681 
Q 734.577873 45.632681 734.577873 52.038128 
L 734.577873 116.092596 
Q 734.577873 122.498043 740.98332 122.498043 
z
" clip-path="url(#p5879805165)" style="fill: #ececec; opacity: 0.85"/>
    </g>
    <g id="patch_21">
     <path d="M 778.796595 65.020104 
C 776.250271 67.656902 774.175421 70.711385 772.662612 74.050229 
C 771.149804 77.389073 770.221368 80.962982 769.917828 84.615972 
C 769.614288 88.268961 769.940128 91.9471 770.881124 95.489839 
C 771.822119 99.032578 773.364377 102.387613 775.440585 105.408513 
C 777.516792 108.429413 780.096296 111.071575 783.066506 113.219672 
C 786.036715 115.36777 789.353785 116.990094 792.872924 118.015829 
C 796.392063 119.041563 800.061315 119.45557 803.720537 119.239772 
C 807.379759 119.023976 810.974925 118.181562 814.349108 116.749306 
C 817.723291 115.31705 820.826682 113.316093 823.523821 110.833773 
C 826.220959 108.351452 828.472027 105.42442 830.178774 102.180427 
C 831.88552 98.936434 833.022745 95.423374 833.540813 91.79459 
C 834.058881 88.165806 833.950138 84.474864 833.21934 80.882872 
C 832.48854 77.290882 831.146471 73.85087 829.251708 70.712982 
C 827.356945 67.575095 824.937464 64.785661 822.098867 62.46643 
C 819.260269 60.147199 816.044455 58.332408 812.591806 57.101278 
C 809.139156 55.870147 805.500643 55.240851 801.835064 55.240851 
L 801.835065 87.268085 
z
" style="fill: #b5e6cc; stroke: #ffffff; stroke-width: 2; stroke-linejoin: miter"/>
    </g>
    <g id="patch_22">
     <path d="M 801.83505 55.240851 
C 797.535198 55.240853 793.279044 56.10678 789.321011 57.786868 
C 785.362978 59.466956 781.783524 61.927048 778.796595 65.020104 
L 801.835065 87.268085 
z
" style="fill: #ffb347; stroke: #ffffff; stroke-width: 2; stroke-linejoin: miter"/>
    </g>
    <g id="matplotlib.axis_9"/>
    <g id="matplotlib.axis_10"/>
    <g id="text_42">
     <!-- 87.2% -->
     <g transform="translate(781.1869 104.760917) scale(0.18 -0.18)">
      <defs>
       <path id="Calibri-37" d="M 2947 3813 
Q 2947 3756 2942 3711 
Q 2938 3666 2930 3623 
Q 2922 3581 2908 3542 
Q 2894 3503 2875 3459 
L 1419 103 
Q 1403 66 1379 42 
Q 1356 19 1320 5 
Q 1284 -9 1228 -14 
Q 1172 -19 1091 -19 
Q 984 -19 925 -9 
Q 866 0 839 20 
Q 813 41 816 70 
Q 819 100 838 141 
L 2369 3572 
L 428 3572 
Q 369 3572 339 3634 
Q 309 3697 309 3809 
Q 309 3869 317 3912 
Q 325 3956 340 3986 
Q 356 4016 378 4030 
Q 400 4044 428 4044 
L 2784 4044 
Q 2828 4044 2861 4034 
Q 2894 4025 2911 3997 
Q 2928 3969 2937 3925 
Q 2947 3881 2947 3813 
z
" transform="scale(0.015625)"/>
      </defs>
      <use xlink:href="#Calibri-38"/>
      <use xlink:href="#Calibri-37" transform="translate(50.683594 0)"/>
      <use xlink:href="#Calibri-2e" transform="translate(101.367188 0)"/>
      <use xlink:href="#Calibri-32" transform="translate(126.611328 0)"/>
      <use xlink:href="#Calibri-25" transform="translate(177.294922 0)"/>
     </g>
    </g>
    <g id="text_43">
     <!-- 12.8% -->
     <g transform="translate(743.286183 59.359833) scale(0.18 -0.18)">
      <use xlink:href="#Calibri-31"/>
      <use xlink:href="#Calibri-32" transform="translate(50.683594 0)"/>
      <use xlink:href="#Calibri-2e" transform="translate(101.367188 0)"/>
      <use xlink:href="#Calibri-38" transform="translate(126.611328 0)"/>
      <use xlink:href="#Calibri-25" transform="translate(177.294922 0)"/>
     </g>
    </g>
    <g id="text_44">
     <!-- TIR -->
     <g transform="translate(840.267746 91.035663) scale(0.15 -0.15)">
      <use xlink:href="#Calibri-54"/>
      <use xlink:href="#Calibri-49" transform="translate(48.730469 0)"/>
      <use xlink:href="#Calibri-52" transform="translate(73.925781 0)"/>
     </g>
    </g>
    <g id="text_45">
     <!-- TAR -->
     <g transform="translate(739.26879 91.035663) scale(0.15 -0.15)">
      <use xlink:href="#Calibri-54"/>
      <use xlink:href="#Calibri-41" transform="translate(48.730469 0)"/>
      <use xlink:href="#Calibri-52" transform="translate(106.591797 0)"/>
     </g>
    </g>
    <g id="line2d_35">
     <path d="M 819.250984 79.146909 
L 838.986656 87.268085 
" clip-path="url(#p5879805165)" style="fill: none; stroke: #404040; stroke-width: 1.2; stroke-linecap: square"/>
    </g>
    <g id="line2d_36">
     <path d="M 793.075228 66.631233 
L 764.683473 87.268085 
" clip-path="url(#p5879805165)" style="fill: none; stroke: #404040; stroke-width: 1.2; stroke-linecap: square"/>
    </g>
    <g id="line2d_37">
     <g clip-path="url(#p5879805165)">
      <use xlink:href="#mb483740d70" x="819.250984" y="79.146909" style="fill: #404040; stroke: #404040"/>
     </g>
    </g>
    <g id="line2d_38">
     <g clip-path="url(#p5879805165)">
      <use xlink:href="#mb483740d70" x="793.075228" y="66.631233" style="fill: #404040; stroke: #404040"/>
     </g>
    </g>
   </g>
  </g>
  <g id="axes_6">
   <g id="patch_23">
    <path d="M 514.404675 474.454468 
L 867.08 474.454468 
L 867.08 360.071489 
L 514.404675 360.071489 
z
" style="fill: #ffffff"/>
   </g>
   <g id="matplotlib.axis_11">
    <g id="xtick_13">
     <g id="line2d_39">
      <g>
       <use xlink:href="#m4bdae540df" x="514.404675" y="474.454468" style="stroke: #000000; stroke-width: 2"/>
      </g>
     </g>
     <g id="text_46">
      <!-- 0 -->
      <g transform="translate(509.8428 493.697281) scale(0.18 -0.18)">
       <use xlink:href="#Calibri-30"/>
      </g>
     </g>
    </g>
    <g id="xtick_14">
     <g id="line2d_40">
      <g>
       <use xlink:href="#m4bdae540df" x="612.506296" y="474.454468" style="stroke: #000000; stroke-width: 2"/>
      </g>
     </g>
     <g id="text_47">
      <!-- 200 -->
      <g transform="translate(598.820671 493.697281) scale(0.18 -0.18)">
       <use xlink:href="#Calibri-32"/>
       <use xlink:href="#Calibri-30" transform="translate(50.683594 0)"/>
       <use xlink:href="#Calibri-30" transform="translate(101.367188 0)"/>
      </g>
     </g>
    </g>
    <g id="xtick_15">
     <g id="line2d_41">
      <g>
       <use xlink:href="#m4bdae540df" x="710.607916" y="474.454468" style="stroke: #000000; stroke-width: 2"/>
      </g>
     </g>
     <g id="text_48">
      <!-- 400 -->
      <g transform="translate(696.922291 493.697281) scale(0.18 -0.18)">
       <use xlink:href="#Calibri-34"/>
       <use xlink:href="#Calibri-30" transform="translate(50.683594 0)"/>
       <use xlink:href="#Calibri-30" transform="translate(101.367188 0)"/>
      </g>
     </g>
    </g>
    <g id="xtick_16">
     <g id="line2d_42">
      <g>
       <use xlink:href="#m4bdae540df" x="808.709536" y="474.454468" style="stroke: #000000; stroke-width: 2"/>
      </g>
     </g>
     <g id="text_49">
      <!-- 600 -->
      <g transform="translate(795.023911 493.697281) scale(0.18 -0.18)">
       <use xlink:href="#Calibri-36"/>
       <use xlink:href="#Calibri-30" transform="translate(50.683594 0)"/>
       <use xlink:href="#Calibri-30" transform="translate(101.367188 0)"/>
      </g>
     </g>
    </g>
    <g id="text_50">
     <!-- Time (min) -->
     <g transform="translate(651.143744 513.199781) scale(0.18 -0.18)">
      <use xlink:href="#Calibri-54"/>
      <use xlink:href="#Calibri-69" transform="translate(48.730469 0)"/>
      <use xlink:href="#Calibri-6d" transform="translate(71.679688 0)"/>
      <use xlink:href="#Calibri-65" transform="translate(151.5625 0)"/>
      <use xlink:href="#Calibri-20" transform="translate(201.318359 0)"/>
      <use xlink:href="#Calibri-28" transform="translate(223.925781 0)"/>
      <use xlink:href="#Calibri-6d" transform="translate(254.248047 0)"/>
      <use xlink:href="#Calibri-69" transform="translate(334.130859 0)"/>
      <use xlink:href="#Calibri-6e" transform="translate(357.080078 0)"/>
      <use xlink:href="#Calibri-29" transform="translate(409.619141 0)"/>
     </g>
    </g>
   </g>
   <g id="matplotlib.axis_12">
    <g id="ytick_12">
     <g id="line2d_43">
      <g>
       <use xlink:href="#m8ebe4e7890" x="514.404675" y="468.781421" style="stroke: #000000; stroke-width: 2"/>
      </g>
     </g>
     <g id="text_51">
      <!-- 2 -->
      <g style="fill: #2596be" transform="translate(498.280925 474.902827) scale(0.18 -0.18)">
       <use xlink:href="#Calibri-32"/>
      </g>
     </g>
    </g>
    <g id="ytick_13">
     <g id="line2d_44">
      <g>
       <use xlink:href="#m8ebe4e7890" x="514.404675" y="418.921366" style="stroke: #000000; stroke-width: 2"/>
      </g>
     </g>
     <g id="text_52">
      <!-- 4 -->
      <g style="fill: #2596be" transform="translate(498.280925 425.042772) scale(0.18 -0.18)">
       <use xlink:href="#Calibri-34"/>
      </g>
     </g>
    </g>
    <g id="ytick_14">
     <g id="line2d_45">
      <g>
       <use xlink:href="#m8ebe4e7890" x="514.404675" y="369.061311" style="stroke: #000000; stroke-width: 2"/>
      </g>
     </g>
     <g id="text_53">
      <!-- 6 -->
      <g style="fill: #2596be" transform="translate(498.280925 375.182717) scale(0.18 -0.18)">
       <use xlink:href="#Calibri-36"/>
      </g>
     </g>
    </g>
    <g id="text_54">
     <!-- IOB (U) -->
     <g style="fill: #2596be" transform="translate(491.0803 443.654072) rotate(-90) scale(0.18 -0.18)">
      <use xlink:href="#Calibri-49"/>
      <use xlink:href="#Calibri-4f" transform="translate(25.195312 0)"/>
      <use xlink:href="#Calibri-42" transform="translate(91.40625 0)"/>
      <use xlink:href="#Calibri-20" transform="translate(145.800781 0)"/>
      <use xlink:href="#Calibri-28" transform="translate(168.408203 0)"/>
      <use xlink:href="#Calibri-55" transform="translate(198.730469 0)"/>
      <use xlink:href="#Calibri-29" transform="translate(262.890625 0)"/>
     </g>
    </g>
   </g>
   <g id="line2d_46">
    <path d="M 514.404675 468.283958 
L 519.309756 468.283958 
L 519.800264 365.270716 
L 520.781281 365.714022 
L 521.762297 366.422367 
L 524.705345 371.788313 
L 527.157886 374.555622 
L 530.100935 378.270401 
L 533.534491 382.972438 
L 538.93008 390.779458 
L 548.740242 405.005754 
L 553.645323 411.71388 
L 558.059896 417.390704 
L 562.474469 422.682149 
L 566.398534 427.045757 
L 570.322599 431.085848 
L 574.246664 434.806595 
L 578.170728 438.217493 
L 580.623269 440.197717 
L 585.037842 448.097166 
L 588.961907 454.669006 
L 592.885971 460.792575 
L 595.338512 464.38937 
L 598.772069 465.525421 
L 602.205625 466.43261 
L 606.12969 467.244111 
L 610.544263 467.926944 
L 615.449344 468.463478 
L 621.335441 468.87761 
L 628.693063 469.150597 
L 638.012717 469.254589 
L 652.237452 469.159149 
L 721.889602 468.421277 
L 770.940412 468.289561 
L 867.08 468.254538 
L 867.08 468.254538 
" clip-path="url(#p0a109b0be9)" style="fill: none; stroke: #2596be; stroke-width: 3; stroke-linecap: square"/>
   </g>
   <g id="patch_24">
    <path d="M 514.404675 474.454468 
L 514.404675 360.071489 
" style="fill: none; stroke: #000000; stroke-width: 2; stroke-linejoin: miter; stroke-linecap: square"/>
   </g>
   <g id="patch_25">
    <path d="M 514.404675 474.454468 
L 867.08 474.454468 
" style="fill: none; stroke: #000000; stroke-width: 2; stroke-linejoin: miter; stroke-linecap: square"/>
   </g>
  </g>
  <g id="axes_7">
   <g id="matplotlib.axis_13">
    <g id="ytick_15">
     <g id="line2d_47">
      <defs>
       <path id="m5f73ae62b0" d="M 0 0 
L 3.5 0 
" style="stroke: #000000; stroke-width: 2"/>
      </defs>
      <g>
       <use xlink:href="#m5f73ae62b0" x="405.075325" y="469.255242" style="stroke: #000000; stroke-width: 2"/>
      </g>
     </g>
     <g id="text_55">
      <!-- 0 -->
      <g style="fill: #e96929" transform="translate(412.075325 475.376648) scale(0.18 -0.18)">
       <use xlink:href="#Calibri-30"/>
      </g>
     </g>
    </g>
    <g id="ytick_16">
     <g id="line2d_48">
      <g>
       <use xlink:href="#m5f73ae62b0" x="405.075325" y="434.593733" style="stroke: #000000; stroke-width: 2"/>
      </g>
     </g>
     <g id="text_56">
      <!-- 25 -->
      <g style="fill: #e96929" transform="translate(412.075325 440.715139) scale(0.18 -0.18)">
       <defs>
        <path id="Calibri-35" d="M 2869 1300 
Q 2869 975 2759 722 
Q 2650 469 2450 295 
Q 2250 122 1973 31 
Q 1697 -59 1359 -59 
Q 1172 -59 1003 -32 
Q 834 -6 703 33 
Q 572 72 487 109 
Q 403 147 379 169 
Q 356 191 347 209 
Q 338 228 330 254 
Q 322 281 319 322 
Q 316 363 316 419 
Q 316 472 320 514 
Q 325 556 337 582 
Q 350 609 367 621 
Q 384 634 406 634 
Q 438 634 503 595 
Q 569 556 680 511 
Q 791 466 955 425 
Q 1119 384 1344 384 
Q 1553 384 1728 434 
Q 1903 484 2029 590 
Q 2156 697 2228 858 
Q 2300 1019 2300 1250 
Q 2300 1444 2239 1592 
Q 2178 1741 2051 1839 
Q 1925 1938 1731 1986 
Q 1538 2034 1269 2034 
Q 1078 2034 940 2015 
Q 803 1997 684 1997 
Q 597 1997 559 2037 
Q 522 2078 522 2194 
L 522 3841 
Q 522 3944 570 3994 
Q 619 4044 709 4044 
L 2500 4044 
Q 2525 4044 2548 4030 
Q 2572 4016 2587 3987 
Q 2603 3959 2611 3915 
Q 2619 3872 2619 3813 
Q 2619 3700 2587 3637 
Q 2556 3575 2500 3575 
L 991 3575 
L 991 2441 
Q 1100 2456 1214 2459 
Q 1328 2463 1478 2463 
Q 1825 2463 2084 2380 
Q 2344 2297 2517 2145 
Q 2691 1994 2780 1778 
Q 2869 1563 2869 1300 
z
" transform="scale(0.015625)"/>
       </defs>
       <use xlink:href="#Calibri-32"/>
       <use xlink:href="#Calibri-35" transform="translate(50.683594 0)"/>
      </g>
     </g>
    </g>
    <g id="ytick_17">
     <g id="line2d_49">
      <g>
       <use xlink:href="#m5f73ae62b0" x="405.075325" y="399.932224" style="stroke: #000000; stroke-width: 2"/>
      </g>
     </g>
     <g id="text_57">
      <!-- 50 -->
      <g style="fill: #e96929" transform="translate(412.075325 406.053631) scale(0.18 -0.18)">
       <use xlink:href="#Calibri-35"/>
       <use xlink:href="#Calibri-30" transform="translate(50.683594 0)"/>
      </g>
     </g>
    </g>
    <g id="ytick_18">
     <g id="line2d_50">
      <g>
       <use xlink:href="#m5f73ae62b0" x="405.075325" y="365.270716" style="stroke: #000000; stroke-width: 2"/>
      </g>
     </g>
     <g id="text_58">
      <!-- 75 -->
      <g style="fill: #e96929" transform="translate(412.075325 371.392122) scale(0.18 -0.18)">
       <use xlink:href="#Calibri-37"/>
       <use xlink:href="#Calibri-35" transform="translate(50.683594 0)"/>
      </g>
     </g>
    </g>
    <g id="text_59">
     <!-- CHO (g) -->
     <g style="fill: #e96929" transform="translate(446.79345 445.36126) rotate(-90) scale(0.18 -0.18)">
      <defs>
       <path id="Calibri-43" d="M 3238 572 
Q 3238 522 3234 484 
Q 3231 447 3223 419 
Q 3216 391 3203 369 
Q 3191 347 3159 315 
Q 3128 284 3028 220 
Q 2928 156 2779 95 
Q 2631 34 2439 -8 
Q 2247 -50 2019 -50 
Q 1625 -50 1308 81 
Q 991 213 767 469 
Q 544 725 423 1101 
Q 303 1478 303 1969 
Q 303 2472 433 2865 
Q 563 3259 797 3532 
Q 1031 3806 1357 3950 
Q 1684 4094 2081 4094 
Q 2256 4094 2422 4061 
Q 2588 4028 2728 3978 
Q 2869 3928 2978 3862 
Q 3088 3797 3130 3755 
Q 3172 3713 3184 3691 
Q 3197 3669 3205 3639 
Q 3213 3609 3217 3568 
Q 3222 3528 3222 3472 
Q 3222 3409 3215 3365 
Q 3209 3322 3196 3292 
Q 3184 3263 3167 3248 
Q 3150 3234 3125 3234 
Q 3081 3234 3003 3295 
Q 2925 3356 2801 3429 
Q 2678 3503 2501 3564 
Q 2325 3625 2078 3625 
Q 1809 3625 1589 3517 
Q 1369 3409 1212 3200 
Q 1056 2991 970 2689 
Q 884 2388 884 2000 
Q 884 1616 967 1320 
Q 1050 1025 1204 826 
Q 1359 628 1584 526 
Q 1809 425 2094 425 
Q 2334 425 2514 484 
Q 2694 544 2820 617 
Q 2947 691 3028 750 
Q 3109 809 3156 809 
Q 3178 809 3193 800 
Q 3209 791 3218 764 
Q 3228 738 3233 691 
Q 3238 644 3238 572 
z
" transform="scale(0.015625)"/>
       <path id="Calibri-48" d="M 3450 81 
Q 3450 56 3437 37 
Q 3425 19 3394 8 
Q 3363 -3 3311 -11 
Q 3259 -19 3184 -19 
Q 3103 -19 3053 -11 
Q 3003 -3 2972 8 
Q 2941 19 2928 37 
Q 2916 56 2916 81 
L 2916 1875 
L 1075 1875 
L 1075 81 
Q 1075 56 1062 37 
Q 1050 19 1019 8 
Q 988 -3 936 -11 
Q 884 -19 806 -19 
Q 731 -19 678 -11 
Q 625 -3 594 8 
Q 563 19 550 37 
Q 538 56 538 81 
L 538 3963 
Q 538 3988 550 4006 
Q 563 4025 594 4036 
Q 625 4047 678 4055 
Q 731 4063 806 4063 
Q 884 4063 936 4055 
Q 988 4047 1019 4036 
Q 1050 4025 1062 4006 
Q 1075 3988 1075 3963 
L 1075 2344 
L 2916 2344 
L 2916 3963 
Q 2916 3988 2928 4006 
Q 2941 4025 2972 4036 
Q 3003 4047 3053 4055 
Q 3103 4063 3184 4063 
Q 3259 4063 3311 4055 
Q 3363 4047 3394 4036 
Q 3425 4025 3437 4006 
Q 3450 3988 3450 3963 
L 3450 81 
z
" transform="scale(0.015625)"/>
      </defs>
      <use xlink:href="#Calibri-43"/>
      <use xlink:href="#Calibri-48" transform="translate(53.320312 0)"/>
      <use xlink:href="#Calibri-4f" transform="translate(115.625 0)"/>
      <use xlink:href="#Calibri-20" transform="translate(181.835938 0)"/>
      <use xlink:href="#Calibri-28" transform="translate(204.443359 0)"/>
      <use xlink:href="#Calibri-67" transform="translate(234.765625 0)"/>
      <use xlink:href="#Calibri-29" transform="translate(281.835938 0)"/>
     </g>
    </g>
   </g>
   <g id="line2d_51">
    <path d="M 52.4 469.255242 
L 61.719654 469.255242 
L 62.210162 365.270716 
L 62.70067 469.255242 
L 405.075325 469.255242 
L 405.075325 469.255242 
" clip-path="url(#p1d9bbfe7ba)" style="fill: none; stroke: #e96929; stroke-width: 3; stroke-linecap: square"/>
   </g>
   <g id="patch_26">
    <path d="M 405.075325 474.454468 
L 405.075325 360.071489 
" style="fill: none; stroke: #000000; stroke-width: 2; stroke-linejoin: miter; stroke-linecap: square"/>
   </g>
   <g id="patch_27">
    <path d="M 52.4 474.454468 
L 405.075325 474.454468 
" style="fill: none; stroke: #000000; stroke-width: 2; stroke-linejoin: miter; stroke-linecap: square"/>
   </g>
  </g>
  <g id="axes_8">
   <g id="matplotlib.axis_14">
    <g id="ytick_19">
     <g id="line2d_52">
      <g>
       <use xlink:href="#m5f73ae62b0" x="867.08" y="469.255242" style="stroke: #000000; stroke-width: 2"/>
      </g>
     </g>
     <g id="text_60">
      <!-- 0 -->
      <g style="fill: #e96929" transform="translate(874.08 475.376648) scale(0.18 -0.18)">
       <use xlink:href="#Calibri-30"/>
      </g>
     </g>
    </g>
    <g id="ytick_20">
     <g id="line2d_53">
      <g>
       <use xlink:href="#m5f73ae62b0" x="867.08" y="434.593733" style="stroke: #000000; stroke-width: 2"/>
      </g>
     </g>
     <g id="text_61">
      <!-- 25 -->
      <g style="fill: #e96929" transform="translate(874.08 440.715139) scale(0.18 -0.18)">
       <use xlink:href="#Calibri-32"/>
       <use xlink:href="#Calibri-35" transform="translate(50.683594 0)"/>
      </g>
     </g>
    </g>
    <g id="ytick_21">
     <g id="line2d_54">
      <g>
       <use xlink:href="#m5f73ae62b0" x="867.08" y="399.932224" style="stroke: #000000; stroke-width: 2"/>
      </g>
     </g>
     <g id="text_62">
      <!-- 50 -->
      <g style="fill: #e96929" transform="translate(874.08 406.053631) scale(0.18 -0.18)">
       <use xlink:href="#Calibri-35"/>
       <use xlink:href="#Calibri-30" transform="translate(50.683594 0)"/>
      </g>
     </g>
    </g>
    <g id="ytick_22">
     <g id="line2d_55">
      <g>
       <use xlink:href="#m5f73ae62b0" x="867.08" y="365.270716" style="stroke: #000000; stroke-width: 2"/>
      </g>
     </g>
     <g id="text_63">
      <!-- 75 -->
      <g style="fill: #e96929" transform="translate(874.08 371.392122) scale(0.18 -0.18)">
       <use xlink:href="#Calibri-37"/>
       <use xlink:href="#Calibri-35" transform="translate(50.683594 0)"/>
      </g>
     </g>
    </g>
    <g id="text_64">
     <!-- CHO (g) -->
     <g style="fill: #e96929" transform="translate(908.798125 445.36126) rotate(-90) scale(0.18 -0.18)">
      <use xlink:href="#Calibri-43"/>
      <use xlink:href="#Calibri-48" transform="translate(53.320312 0)"/>
      <use xlink:href="#Calibri-4f" transform="translate(115.625 0)"/>
      <use xlink:href="#Calibri-20" transform="translate(181.835938 0)"/>
      <use xlink:href="#Calibri-28" transform="translate(204.443359 0)"/>
      <use xlink:href="#Calibri-67" transform="translate(234.765625 0)"/>
      <use xlink:href="#Calibri-29" transform="translate(281.835938 0)"/>
     </g>
    </g>
   </g>
   <g id="line2d_56">
    <path d="M 514.404675 469.255242 
L 523.724329 469.255242 
L 524.214837 365.270716 
L 524.705345 469.255242 
L 867.08 469.255242 
L 867.08 469.255242 
" clip-path="url(#p0a109b0be9)" style="fill: none; stroke: #e96929; stroke-width: 3; stroke-linecap: square"/>
   </g>
   <g id="patch_28">
    <path d="M 867.08 474.454468 
L 867.08 360.071489 
" style="fill: none; stroke: #000000; stroke-width: 2; stroke-linejoin: miter; stroke-linecap: square"/>
   </g>
   <g id="patch_29">
    <path d="M 514.404675 474.454468 
L 867.08 474.454468 
" style="fill: none; stroke: #000000; stroke-width: 2; stroke-linejoin: miter; stroke-linecap: square"/>
   </g>
  </g>
  <g id="legend_1">
   <g id="line2d_57">
    <path d="M 365.024609 503.360874 
L 380.024609 503.360874 
L 395.024609 503.360874 
" style="fill: none; stroke: #2596be; stroke-width: 3; stroke-linecap: square"/>
   </g>
   <g id="text_65">
    <!-- IOB -->
    <g transform="translate(407.024609 508.610874) scale(0.15 -0.15)">
     <use xlink:href="#Calibri-49"/>
     <use xlink:href="#Calibri-4f" transform="translate(25.195312 0)"/>
     <use xlink:href="#Calibri-42" transform="translate(91.40625 0)"/>
    </g>
   </g>
   <g id="line2d_58">
    <path d="M 458.896484 503.360874 
L 473.896484 503.360874 
L 488.896484 503.360874 
" style="fill: none; stroke: #e96929; stroke-width: 3; stroke-linecap: square"/>
   </g>
   <g id="text_66">
    <!-- CHO -->
    <g transform="translate(500.896484 508.610874) scale(0.15 -0.15)">
     <use xlink:href="#Calibri-43"/>
     <use xlink:href="#Calibri-48" transform="translate(53.320312 0)"/>
     <use xlink:href="#Calibri-4f" transform="translate(115.625 0)"/>
    </g>
   </g>
  </g>
 </g>
 <defs>
  <clipPath id="p7dabf20edf">
   <rect x="52.4" y="71.254468" width="352.675325" height="228.765957"/>
  </clipPath>
  <clipPath id="pc4f41810b1">
   <rect x="259.762305" y="7.2" width="160.13617" height="160.13617"/>
  </clipPath>
  <clipPath id="p1d9bbfe7ba">
   <rect x="52.4" y="360.071489" width="352.675325" height="114.382979"/>
  </clipPath>
  <clipPath id="p85831687f0">
   <rect x="514.404675" y="71.254468" width="352.675325" height="228.765957"/>
  </clipPath>
  <clipPath id="p5879805165">
   <rect x="721.76698" y="7.2" width="160.13617" height="160.13617"/>
  </clipPath>
  <clipPath id="p0a109b0be9">
   <rect x="514.404675" y="360.071489" width="352.675325" height="114.382979"/>
  </clipPath>
 </defs>
</svg>
