<?xml version="1.0" encoding="utf-8" standalone="no"?>
<!DOCTYPE svg PUBLIC "-//W3C//DTD SVG 1.1//EN"
  "http://www.w3.org/Graphics/SVG/1.1/DTD/svg11.dtd">
<svg xmlns:xlink="http://www.w3.org/1999/xlink" width="971.411901pt" height="504.297989pt" viewBox="0 0 971.411901 504.297989" xmlns="http://www.w3.org/2000/svg" version="1.1">
 <metadata>
  <rdf:RDF xmlns:dc="http://purl.org/dc/elements/1.1/" xmlns:cc="http://creativecommons.org/ns#" xmlns:rdf="http://www.w3.org/1999/02/22-rdf-syntax-ns#">
   <cc:Work>
    <dc:type rdf:resource="http://purl.org/dc/dcmitype/StillImage"/>
    <dc:date>2026-02-09T11:56:01.226426</dc:date>
    <dc:format>image/svg+xml</dc:format>
    <dc:creator>
     <cc:Agent>
      <dc:title>Matplotlib v3.10.8, https://matplotlib.org/</dc:title>
     </cc:Agent>
    </dc:creator>
   </cc:Work>
  </rdf:RDF>
 </metadata>
 <defs>
  <style type="text/css">*{stroke-linejoin: round; stroke-linecap: butt}</style>
 </defs>
 <g id="figure_1">
  <g id="patch_1">
   <path d="M 0 504.297989 
L 971.411901 504.297989 
L 971.411901 0 
L 0 0 
z
" style="fill: #ffffff"/>
  </g>
  <g id="axes_1">
   <g id="patch_2">
    <path d="M 48.195918 258.370279 
L 389.828571 258.370279 
L 389.828571 36.297989 
L 48.195918 36.297989 
z
" style="fill: #ffffff"/>
   </g>
   <g id="matplotlib.axis_1">
    <g id="xtick_1">
     <g id="line2d_1">
      <defs>
       <path id="m83e86a3b16" d="M 0 0 
L 0 3.5 
" style="stroke: #000000; stroke-width: 2"/>
      </defs>
      <g>
       <use xlink:href="#m83e86a3b16" x="48.195918" y="258.370279" style="stroke: #000000; stroke-width: 2"/>
      </g>
     </g>
     <g id="text_1">
      <!-- 0 -->
      <g transform="translate(44.394356 275.565591) scale(0.15 -0.15)">
       <defs>
        <path id="Calibri-Bold-30" d="M 3069 2038 
Q 3069 1553 2991 1162 
Q 2913 772 2736 497 
Q 2559 222 2276 75 
Q 1994 -72 1584 -72 
Q 1169 -72 897 70 
Q 625 213 465 480 
Q 306 747 242 1133 
Q 178 1519 178 2006 
Q 178 2488 258 2880 
Q 338 3272 514 3547 
Q 691 3822 973 3969 
Q 1256 4116 1663 4116 
Q 2078 4116 2351 3973 
Q 2625 3831 2784 3564 
Q 2944 3297 3006 2911 
Q 3069 2525 3069 2038 
z
M 2241 1997 
Q 2241 2284 2225 2504 
Q 2209 2725 2176 2887 
Q 2144 3050 2095 3162 
Q 2047 3275 1978 3342 
Q 1909 3409 1821 3437 
Q 1734 3466 1628 3466 
Q 1444 3466 1323 3377 
Q 1203 3288 1133 3109 
Q 1063 2931 1034 2665 
Q 1006 2400 1006 2047 
Q 1006 1616 1040 1333 
Q 1075 1050 1148 883 
Q 1222 716 1337 648 
Q 1453 581 1616 581 
Q 1738 581 1831 620 
Q 1925 659 1995 737 
Q 2066 816 2112 934 
Q 2159 1053 2189 1209 
Q 2219 1366 2230 1562 
Q 2241 1759 2241 1997 
z
" transform="scale(0.015625)"/>
       </defs>
       <use xlink:href="#Calibri-Bold-30"/>
      </g>
     </g>
    </g>
    <g id="xtick_2">
     <g id="line2d_2">
      <g>
       <use xlink:href="#m83e86a3b16" x="143.225864" y="258.370279" style="stroke: #000000; stroke-width: 2"/>
      </g>
     </g>
     <g id="text_2">
      <!-- 200 -->
      <g transform="translate(131.821176 275.565591) scale(0.15 -0.15)">
       <defs>
        <path id="Calibri-Bold-32" d="M 2988 334 
Q 2988 244 2980 180 
Q 2972 116 2956 75 
Q 2941 34 2916 17 
Q 2891 0 2859 0 
L 534 0 
Q 466 0 416 12 
Q 366 25 334 61 
Q 303 97 289 165 
Q 275 234 275 344 
Q 275 447 284 520 
Q 294 594 319 651 
Q 344 709 383 764 
Q 422 819 484 884 
L 1184 1634 
Q 1394 1853 1522 2033 
Q 1650 2213 1722 2361 
Q 1794 2509 1820 2634 
Q 1847 2759 1847 2872 
Q 1847 2975 1814 3067 
Q 1781 3159 1717 3228 
Q 1653 3297 1556 3336 
Q 1459 3375 1328 3375 
Q 1144 3375 1001 3328 
Q 859 3281 751 3223 
Q 644 3166 572 3117 
Q 500 3069 459 3069 
Q 431 3069 411 3087 
Q 391 3106 378 3150 
Q 366 3194 358 3267 
Q 350 3341 350 3447 
Q 350 3519 354 3567 
Q 359 3616 368 3652 
Q 378 3688 393 3714 
Q 409 3741 448 3778 
Q 488 3816 592 3873 
Q 697 3931 850 3986 
Q 1003 4041 1187 4078 
Q 1372 4116 1572 4116 
Q 1888 4116 2123 4036 
Q 2359 3956 2515 3814 
Q 2672 3672 2748 3476 
Q 2825 3281 2825 3056 
Q 2825 2859 2787 2668 
Q 2750 2478 2631 2258 
Q 2513 2038 2297 1770 
Q 2081 1503 1725 1150 
L 1253 666 
L 2847 666 
Q 2878 666 2904 647 
Q 2931 628 2950 589 
Q 2969 550 2978 486 
Q 2988 422 2988 334 
z
" transform="scale(0.015625)"/>
       </defs>
       <use xlink:href="#Calibri-Bold-32"/>
       <use xlink:href="#Calibri-Bold-30" transform="translate(50.683594 0)"/>
       <use xlink:href="#Calibri-Bold-30" transform="translate(101.367188 0)"/>
      </g>
     </g>
    </g>
    <g id="xtick_3">
     <g id="line2d_3">
      <g>
       <use xlink:href="#m83e86a3b16" x="238.255809" y="258.370279" style="stroke: #000000; stroke-width: 2"/>
      </g>
     </g>
     <g id="text_3">
      <!-- 400 -->
      <g transform="translate(226.851121 275.565591) scale(0.15 -0.15)">
       <defs>
        <path id="Calibri-Bold-34" d="M 3113 1163 
Q 3113 1003 3080 920 
Q 3047 838 2991 838 
L 2631 838 
L 2631 106 
Q 2631 75 2612 51 
Q 2594 28 2547 12 
Q 2500 -3 2425 -11 
Q 2350 -19 2231 -19 
Q 2119 -19 2042 -11 
Q 1966 -3 1920 12 
Q 1875 28 1858 51 
Q 1841 75 1841 106 
L 1841 838 
L 294 838 
Q 250 838 215 848 
Q 181 859 157 898 
Q 134 938 123 1011 
Q 113 1084 113 1206 
Q 113 1306 117 1379 
Q 122 1453 133 1512 
Q 144 1572 164 1625 
Q 184 1678 216 1738 
L 1472 3953 
Q 1488 3981 1525 4001 
Q 1563 4022 1630 4036 
Q 1697 4050 1800 4056 
Q 1903 4063 2050 4063 
Q 2209 4063 2321 4055 
Q 2434 4047 2501 4030 
Q 2569 4013 2600 3988 
Q 2631 3963 2631 3928 
L 2631 1494 
L 2991 1494 
Q 3041 1494 3077 1417 
Q 3113 1341 3113 1163 
z
M 1841 3353 
L 1834 3353 
L 769 1494 
L 1841 1494 
L 1841 3353 
z
" transform="scale(0.015625)"/>
       </defs>
       <use xlink:href="#Calibri-Bold-34"/>
       <use xlink:href="#Calibri-Bold-30" transform="translate(50.683594 0)"/>
       <use xlink:href="#Calibri-Bold-30" transform="translate(101.367188 0)"/>
      </g>
     </g>
    </g>
    <g id="xtick_4">
     <g id="line2d_4">
      <g>
       <use xlink:href="#m83e86a3b16" x="333.285754" y="258.370279" style="stroke: #000000; stroke-width: 2"/>
      </g>
     </g>
     <g id="text_4">
      <!-- 600 -->
      <g transform="translate(321.881067 275.565591) scale(0.15 -0.15)">
       <defs>
        <path id="Calibri-Bold-36" d="M 3050 1350 
Q 3050 1044 2956 783 
Q 2863 522 2681 333 
Q 2500 144 2234 36 
Q 1969 -72 1622 -72 
Q 1341 -72 1131 -8 
Q 922 56 769 176 
Q 616 297 519 469 
Q 422 641 364 856 
Q 306 1072 284 1325 
Q 263 1578 263 1863 
Q 263 2100 286 2359 
Q 309 2619 376 2869 
Q 444 3119 566 3345 
Q 688 3572 880 3742 
Q 1072 3913 1345 4013 
Q 1619 4113 1994 4113 
Q 2113 4113 2233 4098 
Q 2353 4084 2456 4062 
Q 2559 4041 2631 4012 
Q 2703 3984 2726 3964 
Q 2750 3944 2762 3919 
Q 2775 3894 2783 3864 
Q 2791 3834 2794 3790 
Q 2797 3747 2797 3684 
Q 2797 3588 2792 3523 
Q 2788 3459 2775 3423 
Q 2763 3388 2741 3372 
Q 2719 3356 2688 3356 
Q 2650 3356 2590 3376 
Q 2531 3397 2447 3422 
Q 2363 3447 2248 3465 
Q 2134 3484 1984 3484 
Q 1731 3484 1556 3390 
Q 1381 3297 1272 3136 
Q 1163 2975 1113 2762 
Q 1063 2550 1059 2313 
Q 1128 2356 1217 2400 
Q 1306 2444 1411 2475 
Q 1516 2506 1637 2526 
Q 1759 2547 1897 2547 
Q 2203 2547 2422 2462 
Q 2641 2378 2780 2222 
Q 2919 2066 2984 1844 
Q 3050 1622 3050 1350 
z
M 2244 1272 
Q 2244 1431 2216 1551 
Q 2188 1672 2125 1755 
Q 2063 1838 1959 1880 
Q 1856 1922 1709 1922 
Q 1622 1922 1537 1906 
Q 1453 1891 1372 1862 
Q 1291 1834 1216 1795 
Q 1141 1756 1075 1713 
Q 1075 1378 1112 1154 
Q 1150 931 1223 800 
Q 1297 669 1408 614 
Q 1519 559 1666 559 
Q 1809 559 1917 612 
Q 2025 666 2097 762 
Q 2169 859 2206 989 
Q 2244 1119 2244 1272 
z
" transform="scale(0.015625)"/>
       </defs>
       <use xlink:href="#Calibri-Bold-36"/>
       <use xlink:href="#Calibri-Bold-30" transform="translate(50.683594 0)"/>
       <use xlink:href="#Calibri-Bold-30" transform="translate(101.367188 0)"/>
      </g>
     </g>
    </g>
   </g>
   <g id="matplotlib.axis_2">
    <g id="ytick_1">
     <g id="line2d_5">
      <defs>
       <path id="mf45114b67d" d="M 0 0 
L -3.5 0 
" style="stroke: #000000; stroke-width: 2"/>
      </defs>
      <g>
       <use xlink:href="#mf45114b67d" x="48.195918" y="256.171543" style="stroke: #000000; stroke-width: 2"/>
      </g>
     </g>
     <g id="text_5">
      <!-- 4 -->
      <g transform="translate(33.592793 261.269199) scale(0.15 -0.15)">
       <use xlink:href="#Calibri-Bold-34"/>
      </g>
     </g>
    </g>
    <g id="ytick_2">
     <g id="line2d_6">
      <g>
       <use xlink:href="#mf45114b67d" x="48.195918" y="212.196832" style="stroke: #000000; stroke-width: 2"/>
      </g>
     </g>
     <g id="text_6">
      <!-- 6 -->
      <g transform="translate(33.592793 217.294489) scale(0.15 -0.15)">
       <use xlink:href="#Calibri-Bold-36"/>
      </g>
     </g>
    </g>
    <g id="ytick_3">
     <g id="line2d_7">
      <g>
       <use xlink:href="#mf45114b67d" x="48.195918" y="168.222122" style="stroke: #000000; stroke-width: 2"/>
      </g>
     </g>
     <g id="text_7">
      <!-- 8 -->
      <g transform="translate(33.592793 173.319778) scale(0.15 -0.15)">
       <defs>
        <path id="Calibri-Bold-38" d="M 3050 1084 
Q 3050 809 2954 593 
Q 2859 378 2673 229 
Q 2488 81 2213 4 
Q 1938 -72 1578 -72 
Q 1234 -72 975 -3 
Q 716 66 541 198 
Q 366 331 278 526 
Q 191 722 191 975 
Q 191 1147 242 1298 
Q 294 1450 395 1579 
Q 497 1709 648 1823 
Q 800 1938 997 2041 
Q 838 2128 709 2229 
Q 581 2331 490 2451 
Q 400 2572 353 2715 
Q 306 2859 306 3028 
Q 306 3272 392 3470 
Q 478 3669 648 3814 
Q 819 3959 1075 4037 
Q 1331 4116 1669 4116 
Q 2003 4116 2242 4044 
Q 2481 3972 2634 3840 
Q 2788 3709 2861 3526 
Q 2934 3344 2934 3122 
Q 2934 2975 2886 2836 
Q 2838 2697 2750 2572 
Q 2663 2447 2534 2336 
Q 2406 2225 2244 2134 
Q 2434 2034 2584 1921 
Q 2734 1809 2837 1679 
Q 2941 1550 2995 1403 
Q 3050 1256 3050 1084 
z
M 2144 3047 
Q 2144 3156 2112 3243 
Q 2081 3331 2014 3392 
Q 1947 3453 1848 3484 
Q 1750 3516 1616 3516 
Q 1353 3516 1225 3395 
Q 1097 3275 1097 3063 
Q 1097 2963 1130 2878 
Q 1163 2794 1231 2719 
Q 1300 2644 1409 2572 
Q 1519 2500 1669 2419 
Q 1897 2553 2020 2706 
Q 2144 2859 2144 3047 
z
M 2238 1028 
Q 2238 1144 2198 1239 
Q 2159 1334 2076 1418 
Q 1994 1503 1869 1581 
Q 1744 1659 1578 1741 
Q 1434 1663 1325 1584 
Q 1216 1506 1144 1420 
Q 1072 1334 1036 1239 
Q 1000 1144 1000 1034 
Q 1000 791 1158 662 
Q 1316 534 1628 534 
Q 1934 534 2086 665 
Q 2238 797 2238 1028 
z
" transform="scale(0.015625)"/>
       </defs>
       <use xlink:href="#Calibri-Bold-38"/>
      </g>
     </g>
    </g>
    <g id="ytick_4">
     <g id="line2d_8">
      <g>
       <use xlink:href="#mf45114b67d" x="48.195918" y="124.247411" style="stroke: #000000; stroke-width: 2"/>
      </g>
     </g>
     <g id="text_8">
      <!-- 10 -->
      <g transform="translate(25.989668 129.345067) scale(0.15 -0.15)">
       <defs>
        <path id="Calibri-Bold-31" d="M 2950 313 
Q 2950 225 2940 164 
Q 2931 103 2914 67 
Q 2897 31 2875 15 
Q 2853 0 2825 0 
L 594 0 
Q 569 0 547 15 
Q 525 31 508 67 
Q 491 103 481 164 
Q 472 225 472 313 
Q 472 403 480 464 
Q 488 525 505 562 
Q 522 600 544 617 
Q 566 634 594 634 
L 1347 634 
L 1347 3266 
L 697 2906 
Q 625 2872 579 2864 
Q 534 2856 507 2882 
Q 481 2909 472 2975 
Q 463 3041 463 3159 
Q 463 3234 466 3282 
Q 469 3331 481 3365 
Q 494 3400 516 3422 
Q 538 3444 575 3469 
L 1444 4031 
Q 1459 4044 1482 4051 
Q 1506 4059 1543 4064 
Q 1581 4069 1642 4070 
Q 1703 4072 1800 4072 
Q 1919 4072 1992 4067 
Q 2066 4063 2103 4052 
Q 2141 4041 2153 4022 
Q 2166 4003 2166 3975 
L 2166 634 
L 2825 634 
Q 2853 634 2876 617 
Q 2900 600 2917 562 
Q 2934 525 2942 464 
Q 2950 403 2950 313 
z
" transform="scale(0.015625)"/>
       </defs>
       <use xlink:href="#Calibri-Bold-31"/>
       <use xlink:href="#Calibri-Bold-30" transform="translate(50.683594 0)"/>
      </g>
     </g>
    </g>
    <g id="ytick_5">
     <g id="line2d_9">
      <g>
       <use xlink:href="#mf45114b67d" x="48.195918" y="80.2727" style="stroke: #000000; stroke-width: 2"/>
      </g>
     </g>
     <g id="text_9">
      <!-- 12 -->
      <g transform="translate(25.989668 85.370356) scale(0.15 -0.15)">
       <use xlink:href="#Calibri-Bold-31"/>
       <use xlink:href="#Calibri-Bold-32" transform="translate(50.683594 0)"/>
      </g>
     </g>
    </g>
    <g id="ytick_6">
     <g id="line2d_10">
      <g>
       <use xlink:href="#mf45114b67d" x="48.195918" y="36.297989" style="stroke: #000000; stroke-width: 2"/>
      </g>
     </g>
     <g id="text_10">
      <!-- 14 -->
      <g transform="translate(25.989668 41.395646) scale(0.15 -0.15)">
       <use xlink:href="#Calibri-Bold-31"/>
       <use xlink:href="#Calibri-Bold-34" transform="translate(50.683594 0)"/>
      </g>
     </g>
    </g>
    <g id="text_11">
     <!-- Glucose (mmol/L) -->
     <g transform="translate(19.331856 202.75679) rotate(-90) scale(0.15 -0.15)">
      <defs>
       <path id="Calibri-Bold-47" d="M 3684 3416 
Q 3684 3325 3676 3259 
Q 3669 3194 3655 3155 
Q 3641 3116 3620 3100 
Q 3600 3084 3572 3084 
Q 3531 3084 3440 3140 
Q 3350 3197 3200 3262 
Q 3050 3328 2842 3384 
Q 2634 3441 2359 3441 
Q 2066 3441 1828 3339 
Q 1591 3238 1422 3052 
Q 1253 2866 1162 2605 
Q 1072 2344 1072 2028 
Q 1072 1681 1164 1417 
Q 1256 1153 1422 975 
Q 1588 797 1820 706 
Q 2053 616 2334 616 
Q 2472 616 2606 647 
Q 2741 678 2856 741 
L 2856 1678 
L 2091 1678 
Q 2034 1678 2003 1748 
Q 1972 1819 1972 1988 
Q 1972 2075 1980 2134 
Q 1988 2194 2003 2230 
Q 2019 2266 2041 2283 
Q 2063 2300 2091 2300 
L 3456 2300 
Q 3506 2300 3545 2283 
Q 3584 2266 3614 2231 
Q 3644 2197 3659 2148 
Q 3675 2100 3675 2038 
L 3675 428 
Q 3675 334 3642 264 
Q 3609 194 3507 153 
Q 3406 113 3256 69 
Q 3106 25 2945 -6 
Q 2784 -38 2620 -53 
Q 2456 -69 2291 -69 
Q 1806 -69 1423 70 
Q 1041 209 775 473 
Q 509 738 368 1117 
Q 228 1497 228 1978 
Q 228 2475 378 2870 
Q 528 3266 803 3542 
Q 1078 3819 1467 3966 
Q 1856 4113 2334 4113 
Q 2597 4113 2812 4077 
Q 3028 4041 3189 3989 
Q 3350 3938 3456 3878 
Q 3563 3819 3605 3775 
Q 3647 3731 3665 3651 
Q 3684 3572 3684 3416 
z
" transform="scale(0.015625)"/>
       <path id="Calibri-Bold-6c" d="M 1181 106 
Q 1181 75 1162 51 
Q 1144 28 1098 12 
Q 1053 -3 978 -11 
Q 903 -19 788 -19 
Q 672 -19 597 -11 
Q 522 -3 476 12 
Q 431 28 412 51 
Q 394 75 394 106 
L 394 4216 
Q 394 4247 412 4272 
Q 431 4297 476 4314 
Q 522 4331 597 4340 
Q 672 4350 788 4350 
Q 903 4350 978 4340 
Q 1053 4331 1098 4314 
Q 1144 4297 1162 4272 
Q 1181 4247 1181 4216 
L 1181 106 
z
" transform="scale(0.015625)"/>
       <path id="Calibri-Bold-75" d="M 3038 106 
Q 3038 75 3022 51 
Q 3006 28 2967 12 
Q 2928 -3 2864 -11 
Q 2800 -19 2703 -19 
Q 2600 -19 2536 -11 
Q 2472 -3 2434 12 
Q 2397 28 2381 51 
Q 2366 75 2366 106 
L 2366 428 
Q 2134 178 1895 53 
Q 1656 -72 1400 -72 
Q 1113 -72 917 22 
Q 722 116 601 278 
Q 481 441 429 655 
Q 378 869 378 1188 
L 378 2894 
Q 378 2925 395 2948 
Q 413 2972 458 2987 
Q 503 3003 579 3011 
Q 656 3019 769 3019 
Q 884 3019 959 3011 
Q 1034 3003 1079 2987 
Q 1125 2972 1144 2948 
Q 1163 2925 1163 2894 
L 1163 1319 
Q 1163 1100 1191 984 
Q 1219 869 1276 786 
Q 1334 703 1423 658 
Q 1513 613 1631 613 
Q 1781 613 1932 722 
Q 2084 831 2256 1041 
L 2256 2894 
Q 2256 2925 2273 2948 
Q 2291 2972 2336 2987 
Q 2381 3003 2456 3011 
Q 2531 3019 2647 3019 
Q 2763 3019 2838 3011 
Q 2913 3003 2956 2987 
Q 3000 2972 3019 2948 
Q 3038 2925 3038 2894 
L 3038 106 
z
" transform="scale(0.015625)"/>
       <path id="Calibri-Bold-63" d="M 2503 550 
Q 2503 469 2498 414 
Q 2494 359 2486 321 
Q 2478 284 2467 261 
Q 2456 238 2418 202 
Q 2381 166 2290 114 
Q 2200 63 2084 22 
Q 1969 -19 1833 -44 
Q 1697 -69 1553 -69 
Q 1231 -69 982 31 
Q 734 131 565 326 
Q 397 522 311 803 
Q 225 1084 225 1447 
Q 225 1866 329 2170 
Q 434 2475 621 2675 
Q 809 2875 1065 2972 
Q 1322 3069 1628 3069 
Q 1753 3069 1873 3047 
Q 1994 3025 2098 2987 
Q 2203 2950 2286 2903 
Q 2369 2856 2403 2822 
Q 2438 2788 2452 2764 
Q 2466 2741 2473 2703 
Q 2481 2666 2486 2611 
Q 2491 2556 2491 2478 
Q 2491 2297 2459 2223 
Q 2428 2150 2378 2150 
Q 2325 2150 2265 2194 
Q 2206 2238 2125 2291 
Q 2044 2344 1931 2387 
Q 1819 2431 1663 2431 
Q 1356 2431 1193 2195 
Q 1031 1959 1031 1503 
Q 1031 1278 1072 1106 
Q 1113 934 1192 818 
Q 1272 703 1392 645 
Q 1513 588 1672 588 
Q 1834 588 1951 636 
Q 2069 684 2156 743 
Q 2244 803 2303 851 
Q 2363 900 2403 900 
Q 2431 900 2450 884 
Q 2469 869 2480 826 
Q 2491 784 2497 718 
Q 2503 653 2503 550 
z
" transform="scale(0.015625)"/>
       <path id="Calibri-Bold-6f" d="M 3213 1528 
Q 3213 1172 3119 878 
Q 3025 584 2834 371 
Q 2644 159 2356 43 
Q 2069 -72 1684 -72 
Q 1313 -72 1038 31 
Q 763 134 581 331 
Q 400 528 312 815 
Q 225 1103 225 1472 
Q 225 1828 320 2123 
Q 416 2419 606 2630 
Q 797 2841 1083 2956 
Q 1369 3072 1753 3072 
Q 2128 3072 2403 2970 
Q 2678 2869 2858 2672 
Q 3038 2475 3125 2187 
Q 3213 1900 3213 1528 
z
M 2403 1497 
Q 2403 1703 2370 1876 
Q 2338 2050 2259 2178 
Q 2181 2306 2051 2378 
Q 1922 2450 1725 2450 
Q 1550 2450 1419 2386 
Q 1288 2322 1203 2198 
Q 1119 2075 1076 1901 
Q 1034 1728 1034 1506 
Q 1034 1300 1068 1126 
Q 1103 953 1179 825 
Q 1256 697 1387 626 
Q 1519 556 1713 556 
Q 1891 556 2022 620 
Q 2153 684 2237 806 
Q 2322 928 2362 1101 
Q 2403 1275 2403 1497 
z
" transform="scale(0.015625)"/>
       <path id="Calibri-Bold-73" d="M 2356 894 
Q 2356 656 2267 475 
Q 2178 294 2015 172 
Q 1853 50 1631 -11 
Q 1409 -72 1150 -72 
Q 994 -72 851 -48 
Q 709 -25 596 11 
Q 484 47 409 84 
Q 334 122 300 155 
Q 266 188 247 258 
Q 228 328 228 466 
Q 228 556 234 611 
Q 241 666 253 698 
Q 266 731 284 742 
Q 303 753 331 753 
Q 366 753 433 714 
Q 500 675 600 628 
Q 700 581 833 540 
Q 966 500 1134 500 
Q 1241 500 1323 522 
Q 1406 544 1467 584 
Q 1528 625 1559 687 
Q 1591 750 1591 831 
Q 1591 925 1533 992 
Q 1475 1059 1379 1109 
Q 1284 1159 1164 1203 
Q 1044 1247 917 1300 
Q 791 1353 670 1422 
Q 550 1491 454 1591 
Q 359 1691 301 1831 
Q 244 1972 244 2169 
Q 244 2369 322 2536 
Q 400 2703 547 2822 
Q 694 2941 905 3006 
Q 1116 3072 1378 3072 
Q 1509 3072 1632 3053 
Q 1756 3034 1856 3006 
Q 1956 2978 2025 2945 
Q 2094 2913 2123 2889 
Q 2153 2866 2165 2842 
Q 2178 2819 2184 2786 
Q 2191 2753 2195 2704 
Q 2200 2656 2200 2584 
Q 2200 2500 2195 2447 
Q 2191 2394 2180 2362 
Q 2169 2331 2150 2320 
Q 2131 2309 2106 2309 
Q 2078 2309 2018 2342 
Q 1959 2375 1870 2412 
Q 1781 2450 1664 2483 
Q 1547 2516 1397 2516 
Q 1291 2516 1212 2494 
Q 1134 2472 1084 2431 
Q 1034 2391 1009 2336 
Q 984 2281 984 2219 
Q 984 2122 1043 2056 
Q 1103 1991 1200 1941 
Q 1297 1891 1420 1847 
Q 1544 1803 1670 1751 
Q 1797 1700 1920 1631 
Q 2044 1563 2141 1463 
Q 2238 1363 2297 1223 
Q 2356 1084 2356 894 
z
" transform="scale(0.015625)"/>
       <path id="Calibri-Bold-65" d="M 2969 1581 
Q 2969 1438 2905 1369 
Q 2841 1300 2728 1300 
L 1031 1300 
Q 1031 1122 1073 976 
Q 1116 831 1208 729 
Q 1300 628 1445 575 
Q 1591 522 1794 522 
Q 2000 522 2156 551 
Q 2313 581 2427 617 
Q 2541 653 2616 683 
Q 2691 713 2738 713 
Q 2766 713 2784 702 
Q 2803 691 2815 662 
Q 2828 634 2833 582 
Q 2838 531 2838 453 
Q 2838 384 2834 336 
Q 2831 288 2825 253 
Q 2819 219 2806 195 
Q 2794 172 2773 150 
Q 2753 128 2662 90 
Q 2572 53 2431 17 
Q 2291 -19 2109 -45 
Q 1928 -72 1722 -72 
Q 1350 -72 1070 22 
Q 791 116 603 306 
Q 416 497 323 787 
Q 231 1078 231 1469 
Q 231 1841 328 2139 
Q 425 2438 609 2645 
Q 794 2853 1058 2962 
Q 1322 3072 1653 3072 
Q 2003 3072 2251 2969 
Q 2500 2866 2659 2683 
Q 2819 2500 2894 2250 
Q 2969 2000 2969 1706 
L 2969 1581 
z
M 2206 1806 
Q 2216 2138 2073 2327 
Q 1931 2516 1634 2516 
Q 1484 2516 1373 2459 
Q 1263 2403 1189 2308 
Q 1116 2213 1077 2083 
Q 1038 1953 1031 1806 
L 2206 1806 
z
" transform="scale(0.015625)"/>
       <path id="Calibri-Bold-20" transform="scale(0.015625)"/>
       <path id="Calibri-Bold-28" d="M 1672 4275 
Q 1409 3666 1275 3017 
Q 1141 2369 1141 1688 
Q 1141 1003 1277 357 
Q 1413 -288 1669 -906 
Q 1688 -956 1688 -992 
Q 1688 -1028 1653 -1053 
Q 1619 -1078 1548 -1090 
Q 1478 -1103 1353 -1103 
Q 1266 -1103 1203 -1097 
Q 1141 -1091 1098 -1080 
Q 1056 -1069 1032 -1051 
Q 1009 -1034 1000 -1013 
Q 831 -688 706 -358 
Q 581 -28 498 308 
Q 416 644 375 986 
Q 334 1328 334 1681 
Q 334 2031 376 2373 
Q 419 2716 503 3052 
Q 588 3388 711 3719 
Q 834 4050 1000 4378 
Q 1006 4394 1025 4406 
Q 1044 4419 1081 4430 
Q 1119 4441 1183 4445 
Q 1247 4450 1347 4450 
Q 1459 4450 1531 4439 
Q 1603 4428 1640 4406 
Q 1678 4384 1683 4350 
Q 1688 4316 1672 4275 
z
" transform="scale(0.015625)"/>
       <path id="Calibri-Bold-6d" d="M 4828 106 
Q 4828 75 4809 51 
Q 4791 28 4747 12 
Q 4703 -3 4628 -11 
Q 4553 -19 4438 -19 
Q 4319 -19 4244 -11 
Q 4169 -3 4123 12 
Q 4078 28 4061 51 
Q 4044 75 4044 106 
L 4044 1759 
Q 4044 1900 4017 2015 
Q 3991 2131 3936 2214 
Q 3881 2297 3798 2342 
Q 3716 2388 3600 2388 
Q 3459 2388 3315 2278 
Q 3172 2169 3003 1959 
L 3003 106 
Q 3003 75 2984 51 
Q 2966 28 2920 12 
Q 2875 -3 2800 -11 
Q 2725 -19 2613 -19 
Q 2497 -19 2422 -11 
Q 2347 -3 2301 12 
Q 2256 28 2237 51 
Q 2219 75 2219 106 
L 2219 1759 
Q 2219 1900 2192 2015 
Q 2166 2131 2112 2214 
Q 2059 2297 1975 2342 
Q 1891 2388 1778 2388 
Q 1634 2388 1490 2278 
Q 1347 2169 1181 1959 
L 1181 106 
Q 1181 75 1162 51 
Q 1144 28 1098 12 
Q 1053 -3 978 -11 
Q 903 -19 788 -19 
Q 672 -19 597 -11 
Q 522 -3 476 12 
Q 431 28 412 51 
Q 394 75 394 106 
L 394 2894 
Q 394 2925 409 2948 
Q 425 2972 465 2987 
Q 506 3003 570 3011 
Q 634 3019 731 3019 
Q 831 3019 897 3011 
Q 963 3003 998 2987 
Q 1034 2972 1050 2948 
Q 1066 2925 1066 2894 
L 1066 2572 
Q 1297 2822 1526 2947 
Q 1756 3072 2006 3072 
Q 2178 3072 2315 3036 
Q 2453 3000 2561 2933 
Q 2669 2866 2747 2772 
Q 2825 2678 2878 2563 
Q 3003 2697 3123 2794 
Q 3244 2891 3361 2952 
Q 3478 3013 3595 3042 
Q 3713 3072 3834 3072 
Q 4113 3072 4303 2978 
Q 4494 2884 4611 2723 
Q 4728 2563 4778 2347 
Q 4828 2131 4828 1891 
L 4828 106 
z
" transform="scale(0.015625)"/>
       <path id="Calibri-Bold-2f" d="M 788 -809 
Q 772 -850 747 -875 
Q 722 -900 676 -915 
Q 631 -931 564 -939 
Q 497 -947 394 -947 
Q 266 -947 184 -934 
Q 103 -922 61 -897 
Q 19 -872 12 -833 
Q 6 -794 25 -741 
L 1894 4506 
Q 1906 4547 1931 4573 
Q 1956 4600 2000 4615 
Q 2044 4631 2114 4639 
Q 2184 4647 2284 4647 
Q 2416 4647 2495 4634 
Q 2575 4622 2615 4597 
Q 2656 4572 2662 4533 
Q 2669 4494 2653 4441 
L 788 -809 
z
" transform="scale(0.015625)"/>
       <path id="Calibri-Bold-4c" d="M 2663 344 
Q 2663 250 2655 186 
Q 2647 122 2631 80 
Q 2616 38 2592 19 
Q 2569 0 2538 0 
L 684 0 
Q 581 0 511 61 
Q 441 122 441 259 
L 441 3931 
Q 441 3963 461 3988 
Q 481 4013 528 4028 
Q 575 4044 654 4053 
Q 734 4063 853 4063 
Q 975 4063 1053 4053 
Q 1131 4044 1178 4028 
Q 1225 4013 1245 3988 
Q 1266 3963 1266 3931 
L 1266 678 
L 2538 678 
Q 2569 678 2592 661 
Q 2616 644 2631 605 
Q 2647 566 2655 502 
Q 2663 438 2663 344 
z
" transform="scale(0.015625)"/>
       <path id="Calibri-Bold-29" d="M 1656 1681 
Q 1656 1328 1615 986 
Q 1575 644 1492 308 
Q 1409 -28 1286 -358 
Q 1163 -688 994 -1013 
Q 984 -1034 961 -1051 
Q 938 -1069 895 -1080 
Q 853 -1091 790 -1097 
Q 728 -1103 641 -1103 
Q 513 -1103 442 -1090 
Q 372 -1078 337 -1053 
Q 303 -1028 303 -992 
Q 303 -956 322 -906 
Q 581 -294 717 354 
Q 853 1003 853 1688 
Q 853 2369 718 3017 
Q 584 3666 319 4275 
Q 303 4316 308 4350 
Q 313 4384 352 4406 
Q 391 4428 461 4439 
Q 531 4450 647 4450 
Q 744 4450 806 4445 
Q 869 4441 909 4430 
Q 950 4419 967 4406 
Q 984 4394 994 4378 
Q 1319 3722 1487 3051 
Q 1656 2381 1656 1681 
z
" transform="scale(0.015625)"/>
      </defs>
      <use xlink:href="#Calibri-Bold-47"/>
      <use xlink:href="#Calibri-Bold-6c" transform="translate(63.720703 0)"/>
      <use xlink:href="#Calibri-Bold-75" transform="translate(88.28125 0)"/>
      <use xlink:href="#Calibri-Bold-63" transform="translate(141.943359 0)"/>
      <use xlink:href="#Calibri-Bold-6f" transform="translate(183.789062 0)"/>
      <use xlink:href="#Calibri-Bold-73" transform="translate(237.548828 0)"/>
      <use xlink:href="#Calibri-Bold-65" transform="translate(277.441406 0)"/>
      <use xlink:href="#Calibri-Bold-20" transform="translate(327.783203 0)"/>
      <use xlink:href="#Calibri-Bold-28" transform="translate(350.390625 0)"/>
      <use xlink:href="#Calibri-Bold-6d" transform="translate(381.542969 0)"/>
      <use xlink:href="#Calibri-Bold-6d" transform="translate(462.890625 0)"/>
      <use xlink:href="#Calibri-Bold-6f" transform="translate(544.238281 0)"/>
      <use xlink:href="#Calibri-Bold-6c" transform="translate(597.998047 0)"/>
      <use xlink:href="#Calibri-Bold-2f" transform="translate(622.558594 0)"/>
      <use xlink:href="#Calibri-Bold-4c" transform="translate(665.527344 0)"/>
      <use xlink:href="#Calibri-Bold-29" transform="translate(707.8125 0)"/>
     </g>
    </g>
   </g>
   <g id="line2d_11">
    <path d="M 48.195918 203.57619 
L 56.748613 203.642658 
L 58.174063 203.836674 
L 59.599512 204.24334 
L 61.97526 205.261484 
L 63.40071 205.748065 
L 64.351009 205.799091 
L 65.301309 205.479117 
L 65.776458 205.137722 
L 66.726758 204.016092 
L 67.677057 202.236691 
L 68.627357 199.752945 
L 69.577656 196.562988 
L 70.527955 192.703955 
L 71.953405 185.820435 
L 73.854004 175.156788 
L 78.605501 147.504892 
L 80.5061 138.229132 
L 81.931549 132.270748 
L 83.356998 127.14669 
L 84.782447 122.785836 
L 86.207896 119.100189 
L 87.633346 116.002555 
L 89.058795 113.415451 
L 90.484244 111.274179 
L 91.909693 109.526587 
L 93.335142 108.13128 
L 94.760592 107.055357 
L 96.186041 106.27224 
L 97.61149 105.759846 
L 99.036939 105.499165 
L 100.462388 105.473214 
L 101.887837 105.666304 
L 103.313287 106.063556 
L 104.738736 106.650581 
L 106.639335 107.704152 
L 108.539934 109.037061 
L 110.440532 110.616409 
L 112.816281 112.886369 
L 115.667179 115.954394 
L 119.468377 120.414507 
L 125.170174 127.129569 
L 128.021072 130.118739 
L 130.396821 132.311014 
L 133.247719 134.635613 
L 139.899816 139.872958 
L 142.750714 142.469113 
L 145.601612 145.367139 
L 148.92766 149.082892 
L 153.204008 154.223193 
L 166.5082 170.468799 
L 170.784548 175.232028 
L 174.585746 179.165785 
L 178.386943 182.796347 
L 182.188141 186.118355 
L 185.989339 189.136255 
L 189.790537 191.861144 
L 193.591735 194.308398 
L 197.392932 196.495917 
L 201.19413 198.442852 
L 205.470478 200.369858 
L 209.746825 202.044364 
L 214.023173 203.492256 
L 218.77467 204.859626 
L 223.526167 205.993343 
L 228.752814 206.996203 
L 233.979461 207.770713 
L 239.681258 208.386529 
L 245.858204 208.81963 
L 252.510301 209.054853 
L 259.637546 209.087303 
L 268.190242 208.891442 
L 278.643536 208.408049 
L 294.798626 207.397534 
L 319.506412 205.873031 
L 335.661503 205.115935 
L 352.291743 204.560752 
L 371.772882 204.142145 
L 389.828571 203.90877 
L 389.828571 203.90877 
" clip-path="url(#p5664a49d98)" style="fill: none; stroke: #000000; stroke-width: 3; stroke-linecap: square"/>
   </g>
   <g id="patch_3">
    <path d="M 48.195918 258.370279 
L 48.195918 36.297989 
" style="fill: none; stroke: #000000; stroke-width: 2; stroke-linejoin: miter; stroke-linecap: square"/>
   </g>
   <g id="patch_4">
    <path d="M 48.195918 258.370279 
L 389.828571 258.370279 
" style="fill: none; stroke: #000000; stroke-width: 2; stroke-linejoin: miter; stroke-linecap: square"/>
   </g>
   <g id="text_12">
    <!-- a -->
    <g transform="translate(7.2 21.473437) scale(0.21 -0.21)">
     <defs>
      <path id="Calibri-Bold-61" d="M 2769 97 
Q 2769 53 2737 28 
Q 2706 3 2639 -8 
Q 2572 -19 2441 -19 
Q 2300 -19 2236 -8 
Q 2172 3 2145 28 
Q 2119 53 2119 97 
L 2119 319 
Q 1947 134 1726 31 
Q 1506 -72 1238 -72 
Q 1016 -72 830 -14 
Q 644 44 508 158 
Q 372 272 297 440 
Q 222 609 222 834 
Q 222 1078 317 1258 
Q 413 1438 602 1555 
Q 791 1672 1072 1728 
Q 1353 1784 1725 1784 
L 1997 1784 
L 1997 1953 
Q 1997 2084 1970 2182 
Q 1944 2281 1883 2347 
Q 1822 2413 1720 2444 
Q 1619 2475 1469 2475 
Q 1272 2475 1117 2431 
Q 963 2388 844 2334 
Q 725 2281 645 2237 
Q 566 2194 516 2194 
Q 481 2194 454 2216 
Q 428 2238 411 2278 
Q 394 2319 384 2378 
Q 375 2438 375 2509 
Q 375 2606 390 2662 
Q 406 2719 450 2764 
Q 494 2809 603 2864 
Q 713 2919 859 2966 
Q 1006 3013 1179 3042 
Q 1353 3072 1538 3072 
Q 1866 3072 2098 3008 
Q 2331 2944 2481 2811 
Q 2631 2678 2700 2468 
Q 2769 2259 2769 1972 
L 2769 97 
z
M 1997 1291 
L 1697 1291 
Q 1506 1291 1372 1262 
Q 1238 1234 1153 1178 
Q 1069 1122 1030 1042 
Q 991 963 991 859 
Q 991 684 1102 584 
Q 1213 484 1409 484 
Q 1575 484 1714 568 
Q 1853 653 1997 816 
L 1997 1291 
z
" transform="scale(0.015625)"/>
     </defs>
     <use xlink:href="#Calibri-Bold-61"/>
    </g>
   </g>
  </g>
  <g id="axes_2">
   <g id="patch_5">
    <path d="M 48.195918 436.02811 
L 389.828571 436.02811 
L 389.828571 324.991965 
L 48.195918 324.991965 
z
" style="fill: #ffffff"/>
   </g>
   <g id="matplotlib.axis_3">
    <g id="xtick_5">
     <g id="line2d_12">
      <g>
       <use xlink:href="#m83e86a3b16" x="48.195918" y="436.02811" style="stroke: #000000; stroke-width: 2"/>
      </g>
     </g>
     <g id="text_13">
      <!-- 0 -->
      <g transform="translate(44.394356 453.223422) scale(0.15 -0.15)">
       <use xlink:href="#Calibri-Bold-30"/>
      </g>
     </g>
    </g>
    <g id="xtick_6">
     <g id="line2d_13">
      <g>
       <use xlink:href="#m83e86a3b16" x="143.225864" y="436.02811" style="stroke: #000000; stroke-width: 2"/>
      </g>
     </g>
     <g id="text_14">
      <!-- 200 -->
      <g transform="translate(131.821176 453.223422) scale(0.15 -0.15)">
       <use xlink:href="#Calibri-Bold-32"/>
       <use xlink:href="#Calibri-Bold-30" transform="translate(50.683594 0)"/>
       <use xlink:href="#Calibri-Bold-30" transform="translate(101.367188 0)"/>
      </g>
     </g>
    </g>
    <g id="xtick_7">
     <g id="line2d_14">
      <g>
       <use xlink:href="#m83e86a3b16" x="238.255809" y="436.02811" style="stroke: #000000; stroke-width: 2"/>
      </g>
     </g>
     <g id="text_15">
      <!-- 400 -->
      <g transform="translate(226.851121 453.223422) scale(0.15 -0.15)">
       <use xlink:href="#Calibri-Bold-34"/>
       <use xlink:href="#Calibri-Bold-30" transform="translate(50.683594 0)"/>
       <use xlink:href="#Calibri-Bold-30" transform="translate(101.367188 0)"/>
      </g>
     </g>
    </g>
    <g id="xtick_8">
     <g id="line2d_15">
      <g>
       <use xlink:href="#m83e86a3b16" x="333.285754" y="436.02811" style="stroke: #000000; stroke-width: 2"/>
      </g>
     </g>
     <g id="text_16">
      <!-- 600 -->
      <g transform="translate(321.881067 453.223422) scale(0.15 -0.15)">
       <use xlink:href="#Calibri-Bold-36"/>
       <use xlink:href="#Calibri-Bold-30" transform="translate(50.683594 0)"/>
       <use xlink:href="#Calibri-Bold-30" transform="translate(101.367188 0)"/>
      </g>
     </g>
    </g>
    <g id="text_17">
     <!-- Time (min) -->
     <g transform="translate(185.243495 470.238266) scale(0.15 -0.15)">
      <defs>
       <path id="Calibri-Bold-54" d="M 3131 3706 
Q 3131 3616 3123 3552 
Q 3116 3488 3100 3448 
Q 3084 3409 3061 3390 
Q 3038 3372 3009 3372 
L 1997 3372 
L 1997 113 
Q 1997 81 1976 56 
Q 1956 31 1909 15 
Q 1863 0 1783 -9 
Q 1703 -19 1584 -19 
Q 1466 -19 1386 -9 
Q 1306 0 1259 15 
Q 1213 31 1192 56 
Q 1172 81 1172 113 
L 1172 3372 
L 159 3372 
Q 128 3372 106 3390 
Q 84 3409 68 3448 
Q 53 3488 45 3552 
Q 38 3616 38 3706 
Q 38 3800 45 3865 
Q 53 3931 68 3970 
Q 84 4009 106 4026 
Q 128 4044 159 4044 
L 3009 4044 
Q 3038 4044 3061 4026 
Q 3084 4009 3100 3970 
Q 3116 3931 3123 3865 
Q 3131 3800 3131 3706 
z
" transform="scale(0.015625)"/>
       <path id="Calibri-Bold-69" d="M 1181 106 
Q 1181 75 1162 51 
Q 1144 28 1098 12 
Q 1053 -3 978 -11 
Q 903 -19 788 -19 
Q 672 -19 597 -11 
Q 522 -3 476 12 
Q 431 28 412 51 
Q 394 75 394 106 
L 394 2888 
Q 394 2919 412 2942 
Q 431 2966 476 2983 
Q 522 3000 597 3009 
Q 672 3019 788 3019 
Q 903 3019 978 3009 
Q 1053 3000 1098 2983 
Q 1144 2966 1162 2942 
Q 1181 2919 1181 2888 
L 1181 106 
z
M 1241 3838 
Q 1241 3600 1144 3509 
Q 1047 3419 784 3419 
Q 519 3419 426 3506 
Q 334 3594 334 3822 
Q 334 4059 429 4151 
Q 525 4244 791 4244 
Q 1053 4244 1147 4155 
Q 1241 4066 1241 3838 
z
" transform="scale(0.015625)"/>
       <path id="Calibri-Bold-6e" d="M 3056 106 
Q 3056 75 3037 51 
Q 3019 28 2975 12 
Q 2931 -3 2854 -11 
Q 2778 -19 2666 -19 
Q 2550 -19 2473 -11 
Q 2397 -3 2353 12 
Q 2309 28 2290 51 
Q 2272 75 2272 106 
L 2272 1697 
Q 2272 1900 2242 2015 
Q 2213 2131 2156 2214 
Q 2100 2297 2011 2342 
Q 1922 2388 1803 2388 
Q 1653 2388 1500 2278 
Q 1347 2169 1181 1959 
L 1181 106 
Q 1181 75 1162 51 
Q 1144 28 1098 12 
Q 1053 -3 978 -11 
Q 903 -19 788 -19 
Q 672 -19 597 -11 
Q 522 -3 476 12 
Q 431 28 412 51 
Q 394 75 394 106 
L 394 2894 
Q 394 2925 409 2948 
Q 425 2972 465 2987 
Q 506 3003 570 3011 
Q 634 3019 731 3019 
Q 831 3019 897 3011 
Q 963 3003 998 2987 
Q 1034 2972 1050 2948 
Q 1066 2925 1066 2894 
L 1066 2572 
Q 1297 2822 1536 2947 
Q 1775 3072 2034 3072 
Q 2319 3072 2514 2978 
Q 2709 2884 2829 2723 
Q 2950 2563 3003 2347 
Q 3056 2131 3056 1828 
L 3056 106 
z
" transform="scale(0.015625)"/>
      </defs>
      <use xlink:href="#Calibri-Bold-54"/>
      <use xlink:href="#Calibri-Bold-69" transform="translate(49.511719 0)"/>
      <use xlink:href="#Calibri-Bold-6d" transform="translate(74.072266 0)"/>
      <use xlink:href="#Calibri-Bold-65" transform="translate(155.419922 0)"/>
      <use xlink:href="#Calibri-Bold-20" transform="translate(205.761719 0)"/>
      <use xlink:href="#Calibri-Bold-28" transform="translate(228.369141 0)"/>
      <use xlink:href="#Calibri-Bold-6d" transform="translate(259.521484 0)"/>
      <use xlink:href="#Calibri-Bold-69" transform="translate(340.869141 0)"/>
      <use xlink:href="#Calibri-Bold-6e" transform="translate(365.429688 0)"/>
      <use xlink:href="#Calibri-Bold-29" transform="translate(419.091797 0)"/>
     </g>
    </g>
   </g>
   <g id="matplotlib.axis_4">
    <g id="ytick_7">
     <g id="line2d_16">
      <g>
       <use xlink:href="#mf45114b67d" x="48.195918" y="431.468473" style="stroke: #000000; stroke-width: 2"/>
      </g>
     </g>
     <g id="text_18">
      <!-- 2 -->
      <g style="fill: #2596be" transform="translate(33.592793 436.566129) scale(0.15 -0.15)">
       <use xlink:href="#Calibri-Bold-32"/>
      </g>
     </g>
    </g>
    <g id="ytick_8">
     <g id="line2d_17">
      <g>
       <use xlink:href="#mf45114b67d" x="48.195918" y="382.610956" style="stroke: #000000; stroke-width: 2"/>
      </g>
     </g>
     <g id="text_19">
      <!-- 4 -->
      <g style="fill: #2596be" transform="translate(33.592793 387.708613) scale(0.15 -0.15)">
       <use xlink:href="#Calibri-Bold-34"/>
      </g>
     </g>
    </g>
    <g id="ytick_9">
     <g id="line2d_18">
      <g>
       <use xlink:href="#mf45114b67d" x="48.195918" y="333.75344" style="stroke: #000000; stroke-width: 2"/>
      </g>
     </g>
     <g id="text_20">
      <!-- 6 -->
      <g style="fill: #2596be" transform="translate(33.592793 338.851096) scale(0.15 -0.15)">
       <use xlink:href="#Calibri-Bold-36"/>
      </g>
     </g>
    </g>
    <g id="text_21">
     <!-- IOB (U) -->
     <g style="fill: #2596be" transform="translate(26.934981 403.051053) rotate(-90) scale(0.15 -0.15)">
      <defs>
       <path id="Calibri-Bold-49" d="M 1266 113 
Q 1266 81 1245 56 
Q 1225 31 1178 15 
Q 1131 0 1053 -9 
Q 975 -19 853 -19 
Q 734 -19 654 -9 
Q 575 0 528 15 
Q 481 31 461 56 
Q 441 81 441 113 
L 441 3931 
Q 441 3963 461 3988 
Q 481 4013 529 4028 
Q 578 4044 656 4053 
Q 734 4063 853 4063 
Q 975 4063 1053 4053 
Q 1131 4044 1178 4028 
Q 1225 4013 1245 3988 
Q 1266 3963 1266 3931 
L 1266 113 
z
" transform="scale(0.015625)"/>
       <path id="Calibri-Bold-4f" d="M 4078 2069 
Q 4078 1566 3953 1169 
Q 3828 772 3581 495 
Q 3334 219 2970 73 
Q 2606 -72 2128 -72 
Q 1656 -72 1304 51 
Q 953 175 718 428 
Q 484 681 367 1072 
Q 250 1463 250 1997 
Q 250 2488 375 2880 
Q 500 3272 747 3547 
Q 994 3822 1358 3969 
Q 1722 4116 2203 4116 
Q 2663 4116 3014 3994 
Q 3366 3872 3602 3619 
Q 3838 3366 3958 2980 
Q 4078 2594 4078 2069 
z
M 3216 2025 
Q 3216 2344 3166 2605 
Q 3116 2866 2995 3052 
Q 2875 3238 2675 3339 
Q 2475 3441 2175 3441 
Q 1872 3441 1669 3327 
Q 1466 3213 1341 3022 
Q 1216 2831 1164 2576 
Q 1113 2322 1113 2038 
Q 1113 1706 1163 1442 
Q 1213 1178 1331 990 
Q 1450 803 1650 704 
Q 1850 606 2153 606 
Q 2456 606 2659 718 
Q 2863 831 2988 1025 
Q 3113 1219 3164 1476 
Q 3216 1734 3216 2025 
z
" transform="scale(0.015625)"/>
       <path id="Calibri-Bold-42" d="M 3369 1213 
Q 3369 997 3309 822 
Q 3250 647 3145 512 
Q 3041 378 2895 281 
Q 2750 184 2575 121 
Q 2400 59 2201 29 
Q 2003 0 1759 0 
L 684 0 
Q 581 0 511 61 
Q 441 122 441 259 
L 441 3784 
Q 441 3922 511 3983 
Q 581 4044 684 4044 
L 1700 4044 
Q 2072 4044 2330 3981 
Q 2588 3919 2764 3792 
Q 2941 3666 3034 3472 
Q 3128 3278 3128 3016 
Q 3128 2869 3090 2739 
Q 3053 2609 2981 2503 
Q 2909 2397 2804 2315 
Q 2700 2234 2566 2184 
Q 2738 2153 2883 2075 
Q 3028 1997 3136 1873 
Q 3244 1750 3306 1584 
Q 3369 1419 3369 1213 
z
M 2306 2916 
Q 2306 3038 2268 3134 
Q 2231 3231 2156 3295 
Q 2081 3359 1967 3393 
Q 1853 3428 1663 3428 
L 1247 3428 
L 1247 2378 
L 1706 2378 
Q 1884 2378 1990 2420 
Q 2097 2463 2167 2536 
Q 2238 2609 2272 2707 
Q 2306 2806 2306 2916 
z
M 2516 1184 
Q 2516 1325 2469 1436 
Q 2422 1547 2331 1622 
Q 2241 1697 2100 1737 
Q 1959 1778 1734 1778 
L 1247 1778 
L 1247 628 
L 1841 628 
Q 2013 628 2130 664 
Q 2247 700 2333 770 
Q 2419 841 2467 945 
Q 2516 1050 2516 1184 
z
" transform="scale(0.015625)"/>
       <path id="Calibri-Bold-55" d="M 3741 1506 
Q 3741 1134 3631 840 
Q 3522 547 3309 344 
Q 3097 141 2784 34 
Q 2472 -72 2066 -72 
Q 1684 -72 1381 23 
Q 1078 119 868 312 
Q 659 506 548 795 
Q 438 1084 438 1472 
L 438 3931 
Q 438 3963 456 3988 
Q 475 4013 523 4028 
Q 572 4044 650 4053 
Q 728 4063 850 4063 
Q 969 4063 1047 4053 
Q 1125 4044 1172 4028 
Q 1219 4013 1239 3988 
Q 1259 3963 1259 3931 
L 1259 1544 
Q 1259 1303 1318 1126 
Q 1378 950 1489 834 
Q 1600 719 1754 661 
Q 1909 603 2100 603 
Q 2294 603 2447 662 
Q 2600 722 2706 836 
Q 2813 950 2870 1117 
Q 2928 1284 2928 1497 
L 2928 3931 
Q 2928 3963 2947 3988 
Q 2966 4013 3012 4028 
Q 3059 4044 3139 4053 
Q 3219 4063 3338 4063 
Q 3456 4063 3532 4053 
Q 3609 4044 3656 4028 
Q 3703 4013 3722 3988 
Q 3741 3963 3741 3931 
L 3741 1506 
z
" transform="scale(0.015625)"/>
      </defs>
      <use xlink:href="#Calibri-Bold-49"/>
      <use xlink:href="#Calibri-Bold-4f" transform="translate(26.660156 0)"/>
      <use xlink:href="#Calibri-Bold-42" transform="translate(94.287109 0)"/>
      <use xlink:href="#Calibri-Bold-20" transform="translate(150.341797 0)"/>
      <use xlink:href="#Calibri-Bold-28" transform="translate(172.949219 0)"/>
      <use xlink:href="#Calibri-Bold-55" transform="translate(204.101562 0)"/>
      <use xlink:href="#Calibri-Bold-29" transform="translate(269.384766 0)"/>
     </g>
    </g>
   </g>
   <g id="line2d_19">
    <path d="M 48.195918 430.981012 
L 52.947416 430.981012 
L 53.422565 330.039063 
L 54.372865 330.473456 
L 55.798314 331.566514 
L 57.698913 333.397444 
L 60.074662 336.088468 
L 62.92556 339.746618 
L 66.251608 344.417061 
L 71.003105 351.505961 
L 81.931549 367.951447 
L 86.683046 374.66406 
L 90.959394 380.337862 
L 95.235741 385.621688 
L 99.036939 389.975911 
L 102.838137 394.005028 
L 106.639335 397.713852 
L 110.440532 401.112368 
L 114.24173 404.214165 
L 118.042928 407.035211 
L 121.844126 409.592907 
L 125.645324 411.905354 
L 129.921671 414.236427 
L 134.198019 416.305777 
L 138.474366 418.138059 
L 143.225864 419.924277 
L 147.977361 421.476571 
L 153.204008 422.946631 
L 158.905805 424.304153 
L 165.082751 425.527673 
L 171.734847 426.604684 
L 178.862093 427.531071 
L 186.939638 428.352557 
L 195.967483 429.046733 
L 206.895927 429.651091 
L 219.724969 430.127848 
L 235.88006 430.495868 
L 257.736948 430.756806 
L 291.472578 430.913881 
L 363.695336 430.976138 
L 389.828571 430.979144 
L 389.828571 430.979144 
" clip-path="url(#p4ebe142ab6)" style="fill: none; stroke: #2596be; stroke-width: 3; stroke-linecap: square"/>
   </g>
   <g id="patch_6">
    <path d="M 48.195918 436.02811 
L 48.195918 324.991965 
" style="fill: none; stroke: #000000; stroke-width: 2; stroke-linejoin: miter; stroke-linecap: square"/>
   </g>
   <g id="patch_7">
    <path d="M 48.195918 436.02811 
L 389.828571 436.02811 
" style="fill: none; stroke: #000000; stroke-width: 2; stroke-linejoin: miter; stroke-linecap: square"/>
   </g>
  </g>
  <g id="axes_3">
   <g id="patch_8">
    <path d="M 413.742857 258.370279 
L 453.6 258.370279 
L 453.6 36.297989 
L 413.742857 36.297989 
z
" style="fill: #ffffff"/>
   </g>
   <g id="patch_9">
    <path d="M 409.757143 258.370279 
L 457.585714 258.370279 
L 457.585714 61.281122 
L 409.757143 61.281122 
z
" clip-path="url(#p9791d400a4)" style="fill: #00b050; stroke: #ffffff; stroke-linejoin: miter"/>
   </g>
   <g id="patch_10">
    <path d="M 409.757143 61.281122 
L 457.585714 61.281122 
L 457.585714 36.297989 
L 409.757143 36.297989 
z
" clip-path="url(#p9791d400a4)" style="fill: #ffb347; stroke: #ffffff; stroke-linejoin: miter"/>
   </g>
   <g id="matplotlib.axis_5">
    <g id="xtick_9"/>
    <g id="xtick_10"/>
   </g>
   <g id="matplotlib.axis_6">
    <g id="ytick_10"/>
    <g id="ytick_11"/>
    <g id="ytick_12"/>
    <g id="ytick_13"/>
    <g id="ytick_14"/>
    <g id="ytick_15"/>
   </g>
   <g id="text_22">
    <!-- 88.8% -->
    <g transform="translate(417.312757 163.09195) scale(0.13 -0.13)">
     <defs>
      <path id="Calibri-Bold-2e" d="M 1319 450 
Q 1319 159 1217 59 
Q 1116 -41 853 -41 
Q 591 -41 491 57 
Q 391 156 391 431 
Q 391 725 492 825 
Q 594 925 859 925 
Q 1119 925 1219 826 
Q 1319 728 1319 450 
z
" transform="scale(0.015625)"/>
      <path id="Calibri-Bold-25" d="M 2051 3076 
Q 2051 2829 1996 2630 
Q 1941 2432 1825 2291 
Q 1710 2151 1530 2073 
Q 1351 1995 1101 1995 
Q 835 1995 657 2073 
Q 479 2151 372 2290 
Q 266 2429 222 2623 
Q 179 2817 179 3051 
Q 179 3286 232 3481 
Q 285 3676 399 3820 
Q 513 3964 693 4043 
Q 873 4123 1126 4123 
Q 1404 4123 1583 4038 
Q 1763 3954 1866 3810 
Q 1970 3667 2010 3476 
Q 2051 3286 2051 3076 
z
M 1432 3054 
Q 1432 3226 1413 3346 
Q 1395 3467 1357 3542 
Q 1320 3617 1257 3651 
Q 1195 3686 1110 3686 
Q 1032 3686 972 3653 
Q 913 3620 874 3546 
Q 835 3473 816 3356 
Q 798 3239 798 3070 
Q 798 2876 819 2752 
Q 841 2629 882 2559 
Q 923 2489 982 2462 
Q 1041 2436 1120 2436 
Q 1210 2436 1269 2471 
Q 1329 2507 1365 2582 
Q 1401 2657 1416 2774 
Q 1432 2892 1432 3054 
z
M 4491 1028 
Q 4491 781 4436 582 
Q 4381 384 4265 243 
Q 4150 103 3970 25 
Q 3791 -53 3541 -53 
Q 3275 -53 3097 25 
Q 2919 103 2812 242 
Q 2706 381 2662 575 
Q 2619 769 2619 1003 
Q 2619 1238 2672 1433 
Q 2725 1628 2839 1772 
Q 2953 1916 3133 1995 
Q 3313 2075 3566 2075 
Q 3844 2075 4023 1990 
Q 4203 1906 4306 1762 
Q 4410 1619 4450 1428 
Q 4491 1238 4491 1028 
z
M 3872 1006 
Q 3872 1178 3853 1298 
Q 3835 1419 3797 1494 
Q 3760 1569 3697 1603 
Q 3635 1638 3550 1638 
Q 3472 1638 3412 1605 
Q 3353 1572 3314 1498 
Q 3275 1425 3256 1308 
Q 3238 1191 3238 1022 
Q 3238 828 3259 704 
Q 3281 581 3322 511 
Q 3363 441 3422 414 
Q 3481 388 3560 388 
Q 3650 388 3709 423 
Q 3769 459 3805 534 
Q 3841 609 3856 726 
Q 3872 844 3872 1006 
z
M 1197 22 
Q 1168 -16 1138 -39 
Q 1109 -63 1065 -78 
Q 1022 -94 959 -100 
Q 897 -106 806 -106 
Q 703 -106 642 -93 
Q 581 -81 554 -56 
Q 528 -31 532 1 
Q 537 34 572 81 
L 3453 4028 
Q 3481 4063 3509 4088 
Q 3537 4113 3582 4128 
Q 3628 4144 3690 4150 
Q 3753 4156 3843 4156 
Q 3947 4156 4007 4143 
Q 4068 4131 4095 4106 
Q 4122 4081 4115 4047 
Q 4109 4013 4078 3969 
L 1197 22 
z
" transform="scale(0.015625)"/>
     </defs>
     <use xlink:href="#Calibri-Bold-38"/>
     <use xlink:href="#Calibri-Bold-38" transform="translate(50.683594 0)"/>
     <use xlink:href="#Calibri-Bold-2e" transform="translate(101.367188 0)"/>
     <use xlink:href="#Calibri-Bold-38" transform="translate(128.076172 0)"/>
     <use xlink:href="#Calibri-Bold-25" transform="translate(178.759766 0)"/>
    </g>
   </g>
   <g id="text_23">
    <!-- 11.2% -->
    <g transform="translate(417.312757 52.055806) scale(0.13 -0.13)">
     <use xlink:href="#Calibri-Bold-31"/>
     <use xlink:href="#Calibri-Bold-31" transform="translate(50.683594 0)"/>
     <use xlink:href="#Calibri-Bold-2e" transform="translate(101.367188 0)"/>
     <use xlink:href="#Calibri-Bold-32" transform="translate(128.076172 0)"/>
     <use xlink:href="#Calibri-Bold-25" transform="translate(178.759766 0)"/>
    </g>
   </g>
   <g id="text_24">
    <!-- 3.9 -->
    <g transform="translate(392.309844 261.636529) scale(0.13 -0.13)">
     <defs>
      <path id="Calibri-Bold-33" d="M 2969 1184 
Q 2969 881 2853 647 
Q 2738 413 2531 253 
Q 2325 94 2037 11 
Q 1750 -72 1409 -72 
Q 1203 -72 1022 -42 
Q 841 -13 702 31 
Q 563 75 472 122 
Q 381 169 353 194 
Q 325 219 311 250 
Q 297 281 286 323 
Q 275 366 270 430 
Q 266 494 266 584 
Q 266 734 291 792 
Q 316 850 366 850 
Q 397 850 473 808 
Q 550 766 669 717 
Q 788 669 947 626 
Q 1106 584 1309 584 
Q 1481 584 1612 625 
Q 1744 666 1836 739 
Q 1928 813 1973 917 
Q 2019 1022 2019 1150 
Q 2019 1291 1964 1403 
Q 1909 1516 1801 1595 
Q 1694 1675 1530 1719 
Q 1366 1763 1144 1763 
L 794 1763 
Q 753 1763 725 1773 
Q 697 1784 678 1818 
Q 659 1853 651 1914 
Q 644 1975 644 2072 
Q 644 2163 651 2220 
Q 659 2278 676 2309 
Q 694 2341 720 2353 
Q 747 2366 784 2366 
L 1138 2366 
Q 1319 2366 1459 2408 
Q 1600 2450 1695 2528 
Q 1791 2606 1841 2717 
Q 1891 2828 1891 2963 
Q 1891 3066 1856 3158 
Q 1822 3250 1755 3317 
Q 1688 3384 1581 3423 
Q 1475 3463 1331 3463 
Q 1169 3463 1025 3414 
Q 881 3366 767 3308 
Q 653 3250 573 3200 
Q 494 3150 456 3150 
Q 431 3150 412 3161 
Q 394 3172 381 3203 
Q 369 3234 362 3293 
Q 356 3353 356 3447 
Q 356 3525 359 3576 
Q 363 3628 372 3662 
Q 381 3697 395 3722 
Q 409 3747 440 3776 
Q 472 3806 569 3865 
Q 666 3925 812 3981 
Q 959 4038 1151 4077 
Q 1344 4116 1569 4116 
Q 1863 4116 2089 4047 
Q 2316 3978 2470 3848 
Q 2625 3719 2704 3530 
Q 2784 3341 2784 3103 
Q 2784 2919 2737 2759 
Q 2691 2600 2600 2475 
Q 2509 2350 2373 2262 
Q 2238 2175 2059 2131 
L 2059 2122 
Q 2272 2097 2440 2014 
Q 2609 1931 2726 1806 
Q 2844 1681 2906 1523 
Q 2969 1366 2969 1184 
z
" transform="scale(0.015625)"/>
      <path id="Calibri-Bold-39" d="M 2997 2206 
Q 2997 1959 2972 1695 
Q 2947 1431 2876 1178 
Q 2806 925 2682 697 
Q 2559 469 2364 298 
Q 2169 128 1889 28 
Q 1609 -72 1228 -72 
Q 1094 -72 961 -53 
Q 828 -34 718 -6 
Q 609 22 532 53 
Q 456 84 422 117 
Q 388 150 372 212 
Q 356 275 356 388 
Q 356 491 361 553 
Q 366 616 380 650 
Q 394 684 414 695 
Q 434 706 463 706 
Q 500 706 569 684 
Q 638 663 736 634 
Q 834 606 959 584 
Q 1084 563 1238 563 
Q 1500 563 1681 656 
Q 1863 750 1975 909 
Q 2088 1069 2141 1278 
Q 2194 1488 2200 1719 
Q 2056 1628 1853 1561 
Q 1650 1494 1388 1494 
Q 1066 1494 841 1578 
Q 616 1663 475 1822 
Q 334 1981 270 2209 
Q 206 2438 206 2725 
Q 206 3028 297 3283 
Q 388 3538 566 3723 
Q 744 3909 1009 4012 
Q 1275 4116 1625 4116 
Q 1906 4116 2117 4050 
Q 2328 3984 2479 3862 
Q 2631 3741 2732 3567 
Q 2834 3394 2892 3181 
Q 2950 2969 2973 2722 
Q 2997 2475 2997 2206 
z
M 2181 2319 
Q 2181 2653 2143 2878 
Q 2106 3103 2031 3237 
Q 1956 3372 1843 3428 
Q 1731 3484 1581 3484 
Q 1434 3484 1328 3432 
Q 1222 3381 1151 3287 
Q 1081 3194 1047 3066 
Q 1013 2938 1013 2784 
Q 1013 2619 1042 2492 
Q 1072 2366 1136 2283 
Q 1200 2200 1303 2159 
Q 1406 2119 1553 2119 
Q 1734 2119 1895 2173 
Q 2056 2228 2181 2319 
z
" transform="scale(0.015625)"/>
     </defs>
     <use xlink:href="#Calibri-Bold-33"/>
     <use xlink:href="#Calibri-Bold-2e" transform="translate(50.683594 0)"/>
     <use xlink:href="#Calibri-Bold-39" transform="translate(77.392578 0)"/>
    </g>
   </g>
   <g id="text_25">
    <!-- 10.0 -->
    <g transform="translate(385.720469 64.547372) scale(0.13 -0.13)">
     <use xlink:href="#Calibri-Bold-31"/>
     <use xlink:href="#Calibri-Bold-30" transform="translate(50.683594 0)"/>
     <use xlink:href="#Calibri-Bold-2e" transform="translate(101.367188 0)"/>
     <use xlink:href="#Calibri-Bold-30" transform="translate(128.076172 0)"/>
    </g>
   </g>
   <g id="text_26">
    <!-- 10.0 -->
    <g transform="translate(385.720469 64.547372) scale(0.13 -0.13)">
     <use xlink:href="#Calibri-Bold-31"/>
     <use xlink:href="#Calibri-Bold-30" transform="translate(50.683594 0)"/>
     <use xlink:href="#Calibri-Bold-2e" transform="translate(101.367188 0)"/>
     <use xlink:href="#Calibri-Bold-30" transform="translate(128.076172 0)"/>
    </g>
   </g>
   <g id="text_27">
    <!-- 13.9 -->
    <g transform="translate(385.720469 39.564239) scale(0.13 -0.13)">
     <use xlink:href="#Calibri-Bold-31"/>
     <use xlink:href="#Calibri-Bold-33" transform="translate(50.683594 0)"/>
     <use xlink:href="#Calibri-Bold-2e" transform="translate(101.367188 0)"/>
     <use xlink:href="#Calibri-Bold-39" transform="translate(128.076172 0)"/>
    </g>
   </g>
   <g id="text_28">
    <!-- Percentage time in range -->
    <g transform="translate(474.141763 225.335306) rotate(-90) scale(0.15 -0.15)">
     <defs>
      <path id="Calibri-Bold-50" d="M 3209 2816 
Q 3209 2475 3103 2212 
Q 2997 1950 2794 1770 
Q 2591 1591 2295 1497 
Q 2000 1403 1600 1403 
L 1263 1403 
L 1263 113 
Q 1263 81 1242 56 
Q 1222 31 1175 15 
Q 1128 0 1050 -9 
Q 972 -19 850 -19 
Q 731 -19 651 -9 
Q 572 0 525 15 
Q 478 31 459 56 
Q 441 81 441 113 
L 441 3750 
Q 441 3897 517 3970 
Q 594 4044 719 4044 
L 1672 4044 
Q 1816 4044 1945 4033 
Q 2075 4022 2256 3986 
Q 2438 3950 2623 3853 
Q 2809 3756 2940 3607 
Q 3072 3459 3140 3261 
Q 3209 3063 3209 2816 
z
M 2350 2756 
Q 2350 2969 2275 3106 
Q 2200 3244 2090 3309 
Q 1981 3375 1861 3392 
Q 1741 3409 1613 3409 
L 1263 3409 
L 1263 2038 
L 1631 2038 
Q 1828 2038 1961 2091 
Q 2094 2144 2178 2239 
Q 2263 2334 2306 2467 
Q 2350 2600 2350 2756 
z
" transform="scale(0.015625)"/>
      <path id="Calibri-Bold-72" d="M 2184 2634 
Q 2184 2522 2178 2450 
Q 2172 2378 2159 2337 
Q 2147 2297 2126 2281 
Q 2106 2266 2075 2266 
Q 2050 2266 2019 2277 
Q 1988 2288 1948 2300 
Q 1909 2313 1862 2323 
Q 1816 2334 1759 2334 
Q 1694 2334 1628 2307 
Q 1563 2281 1492 2225 
Q 1422 2169 1345 2075 
Q 1269 1981 1181 1844 
L 1181 106 
Q 1181 75 1162 51 
Q 1144 28 1098 12 
Q 1053 -3 978 -11 
Q 903 -19 788 -19 
Q 672 -19 597 -11 
Q 522 -3 476 12 
Q 431 28 412 51 
Q 394 75 394 106 
L 394 2894 
Q 394 2925 409 2948 
Q 425 2972 465 2987 
Q 506 3003 570 3011 
Q 634 3019 731 3019 
Q 831 3019 897 3011 
Q 963 3003 998 2987 
Q 1034 2972 1050 2948 
Q 1066 2925 1066 2894 
L 1066 2547 
Q 1175 2703 1272 2804 
Q 1369 2906 1456 2965 
Q 1544 3025 1631 3048 
Q 1719 3072 1806 3072 
Q 1847 3072 1894 3067 
Q 1941 3063 1991 3052 
Q 2041 3041 2078 3027 
Q 2116 3013 2133 2997 
Q 2150 2981 2158 2962 
Q 2166 2944 2172 2911 
Q 2178 2878 2181 2812 
Q 2184 2747 2184 2634 
z
" transform="scale(0.015625)"/>
      <path id="Calibri-Bold-74" d="M 2044 381 
Q 2044 244 2026 170 
Q 2009 97 1981 67 
Q 1953 38 1898 14 
Q 1844 -9 1770 -26 
Q 1697 -44 1611 -53 
Q 1525 -63 1438 -63 
Q 1203 -63 1031 -3 
Q 859 56 746 179 
Q 634 303 581 490 
Q 528 678 528 934 
L 528 2363 
L 194 2363 
Q 134 2363 103 2436 
Q 72 2509 72 2681 
Q 72 2772 80 2834 
Q 88 2897 103 2933 
Q 119 2969 142 2984 
Q 166 3000 197 3000 
L 528 3000 
L 528 3622 
Q 528 3653 545 3678 
Q 563 3703 608 3720 
Q 653 3738 729 3745 
Q 806 3753 919 3753 
Q 1034 3753 1111 3745 
Q 1188 3738 1231 3720 
Q 1275 3703 1294 3678 
Q 1313 3653 1313 3622 
L 1313 3000 
L 1919 3000 
Q 1950 3000 1973 2984 
Q 1997 2969 2012 2933 
Q 2028 2897 2036 2834 
Q 2044 2772 2044 2681 
Q 2044 2509 2012 2436 
Q 1981 2363 1922 2363 
L 1313 2363 
L 1313 1053 
Q 1313 825 1384 711 
Q 1456 597 1641 597 
Q 1703 597 1753 608 
Q 1803 619 1842 633 
Q 1881 647 1907 658 
Q 1934 669 1956 669 
Q 1975 669 1992 658 
Q 2009 647 2018 614 
Q 2028 581 2036 525 
Q 2044 469 2044 381 
z
" transform="scale(0.015625)"/>
      <path id="Calibri-Bold-67" d="M 2906 2700 
Q 2906 2550 2872 2478 
Q 2838 2406 2788 2406 
L 2459 2406 
Q 2528 2331 2558 2236 
Q 2588 2141 2588 2038 
Q 2588 1794 2506 1605 
Q 2425 1416 2273 1286 
Q 2122 1156 1908 1089 
Q 1694 1022 1431 1022 
Q 1297 1022 1175 1055 
Q 1053 1088 988 1131 
Q 950 1091 920 1034 
Q 891 978 891 909 
Q 891 819 970 761 
Q 1050 703 1194 697 
L 1872 672 
Q 2109 663 2295 605 
Q 2481 547 2607 442 
Q 2734 338 2801 191 
Q 2869 44 2869 -144 
Q 2869 -350 2778 -533 
Q 2688 -716 2506 -850 
Q 2325 -984 2051 -1062 
Q 1778 -1141 1413 -1141 
Q 1056 -1141 804 -1084 
Q 553 -1028 392 -928 
Q 231 -828 157 -689 
Q 84 -550 84 -384 
Q 84 -281 111 -187 
Q 138 -94 189 -8 
Q 241 78 316 156 
Q 391 234 488 306 
Q 353 378 279 501 
Q 206 625 206 772 
Q 206 956 290 1107 
Q 375 1259 509 1381 
Q 400 1491 334 1644 
Q 269 1797 269 2025 
Q 269 2269 355 2461 
Q 441 2653 594 2786 
Q 747 2919 959 2989 
Q 1172 3059 1428 3059 
Q 1559 3059 1679 3043 
Q 1800 3028 1903 3000 
L 2788 3000 
Q 2841 3000 2873 2931 
Q 2906 2863 2906 2700 
z
M 1897 2041 
Q 1897 2266 1772 2391 
Q 1647 2516 1419 2516 
Q 1303 2516 1215 2477 
Q 1128 2438 1070 2370 
Q 1013 2303 984 2214 
Q 956 2125 956 2028 
Q 956 1816 1081 1692 
Q 1206 1569 1428 1569 
Q 1547 1569 1634 1606 
Q 1722 1644 1780 1709 
Q 1838 1775 1867 1861 
Q 1897 1947 1897 2041 
z
M 2081 -184 
Q 2081 -44 1968 31 
Q 1856 106 1659 113 
L 1100 128 
Q 1019 69 970 14 
Q 922 -41 892 -91 
Q 863 -141 853 -187 
Q 844 -234 844 -284 
Q 844 -441 1001 -522 
Q 1159 -603 1447 -603 
Q 1625 -603 1747 -567 
Q 1869 -531 1944 -472 
Q 2019 -413 2050 -339 
Q 2081 -266 2081 -184 
z
" transform="scale(0.015625)"/>
     </defs>
     <use xlink:href="#Calibri-Bold-50"/>
     <use xlink:href="#Calibri-Bold-65" transform="translate(53.222656 0)"/>
     <use xlink:href="#Calibri-Bold-72" transform="translate(103.564453 0)"/>
     <use xlink:href="#Calibri-Bold-63" transform="translate(139.111328 0)"/>
     <use xlink:href="#Calibri-Bold-65" transform="translate(180.957031 0)"/>
     <use xlink:href="#Calibri-Bold-6e" transform="translate(231.298828 0)"/>
     <use xlink:href="#Calibri-Bold-74" transform="translate(284.960938 0)"/>
     <use xlink:href="#Calibri-Bold-61" transform="translate(319.628906 0)"/>
     <use xlink:href="#Calibri-Bold-67" transform="translate(368.994141 0)"/>
     <use xlink:href="#Calibri-Bold-65" transform="translate(416.40625 0)"/>
     <use xlink:href="#Calibri-Bold-20" transform="translate(466.748047 0)"/>
     <use xlink:href="#Calibri-Bold-74" transform="translate(489.355469 0)"/>
     <use xlink:href="#Calibri-Bold-69" transform="translate(524.023438 0)"/>
     <use xlink:href="#Calibri-Bold-6d" transform="translate(548.583984 0)"/>
     <use xlink:href="#Calibri-Bold-65" transform="translate(629.931641 0)"/>
     <use xlink:href="#Calibri-Bold-20" transform="translate(680.273438 0)"/>
     <use xlink:href="#Calibri-Bold-69" transform="translate(702.880859 0)"/>
     <use xlink:href="#Calibri-Bold-6e" transform="translate(727.441406 0)"/>
     <use xlink:href="#Calibri-Bold-20" transform="translate(781.103516 0)"/>
     <use xlink:href="#Calibri-Bold-72" transform="translate(803.710938 0)"/>
     <use xlink:href="#Calibri-Bold-61" transform="translate(839.257812 0)"/>
     <use xlink:href="#Calibri-Bold-6e" transform="translate(888.623047 0)"/>
     <use xlink:href="#Calibri-Bold-67" transform="translate(942.285156 0)"/>
     <use xlink:href="#Calibri-Bold-65" transform="translate(989.697266 0)"/>
    </g>
   </g>
  </g>
  <g id="axes_4">
   <g id="patch_11">
    <path d="M 535.591837 258.370279 
L 877.22449 258.370279 
L 877.22449 36.297989 
L 535.591837 36.297989 
z
" style="fill: #ffffff"/>
   </g>
   <g id="matplotlib.axis_7">
    <g id="xtick_11">
     <g id="line2d_20">
      <g>
       <use xlink:href="#m83e86a3b16" x="535.591837" y="258.370279" style="stroke: #000000; stroke-width: 2"/>
      </g>
     </g>
     <g id="text_29">
      <!-- 0 -->
      <g transform="translate(531.790274 275.565591) scale(0.15 -0.15)">
       <use xlink:href="#Calibri-Bold-30"/>
      </g>
     </g>
    </g>
    <g id="xtick_12">
     <g id="line2d_21">
      <g>
       <use xlink:href="#m83e86a3b16" x="630.621782" y="258.370279" style="stroke: #000000; stroke-width: 2"/>
      </g>
     </g>
     <g id="text_30">
      <!-- 200 -->
      <g transform="translate(619.217094 275.565591) scale(0.15 -0.15)">
       <use xlink:href="#Calibri-Bold-32"/>
       <use xlink:href="#Calibri-Bold-30" transform="translate(50.683594 0)"/>
       <use xlink:href="#Calibri-Bold-30" transform="translate(101.367188 0)"/>
      </g>
     </g>
    </g>
    <g id="xtick_13">
     <g id="line2d_22">
      <g>
       <use xlink:href="#m83e86a3b16" x="725.651727" y="258.370279" style="stroke: #000000; stroke-width: 2"/>
      </g>
     </g>
     <g id="text_31">
      <!-- 400 -->
      <g transform="translate(714.24704 275.565591) scale(0.15 -0.15)">
       <use xlink:href="#Calibri-Bold-34"/>
       <use xlink:href="#Calibri-Bold-30" transform="translate(50.683594 0)"/>
       <use xlink:href="#Calibri-Bold-30" transform="translate(101.367188 0)"/>
      </g>
     </g>
    </g>
    <g id="xtick_14">
     <g id="line2d_23">
      <g>
       <use xlink:href="#m83e86a3b16" x="820.681672" y="258.370279" style="stroke: #000000; stroke-width: 2"/>
      </g>
     </g>
     <g id="text_32">
      <!-- 600 -->
      <g transform="translate(809.276985 275.565591) scale(0.15 -0.15)">
       <use xlink:href="#Calibri-Bold-36"/>
       <use xlink:href="#Calibri-Bold-30" transform="translate(50.683594 0)"/>
       <use xlink:href="#Calibri-Bold-30" transform="translate(101.367188 0)"/>
      </g>
     </g>
    </g>
   </g>
   <g id="matplotlib.axis_8">
    <g id="ytick_16">
     <g id="line2d_24">
      <g>
       <use xlink:href="#mf45114b67d" x="535.591837" y="256.171543" style="stroke: #000000; stroke-width: 2"/>
      </g>
     </g>
     <g id="text_33">
      <!-- 4 -->
      <g transform="translate(520.988712 261.269199) scale(0.15 -0.15)">
       <use xlink:href="#Calibri-Bold-34"/>
      </g>
     </g>
    </g>
    <g id="ytick_17">
     <g id="line2d_25">
      <g>
       <use xlink:href="#mf45114b67d" x="535.591837" y="212.196832" style="stroke: #000000; stroke-width: 2"/>
      </g>
     </g>
     <g id="text_34">
      <!-- 6 -->
      <g transform="translate(520.988712 217.294489) scale(0.15 -0.15)">
       <use xlink:href="#Calibri-Bold-36"/>
      </g>
     </g>
    </g>
    <g id="ytick_18">
     <g id="line2d_26">
      <g>
       <use xlink:href="#mf45114b67d" x="535.591837" y="168.222122" style="stroke: #000000; stroke-width: 2"/>
      </g>
     </g>
     <g id="text_35">
      <!-- 8 -->
      <g transform="translate(520.988712 173.319778) scale(0.15 -0.15)">
       <use xlink:href="#Calibri-Bold-38"/>
      </g>
     </g>
    </g>
    <g id="ytick_19">
     <g id="line2d_27">
      <g>
       <use xlink:href="#mf45114b67d" x="535.591837" y="124.247411" style="stroke: #000000; stroke-width: 2"/>
      </g>
     </g>
     <g id="text_36">
      <!-- 10 -->
      <g transform="translate(513.385587 129.345067) scale(0.15 -0.15)">
       <use xlink:href="#Calibri-Bold-31"/>
       <use xlink:href="#Calibri-Bold-30" transform="translate(50.683594 0)"/>
      </g>
     </g>
    </g>
    <g id="ytick_20">
     <g id="line2d_28">
      <g>
       <use xlink:href="#mf45114b67d" x="535.591837" y="80.2727" style="stroke: #000000; stroke-width: 2"/>
      </g>
     </g>
     <g id="text_37">
      <!-- 12 -->
      <g transform="translate(513.385587 85.370356) scale(0.15 -0.15)">
       <use xlink:href="#Calibri-Bold-31"/>
       <use xlink:href="#Calibri-Bold-32" transform="translate(50.683594 0)"/>
      </g>
     </g>
    </g>
    <g id="ytick_21">
     <g id="line2d_29">
      <g>
       <use xlink:href="#mf45114b67d" x="535.591837" y="36.297989" style="stroke: #000000; stroke-width: 2"/>
      </g>
     </g>
     <g id="text_38">
      <!-- 14 -->
      <g transform="translate(513.385587 41.395646) scale(0.15 -0.15)">
       <use xlink:href="#Calibri-Bold-31"/>
       <use xlink:href="#Calibri-Bold-34" transform="translate(50.683594 0)"/>
      </g>
     </g>
    </g>
    <g id="text_39">
     <!-- Glucose (mmol/L) -->
     <g transform="translate(506.727774 202.75679) rotate(-90) scale(0.15 -0.15)">
      <use xlink:href="#Calibri-Bold-47"/>
      <use xlink:href="#Calibri-Bold-6c" transform="translate(63.720703 0)"/>
      <use xlink:href="#Calibri-Bold-75" transform="translate(88.28125 0)"/>
      <use xlink:href="#Calibri-Bold-63" transform="translate(141.943359 0)"/>
      <use xlink:href="#Calibri-Bold-6f" transform="translate(183.789062 0)"/>
      <use xlink:href="#Calibri-Bold-73" transform="translate(237.548828 0)"/>
      <use xlink:href="#Calibri-Bold-65" transform="translate(277.441406 0)"/>
      <use xlink:href="#Calibri-Bold-20" transform="translate(327.783203 0)"/>
      <use xlink:href="#Calibri-Bold-28" transform="translate(350.390625 0)"/>
      <use xlink:href="#Calibri-Bold-6d" transform="translate(381.542969 0)"/>
      <use xlink:href="#Calibri-Bold-6d" transform="translate(462.890625 0)"/>
      <use xlink:href="#Calibri-Bold-6f" transform="translate(544.238281 0)"/>
      <use xlink:href="#Calibri-Bold-6c" transform="translate(597.998047 0)"/>
      <use xlink:href="#Calibri-Bold-2f" transform="translate(622.558594 0)"/>
      <use xlink:href="#Calibri-Bold-4c" transform="translate(665.527344 0)"/>
      <use xlink:href="#Calibri-Bold-29" transform="translate(707.8125 0)"/>
     </g>
    </g>
   </g>
   <g id="line2d_30">
    <path d="M 535.591837 203.57619 
L 544.144532 203.642655 
L 545.569981 203.836533 
L 546.99543 204.242159 
L 549.371179 205.251739 
L 550.796628 205.725568 
L 551.746927 205.763741 
L 552.697227 205.42696 
L 553.172377 205.075595 
L 554.122676 203.93078 
L 555.072976 202.123788 
L 556.023275 199.608009 
L 556.973574 196.381591 
L 557.923874 192.481713 
L 559.349323 185.528828 
L 561.249922 174.757884 
L 566.001419 146.766933 
L 567.902018 137.329747 
L 569.327467 131.241836 
L 570.752916 125.981877 
L 572.178366 121.479675 
L 573.603815 117.648233 
L 575.029264 114.401376 
L 576.454713 111.662626 
L 577.880162 109.368237 
L 579.305612 107.466943 
L 580.731061 105.91815 
L 582.15651 104.689676 
L 583.581959 103.755577 
L 585.007408 103.094325 
L 586.432857 102.687391 
L 587.858307 102.518206 
L 589.283756 102.571437 
L 590.709205 102.832506 
L 592.134654 103.287278 
L 594.035253 104.170982 
L 595.935852 105.341776 
L 597.836451 106.76705 
L 600.212199 108.856021 
L 603.063098 111.723755 
L 606.864296 115.928959 
L 611.615793 121.145373 
L 613.991542 123.415008 
L 615.89214 124.949863 
L 617.792739 126.197529 
L 619.693338 127.16435 
L 621.593937 127.894418 
L 623.969686 128.576585 
L 636.323579 131.707914 
L 641.550226 133.473251 
L 659.130766 139.619184 
L 666.258011 141.771926 
L 673.860407 143.817261 
L 682.413102 145.872794 
L 692.866396 148.147098 
L 708.071187 151.209377 
L 738.95592 157.156572 
L 769.840652 162.917172 
L 792.172689 166.860302 
L 812.128977 170.163672 
L 831.610116 173.164509 
L 851.091255 175.938437 
L 870.572394 178.489703 
L 877.22449 179.311532 
L 877.22449 179.311532 
" clip-path="url(#p092d79ca9c)" style="fill: none; stroke: #000000; stroke-width: 3; stroke-linecap: square"/>
   </g>
   <g id="patch_12">
    <path d="M 535.591837 258.370279 
L 535.591837 36.297989 
" style="fill: none; stroke: #000000; stroke-width: 2; stroke-linejoin: miter; stroke-linecap: square"/>
   </g>
   <g id="patch_13">
    <path d="M 535.591837 258.370279 
L 877.22449 258.370279 
" style="fill: none; stroke: #000000; stroke-width: 2; stroke-linejoin: miter; stroke-linecap: square"/>
   </g>
   <g id="text_40">
    <!-- b -->
    <g transform="translate(494.595918 21.473437) scale(0.21 -0.21)">
     <defs>
      <path id="Calibri-Bold-62" d="M 3200 1538 
Q 3200 1166 3119 869 
Q 3038 572 2884 362 
Q 2731 153 2507 40 
Q 2284 -72 2000 -72 
Q 1859 -72 1737 -45 
Q 1616 -19 1505 40 
Q 1394 100 1286 190 
Q 1178 281 1066 409 
L 1066 106 
Q 1066 72 1048 48 
Q 1031 25 992 9 
Q 953 -6 887 -12 
Q 822 -19 728 -19 
Q 631 -19 567 -12 
Q 503 -6 464 9 
Q 425 25 409 48 
Q 394 72 394 106 
L 394 4216 
Q 394 4247 412 4272 
Q 431 4297 476 4314 
Q 522 4331 597 4340 
Q 672 4350 788 4350 
Q 903 4350 978 4340 
Q 1053 4331 1098 4314 
Q 1144 4297 1162 4272 
Q 1181 4247 1181 4216 
L 1181 2675 
Q 1288 2781 1394 2856 
Q 1500 2931 1606 2979 
Q 1713 3028 1825 3050 
Q 1938 3072 2063 3072 
Q 2372 3072 2587 2948 
Q 2803 2825 2939 2615 
Q 3075 2406 3137 2126 
Q 3200 1847 3200 1538 
z
M 2384 1481 
Q 2384 1659 2357 1825 
Q 2331 1991 2265 2119 
Q 2200 2247 2095 2323 
Q 1991 2400 1831 2400 
Q 1753 2400 1678 2378 
Q 1603 2356 1523 2303 
Q 1444 2250 1359 2165 
Q 1275 2081 1181 1956 
L 1181 1031 
Q 1347 819 1498 708 
Q 1650 597 1816 597 
Q 1969 597 2075 675 
Q 2181 753 2251 878 
Q 2322 1003 2353 1162 
Q 2384 1322 2384 1481 
z
" transform="scale(0.015625)"/>
     </defs>
     <use xlink:href="#Calibri-Bold-62"/>
    </g>
   </g>
  </g>
  <g id="axes_5">
   <g id="patch_14">
    <path d="M 535.591837 436.02811 
L 877.22449 436.02811 
L 877.22449 324.991965 
L 535.591837 324.991965 
z
" style="fill: #ffffff"/>
   </g>
   <g id="matplotlib.axis_9">
    <g id="xtick_15">
     <g id="line2d_31">
      <g>
       <use xlink:href="#m83e86a3b16" x="535.591837" y="436.02811" style="stroke: #000000; stroke-width: 2"/>
      </g>
     </g>
     <g id="text_41">
      <!-- 0 -->
      <g transform="translate(531.790274 453.223422) scale(0.15 -0.15)">
       <use xlink:href="#Calibri-Bold-30"/>
      </g>
     </g>
    </g>
    <g id="xtick_16">
     <g id="line2d_32">
      <g>
       <use xlink:href="#m83e86a3b16" x="630.621782" y="436.02811" style="stroke: #000000; stroke-width: 2"/>
      </g>
     </g>
     <g id="text_42">
      <!-- 200 -->
      <g transform="translate(619.217094 453.223422) scale(0.15 -0.15)">
       <use xlink:href="#Calibri-Bold-32"/>
       <use xlink:href="#Calibri-Bold-30" transform="translate(50.683594 0)"/>
       <use xlink:href="#Calibri-Bold-30" transform="translate(101.367188 0)"/>
      </g>
     </g>
    </g>
    <g id="xtick_17">
     <g id="line2d_33">
      <g>
       <use xlink:href="#m83e86a3b16" x="725.651727" y="436.02811" style="stroke: #000000; stroke-width: 2"/>
      </g>
     </g>
     <g id="text_43">
      <!-- 400 -->
      <g transform="translate(714.24704 453.223422) scale(0.15 -0.15)">
       <use xlink:href="#Calibri-Bold-34"/>
       <use xlink:href="#Calibri-Bold-30" transform="translate(50.683594 0)"/>
       <use xlink:href="#Calibri-Bold-30" transform="translate(101.367188 0)"/>
      </g>
     </g>
    </g>
    <g id="xtick_18">
     <g id="line2d_34">
      <g>
       <use xlink:href="#m83e86a3b16" x="820.681672" y="436.02811" style="stroke: #000000; stroke-width: 2"/>
      </g>
     </g>
     <g id="text_44">
      <!-- 600 -->
      <g transform="translate(809.276985 453.223422) scale(0.15 -0.15)">
       <use xlink:href="#Calibri-Bold-36"/>
       <use xlink:href="#Calibri-Bold-30" transform="translate(50.683594 0)"/>
       <use xlink:href="#Calibri-Bold-30" transform="translate(101.367188 0)"/>
      </g>
     </g>
    </g>
    <g id="text_45">
     <!-- Time (min) -->
     <g transform="translate(672.639413 470.238266) scale(0.15 -0.15)">
      <use xlink:href="#Calibri-Bold-54"/>
      <use xlink:href="#Calibri-Bold-69" transform="translate(49.511719 0)"/>
      <use xlink:href="#Calibri-Bold-6d" transform="translate(74.072266 0)"/>
      <use xlink:href="#Calibri-Bold-65" transform="translate(155.419922 0)"/>
      <use xlink:href="#Calibri-Bold-20" transform="translate(205.761719 0)"/>
      <use xlink:href="#Calibri-Bold-28" transform="translate(228.369141 0)"/>
      <use xlink:href="#Calibri-Bold-6d" transform="translate(259.521484 0)"/>
      <use xlink:href="#Calibri-Bold-69" transform="translate(340.869141 0)"/>
      <use xlink:href="#Calibri-Bold-6e" transform="translate(365.429688 0)"/>
      <use xlink:href="#Calibri-Bold-29" transform="translate(419.091797 0)"/>
     </g>
    </g>
   </g>
   <g id="matplotlib.axis_10">
    <g id="ytick_22">
     <g id="line2d_35">
      <g>
       <use xlink:href="#mf45114b67d" x="535.591837" y="430.521055" style="stroke: #000000; stroke-width: 2"/>
      </g>
     </g>
     <g id="text_46">
      <!-- 2 -->
      <g style="fill: #2596be" transform="translate(520.988712 435.618711) scale(0.15 -0.15)">
       <use xlink:href="#Calibri-Bold-32"/>
      </g>
     </g>
    </g>
    <g id="ytick_23">
     <g id="line2d_36">
      <g>
       <use xlink:href="#mf45114b67d" x="535.591837" y="382.1199" style="stroke: #000000; stroke-width: 2"/>
      </g>
     </g>
     <g id="text_47">
      <!-- 4 -->
      <g style="fill: #2596be" transform="translate(520.988712 387.217557) scale(0.15 -0.15)">
       <use xlink:href="#Calibri-Bold-34"/>
      </g>
     </g>
    </g>
    <g id="ytick_24">
     <g id="line2d_37">
      <g>
       <use xlink:href="#mf45114b67d" x="535.591837" y="333.718745" style="stroke: #000000; stroke-width: 2"/>
      </g>
     </g>
     <g id="text_48">
      <!-- 6 -->
      <g style="fill: #2596be" transform="translate(520.988712 338.816402) scale(0.15 -0.15)">
       <use xlink:href="#Calibri-Bold-36"/>
      </g>
     </g>
    </g>
    <g id="text_49">
     <!-- IOB (U) -->
     <g style="fill: #2596be" transform="translate(514.330899 403.051053) rotate(-90) scale(0.15 -0.15)">
      <use xlink:href="#Calibri-Bold-49"/>
      <use xlink:href="#Calibri-Bold-4f" transform="translate(26.660156 0)"/>
      <use xlink:href="#Calibri-Bold-42" transform="translate(94.287109 0)"/>
      <use xlink:href="#Calibri-Bold-20" transform="translate(150.341797 0)"/>
      <use xlink:href="#Calibri-Bold-28" transform="translate(172.949219 0)"/>
      <use xlink:href="#Calibri-Bold-55" transform="translate(204.101562 0)"/>
      <use xlink:href="#Calibri-Bold-29" transform="translate(269.384766 0)"/>
     </g>
    </g>
   </g>
   <g id="line2d_38">
    <path d="M 535.591837 430.038148 
L 540.343334 430.038148 
L 540.818484 330.039063 
L 541.768783 330.469398 
L 542.719083 331.157017 
L 545.569981 336.365956 
L 547.94573 339.052294 
L 550.796628 342.658379 
L 554.597826 347.896749 
L 560.774772 356.900876 
L 568.852318 368.611458 
L 573.603815 375.123305 
L 577.880162 380.634026 
L 582.15651 385.770644 
L 585.957708 390.006572 
L 589.758906 393.928451 
L 593.560103 397.54033 
L 597.361301 400.851425 
L 599.73705 402.773708 
L 604.013397 410.442019 
L 607.814595 416.821569 
L 611.615793 422.765963 
L 613.991542 426.257516 
L 617.31759 427.360326 
L 621.118787 428.351253 
L 624.919985 429.113088 
L 629.196333 429.75292 
L 634.42298 430.294356 
L 640.599926 430.685365 
L 648.202322 430.918042 
L 658.180466 430.978137 
L 674.335557 430.819674 
L 723.751128 430.247948 
L 764.138855 430.07653 
L 843.488859 430.012795 
L 877.22449 430.00959 
L 877.22449 430.00959 
" clip-path="url(#p5e11cc640a)" style="fill: none; stroke: #2596be; stroke-width: 3; stroke-linecap: square"/>
   </g>
   <g id="patch_15">
    <path d="M 535.591837 436.02811 
L 535.591837 324.991965 
" style="fill: none; stroke: #000000; stroke-width: 2; stroke-linejoin: miter; stroke-linecap: square"/>
   </g>
   <g id="patch_16">
    <path d="M 535.591837 436.02811 
L 877.22449 436.02811 
" style="fill: none; stroke: #000000; stroke-width: 2; stroke-linejoin: miter; stroke-linecap: square"/>
   </g>
  </g>
  <g id="axes_6">
   <g id="patch_17">
    <path d="M 901.138776 258.370279 
L 940.995918 258.370279 
L 940.995918 36.297989 
L 901.138776 36.297989 
z
" style="fill: #ffffff"/>
   </g>
   <g id="patch_18">
    <path d="M 897.153061 258.370279 
L 944.981633 258.370279 
L 944.981633 64.673893 
L 897.153061 64.673893 
z
" clip-path="url(#pccf85522ff)" style="fill: #00b050; stroke: #ffffff; stroke-linejoin: miter"/>
   </g>
   <g id="patch_19">
    <path d="M 897.153061 64.673893 
L 944.981633 64.673893 
L 944.981633 36.297989 
L 897.153061 36.297989 
z
" clip-path="url(#pccf85522ff)" style="fill: #ffb347; stroke: #ffffff; stroke-linejoin: miter"/>
   </g>
   <g id="matplotlib.axis_11">
    <g id="xtick_19"/>
    <g id="xtick_20"/>
   </g>
   <g id="matplotlib.axis_12">
    <g id="ytick_25"/>
    <g id="ytick_26"/>
    <g id="ytick_27"/>
    <g id="ytick_28"/>
    <g id="ytick_29"/>
    <g id="ytick_30"/>
   </g>
   <g id="text_50">
    <!-- 87.2% -->
    <g transform="translate(904.708675 164.788336) scale(0.13 -0.13)">
     <defs>
      <path id="Calibri-Bold-37" d="M 2984 3697 
Q 2984 3606 2978 3539 
Q 2972 3472 2961 3414 
Q 2950 3356 2931 3304 
Q 2913 3253 2888 3194 
L 1556 109 
Q 1538 69 1508 44 
Q 1478 19 1425 5 
Q 1372 -9 1289 -14 
Q 1206 -19 1084 -19 
Q 919 -19 822 -8 
Q 725 3 679 26 
Q 634 50 631 86 
Q 628 122 653 175 
L 2084 3331 
L 384 3331 
Q 319 3331 286 3417 
Q 253 3503 253 3691 
Q 253 3784 262 3851 
Q 272 3919 289 3962 
Q 306 4006 329 4025 
Q 353 4044 384 4044 
L 2788 4044 
Q 2844 4044 2881 4033 
Q 2919 4022 2941 3984 
Q 2963 3947 2973 3878 
Q 2984 3809 2984 3697 
z
" transform="scale(0.015625)"/>
     </defs>
     <use xlink:href="#Calibri-Bold-38"/>
     <use xlink:href="#Calibri-Bold-37" transform="translate(50.683594 0)"/>
     <use xlink:href="#Calibri-Bold-2e" transform="translate(101.367188 0)"/>
     <use xlink:href="#Calibri-Bold-32" transform="translate(128.076172 0)"/>
     <use xlink:href="#Calibri-Bold-25" transform="translate(178.759766 0)"/>
    </g>
   </g>
   <g id="text_51">
    <!-- 12.8% -->
    <g transform="translate(904.708675 53.752191) scale(0.13 -0.13)">
     <use xlink:href="#Calibri-Bold-31"/>
     <use xlink:href="#Calibri-Bold-32" transform="translate(50.683594 0)"/>
     <use xlink:href="#Calibri-Bold-2e" transform="translate(101.367188 0)"/>
     <use xlink:href="#Calibri-Bold-38" transform="translate(128.076172 0)"/>
     <use xlink:href="#Calibri-Bold-25" transform="translate(178.759766 0)"/>
    </g>
   </g>
   <g id="text_52">
    <!-- 3.9 -->
    <g transform="translate(879.705762 261.636529) scale(0.13 -0.13)">
     <use xlink:href="#Calibri-Bold-33"/>
     <use xlink:href="#Calibri-Bold-2e" transform="translate(50.683594 0)"/>
     <use xlink:href="#Calibri-Bold-39" transform="translate(77.392578 0)"/>
    </g>
   </g>
   <g id="text_53">
    <!-- 10.0 -->
    <g transform="translate(873.116387 67.940143) scale(0.13 -0.13)">
     <use xlink:href="#Calibri-Bold-31"/>
     <use xlink:href="#Calibri-Bold-30" transform="translate(50.683594 0)"/>
     <use xlink:href="#Calibri-Bold-2e" transform="translate(101.367188 0)"/>
     <use xlink:href="#Calibri-Bold-30" transform="translate(128.076172 0)"/>
    </g>
   </g>
   <g id="text_54">
    <!-- 10.0 -->
    <g transform="translate(873.116387 67.940143) scale(0.13 -0.13)">
     <use xlink:href="#Calibri-Bold-31"/>
     <use xlink:href="#Calibri-Bold-30" transform="translate(50.683594 0)"/>
     <use xlink:href="#Calibri-Bold-2e" transform="translate(101.367188 0)"/>
     <use xlink:href="#Calibri-Bold-30" transform="translate(128.076172 0)"/>
    </g>
   </g>
   <g id="text_55">
    <!-- 13.9 -->
    <g transform="translate(873.116387 39.564239) scale(0.13 -0.13)">
     <use xlink:href="#Calibri-Bold-31"/>
     <use xlink:href="#Calibri-Bold-33" transform="translate(50.683594 0)"/>
     <use xlink:href="#Calibri-Bold-2e" transform="translate(101.367188 0)"/>
     <use xlink:href="#Calibri-Bold-39" transform="translate(128.076172 0)"/>
    </g>
   </g>
   <g id="text_56">
    <!-- Percentage time in range -->
    <g transform="translate(961.537682 225.335306) rotate(-90) scale(0.15 -0.15)">
     <use xlink:href="#Calibri-Bold-50"/>
     <use xlink:href="#Calibri-Bold-65" transform="translate(53.222656 0)"/>
     <use xlink:href="#Calibri-Bold-72" transform="translate(103.564453 0)"/>
     <use xlink:href="#Calibri-Bold-63" transform="translate(139.111328 0)"/>
     <use xlink:href="#Calibri-Bold-65" transform="translate(180.957031 0)"/>
     <use xlink:href="#Calibri-Bold-6e" transform="translate(231.298828 0)"/>
     <use xlink:href="#Calibri-Bold-74" transform="translate(284.960938 0)"/>
     <use xlink:href="#Calibri-Bold-61" transform="translate(319.628906 0)"/>
     <use xlink:href="#Calibri-Bold-67" transform="translate(368.994141 0)"/>
     <use xlink:href="#Calibri-Bold-65" transform="translate(416.40625 0)"/>
     <use xlink:href="#Calibri-Bold-20" transform="translate(466.748047 0)"/>
     <use xlink:href="#Calibri-Bold-74" transform="translate(489.355469 0)"/>
     <use xlink:href="#Calibri-Bold-69" transform="translate(524.023438 0)"/>
     <use xlink:href="#Calibri-Bold-6d" transform="translate(548.583984 0)"/>
     <use xlink:href="#Calibri-Bold-65" transform="translate(629.931641 0)"/>
     <use xlink:href="#Calibri-Bold-20" transform="translate(680.273438 0)"/>
     <use xlink:href="#Calibri-Bold-69" transform="translate(702.880859 0)"/>
     <use xlink:href="#Calibri-Bold-6e" transform="translate(727.441406 0)"/>
     <use xlink:href="#Calibri-Bold-20" transform="translate(781.103516 0)"/>
     <use xlink:href="#Calibri-Bold-72" transform="translate(803.710938 0)"/>
     <use xlink:href="#Calibri-Bold-61" transform="translate(839.257812 0)"/>
     <use xlink:href="#Calibri-Bold-6e" transform="translate(888.623047 0)"/>
     <use xlink:href="#Calibri-Bold-67" transform="translate(942.285156 0)"/>
     <use xlink:href="#Calibri-Bold-65" transform="translate(989.697266 0)"/>
    </g>
   </g>
  </g>
  <g id="axes_7">
   <g id="legend_1">
    <g id="line2d_39">
     <path d="M 301.968965 290.344013 
L 316.968965 290.344013 
L 331.968965 290.344013 
" style="fill: none; stroke: #000000; stroke-width: 3; stroke-linecap: square"/>
    </g>
    <g id="text_57">
     <!-- Glucose -->
     <g transform="translate(343.968965 295.594013) scale(0.15 -0.15)">
      <use xlink:href="#Calibri-Bold-47"/>
      <use xlink:href="#Calibri-Bold-6c" transform="translate(63.720703 0)"/>
      <use xlink:href="#Calibri-Bold-75" transform="translate(88.28125 0)"/>
      <use xlink:href="#Calibri-Bold-63" transform="translate(141.943359 0)"/>
      <use xlink:href="#Calibri-Bold-6f" transform="translate(183.789062 0)"/>
      <use xlink:href="#Calibri-Bold-73" transform="translate(237.548828 0)"/>
      <use xlink:href="#Calibri-Bold-65" transform="translate(277.441406 0)"/>
     </g>
    </g>
    <g id="patch_20">
     <path d="M 423.136153 295.594013 
L 453.136153 295.594013 
L 453.136153 285.094013 
L 423.136153 285.094013 
z
" style="fill: #ffb347"/>
    </g>
    <g id="text_58">
     <!-- Hyperglycemia (TAR) -->
     <g transform="translate(465.136153 295.594013) scale(0.15 -0.15)">
      <defs>
       <path id="Calibri-Bold-48" d="M 3597 113 
Q 3597 81 3576 56 
Q 3556 31 3509 15 
Q 3463 0 3384 -9 
Q 3306 -19 3188 -19 
Q 3066 -19 2986 -9 
Q 2906 0 2861 15 
Q 2816 31 2795 56 
Q 2775 81 2775 113 
L 2775 1747 
L 1263 1747 
L 1263 113 
Q 1263 81 1244 56 
Q 1225 31 1178 15 
Q 1131 0 1053 -9 
Q 975 -19 853 -19 
Q 734 -19 654 -9 
Q 575 0 528 15 
Q 481 31 461 56 
Q 441 81 441 113 
L 441 3931 
Q 441 3963 461 3988 
Q 481 4013 528 4028 
Q 575 4044 654 4053 
Q 734 4063 853 4063 
Q 975 4063 1053 4053 
Q 1131 4044 1178 4028 
Q 1225 4013 1244 3988 
Q 1263 3963 1263 3931 
L 1263 2447 
L 2775 2447 
L 2775 3931 
Q 2775 3963 2795 3988 
Q 2816 4013 2861 4028 
Q 2906 4044 2986 4053 
Q 3066 4063 3188 4063 
Q 3306 4063 3384 4053 
Q 3463 4044 3509 4028 
Q 3556 4013 3576 3988 
Q 3597 3963 3597 3931 
L 3597 113 
z
" transform="scale(0.015625)"/>
       <path id="Calibri-Bold-79" d="M 2009 0 
L 1672 -988 
Q 1644 -1066 1519 -1100 
Q 1394 -1134 1153 -1134 
Q 1028 -1134 953 -1123 
Q 878 -1113 840 -1088 
Q 803 -1063 800 -1025 
Q 797 -988 819 -934 
L 1191 0 
Q 1150 19 1117 58 
Q 1084 97 1069 141 
L 109 2703 
Q 69 2813 69 2870 
Q 69 2928 106 2961 
Q 144 2994 233 3006 
Q 322 3019 469 3019 
Q 603 3019 681 3014 
Q 759 3009 803 2990 
Q 847 2972 869 2933 
Q 891 2894 913 2822 
L 1569 956 
L 1578 956 
L 2178 2859 
Q 2197 2941 2226 2967 
Q 2256 2994 2325 3006 
Q 2394 3019 2566 3019 
Q 2700 3019 2789 3006 
Q 2878 2994 2920 2959 
Q 2963 2925 2963 2867 
Q 2963 2809 2938 2731 
L 2009 0 
z
" transform="scale(0.015625)"/>
       <path id="Calibri-Bold-70" d="M 3200 1541 
Q 3200 1169 3120 870 
Q 3041 572 2887 362 
Q 2734 153 2506 40 
Q 2278 -72 1984 -72 
Q 1863 -72 1761 -48 
Q 1659 -25 1564 23 
Q 1469 72 1375 144 
Q 1281 216 1181 313 
L 1181 -1000 
Q 1181 -1031 1162 -1056 
Q 1144 -1081 1098 -1098 
Q 1053 -1116 978 -1125 
Q 903 -1134 788 -1134 
Q 672 -1134 597 -1125 
Q 522 -1116 476 -1098 
Q 431 -1081 412 -1056 
Q 394 -1031 394 -1000 
L 394 2894 
Q 394 2925 409 2948 
Q 425 2972 464 2987 
Q 503 3003 567 3011 
Q 631 3019 728 3019 
Q 822 3019 886 3011 
Q 950 3003 989 2987 
Q 1028 2972 1043 2948 
Q 1059 2925 1059 2894 
L 1059 2566 
Q 1181 2691 1298 2786 
Q 1416 2881 1537 2945 
Q 1659 3009 1789 3040 
Q 1919 3072 2066 3072 
Q 2372 3072 2587 2951 
Q 2803 2831 2939 2622 
Q 3075 2413 3137 2134 
Q 3200 1856 3200 1541 
z
M 2381 1484 
Q 2381 1663 2354 1827 
Q 2328 1991 2264 2119 
Q 2200 2247 2095 2323 
Q 1991 2400 1834 2400 
Q 1756 2400 1679 2376 
Q 1603 2353 1523 2300 
Q 1444 2247 1359 2162 
Q 1275 2078 1181 1953 
L 1181 1034 
Q 1347 825 1497 711 
Q 1647 597 1809 597 
Q 1963 597 2070 675 
Q 2178 753 2247 879 
Q 2316 1006 2348 1165 
Q 2381 1325 2381 1484 
z
" transform="scale(0.015625)"/>
       <path id="Calibri-Bold-41" d="M 3753 306 
Q 3791 194 3800 128 
Q 3809 63 3775 30 
Q 3741 -3 3653 -11 
Q 3566 -19 3413 -19 
Q 3253 -19 3164 -14 
Q 3075 -9 3028 5 
Q 2981 19 2962 44 
Q 2944 69 2931 109 
L 2659 922 
L 1141 922 
L 884 131 
Q 872 88 851 58 
Q 831 28 786 11 
Q 741 -6 658 -12 
Q 575 -19 441 -19 
Q 297 -19 215 -9 
Q 134 0 103 36 
Q 72 72 81 137 
Q 91 203 128 313 
L 1375 3900 
Q 1394 3953 1419 3986 
Q 1444 4019 1498 4036 
Q 1553 4053 1650 4058 
Q 1747 4063 1906 4063 
Q 2091 4063 2200 4058 
Q 2309 4053 2370 4036 
Q 2431 4019 2457 3984 
Q 2484 3950 2503 3891 
L 3753 306 
z
M 1897 3272 
L 1894 3272 
L 1322 1553 
L 2469 1553 
L 1897 3272 
z
" transform="scale(0.015625)"/>
       <path id="Calibri-Bold-52" d="M 3441 106 
Q 3441 72 3428 48 
Q 3416 25 3369 9 
Q 3322 -6 3231 -12 
Q 3141 -19 2984 -19 
Q 2853 -19 2775 -12 
Q 2697 -6 2651 11 
Q 2606 28 2587 54 
Q 2569 81 2556 119 
L 2194 1022 
Q 2128 1175 2065 1294 
Q 2003 1413 1926 1492 
Q 1850 1572 1750 1612 
Q 1650 1653 1519 1653 
L 1263 1653 
L 1263 113 
Q 1263 81 1242 56 
Q 1222 31 1175 15 
Q 1128 0 1050 -9 
Q 972 -19 850 -19 
Q 731 -19 651 -9 
Q 572 0 525 15 
Q 478 31 459 56 
Q 441 81 441 113 
L 441 3784 
Q 441 3922 511 3983 
Q 581 4044 684 4044 
L 1731 4044 
Q 1891 4044 1994 4037 
Q 2097 4031 2181 4022 
Q 2425 3988 2620 3903 
Q 2816 3819 2952 3683 
Q 3088 3547 3159 3361 
Q 3231 3175 3231 2934 
Q 3231 2731 3179 2564 
Q 3128 2397 3028 2265 
Q 2928 2134 2781 2037 
Q 2634 1941 2447 1881 
Q 2538 1838 2617 1775 
Q 2697 1713 2767 1623 
Q 2838 1534 2900 1420 
Q 2963 1306 3022 1163 
L 3363 366 
Q 3409 247 3425 192 
Q 3441 138 3441 106 
z
M 2381 2850 
Q 2381 3050 2290 3187 
Q 2200 3325 1994 3381 
Q 1931 3397 1851 3406 
Q 1772 3416 1631 3416 
L 1263 3416 
L 1263 2269 
L 1681 2269 
Q 1856 2269 1987 2311 
Q 2119 2353 2206 2429 
Q 2294 2506 2337 2612 
Q 2381 2719 2381 2850 
z
" transform="scale(0.015625)"/>
      </defs>
      <use xlink:href="#Calibri-Bold-48"/>
      <use xlink:href="#Calibri-Bold-79" transform="translate(63.085938 0)"/>
      <use xlink:href="#Calibri-Bold-70" transform="translate(110.449219 0)"/>
      <use xlink:href="#Calibri-Bold-65" transform="translate(164.111328 0)"/>
      <use xlink:href="#Calibri-Bold-72" transform="translate(214.453125 0)"/>
      <use xlink:href="#Calibri-Bold-67" transform="translate(250 0)"/>
      <use xlink:href="#Calibri-Bold-6c" transform="translate(297.412109 0)"/>
      <use xlink:href="#Calibri-Bold-79" transform="translate(321.972656 0)"/>
      <use xlink:href="#Calibri-Bold-63" transform="translate(369.335938 0)"/>
      <use xlink:href="#Calibri-Bold-65" transform="translate(411.181641 0)"/>
      <use xlink:href="#Calibri-Bold-6d" transform="translate(461.523438 0)"/>
      <use xlink:href="#Calibri-Bold-69" transform="translate(542.871094 0)"/>
      <use xlink:href="#Calibri-Bold-61" transform="translate(567.431641 0)"/>
      <use xlink:href="#Calibri-Bold-20" transform="translate(616.796875 0)"/>
      <use xlink:href="#Calibri-Bold-28" transform="translate(639.404297 0)"/>
      <use xlink:href="#Calibri-Bold-54" transform="translate(670.556641 0)"/>
      <use xlink:href="#Calibri-Bold-41" transform="translate(720.068359 0)"/>
      <use xlink:href="#Calibri-Bold-52" transform="translate(780.664062 0)"/>
      <use xlink:href="#Calibri-Bold-29" transform="translate(836.962891 0)"/>
     </g>
    </g>
    <g id="patch_21">
     <path d="M 625.352559 295.594013 
L 655.352559 295.594013 
L 655.352559 285.094013 
L 625.352559 285.094013 
z
" style="fill: #00b050"/>
    </g>
    <g id="text_59">
     <!-- TIR -->
     <g transform="translate(667.352559 295.594013) scale(0.15 -0.15)">
      <use xlink:href="#Calibri-Bold-54"/>
      <use xlink:href="#Calibri-Bold-49" transform="translate(49.511719 0)"/>
      <use xlink:href="#Calibri-Bold-52" transform="translate(76.171875 0)"/>
     </g>
    </g>
   </g>
  </g>
  <g id="axes_8">
   <g id="legend_2">
    <g id="line2d_40">
     <path d="M 412.545918 468.010047 
L 427.545918 468.010047 
L 442.545918 468.010047 
" style="fill: none; stroke: #2596be; stroke-width: 3; stroke-linecap: square"/>
    </g>
    <g id="text_60">
     <!-- IOB -->
     <g transform="translate(454.545918 473.260047) scale(0.15 -0.15)">
      <use xlink:href="#Calibri-Bold-49"/>
      <use xlink:href="#Calibri-Bold-4f" transform="translate(26.660156 0)"/>
      <use xlink:href="#Calibri-Bold-42" transform="translate(94.287109 0)"/>
     </g>
    </g>
    <g id="line2d_41">
     <path d="M 507.097481 468.010047 
L 522.097481 468.010047 
L 537.097481 468.010047 
" style="fill: none; stroke: #e96929; stroke-width: 3; stroke-linecap: square"/>
    </g>
    <g id="text_61">
     <!-- CHO -->
     <g transform="translate(549.097481 473.260047) scale(0.15 -0.15)">
      <defs>
       <path id="Calibri-Bold-43" d="M 3238 613 
Q 3238 534 3233 479 
Q 3228 425 3218 386 
Q 3209 347 3193 319 
Q 3178 291 3143 255 
Q 3109 219 3011 162 
Q 2913 106 2770 54 
Q 2628 3 2445 -31 
Q 2263 -66 2050 -66 
Q 1634 -66 1300 62 
Q 966 191 731 445 
Q 497 700 372 1081 
Q 247 1463 247 1969 
Q 247 2484 384 2884 
Q 522 3284 769 3556 
Q 1016 3828 1361 3968 
Q 1706 4109 2122 4109 
Q 2291 4109 2447 4081 
Q 2603 4053 2736 4008 
Q 2869 3963 2975 3903 
Q 3081 3844 3123 3801 
Q 3166 3759 3181 3731 
Q 3197 3703 3206 3659 
Q 3216 3616 3220 3556 
Q 3225 3497 3225 3409 
Q 3225 3316 3219 3250 
Q 3213 3184 3197 3143 
Q 3181 3103 3159 3084 
Q 3138 3066 3109 3066 
Q 3063 3066 2991 3120 
Q 2919 3175 2805 3242 
Q 2691 3309 2533 3364 
Q 2375 3419 2156 3419 
Q 1916 3419 1727 3320 
Q 1538 3222 1405 3039 
Q 1272 2856 1203 2597 
Q 1134 2338 1134 2013 
Q 1134 1656 1207 1395 
Q 1281 1134 1417 965 
Q 1553 797 1745 714 
Q 1938 631 2178 631 
Q 2397 631 2556 682 
Q 2716 734 2830 796 
Q 2944 859 3017 909 
Q 3091 959 3131 959 
Q 3163 959 3181 946 
Q 3200 934 3212 896 
Q 3225 859 3231 792 
Q 3238 725 3238 613 
z
" transform="scale(0.015625)"/>
      </defs>
      <use xlink:href="#Calibri-Bold-43"/>
      <use xlink:href="#Calibri-Bold-48" transform="translate(52.929688 0)"/>
      <use xlink:href="#Calibri-Bold-4f" transform="translate(116.015625 0)"/>
     </g>
    </g>
   </g>
  </g>
  <g id="axes_9">
   <g id="matplotlib.axis_13">
    <g id="ytick_31">
     <g id="line2d_42">
      <defs>
       <path id="m24643c191e" d="M 0 0 
L 3.5 0 
" style="stroke: #000000; stroke-width: 2"/>
      </defs>
      <g>
       <use xlink:href="#m24643c191e" x="389.828571" y="430.981012" style="stroke: #000000; stroke-width: 2"/>
      </g>
     </g>
     <g id="text_62">
      <!-- 0 -->
      <g style="fill: #e96929" transform="translate(396.828571 436.078669) scale(0.15 -0.15)">
       <use xlink:href="#Calibri-Bold-30"/>
      </g>
     </g>
    </g>
    <g id="ytick_32">
     <g id="line2d_43">
      <g>
       <use xlink:href="#m24643c191e" x="389.828571" y="397.333696" style="stroke: #000000; stroke-width: 2"/>
      </g>
     </g>
     <g id="text_63">
      <!-- 25 -->
      <g style="fill: #e96929" transform="translate(396.828571 402.431352) scale(0.15 -0.15)">
       <defs>
        <path id="Calibri-Bold-35" d="M 2950 1313 
Q 2950 984 2836 726 
Q 2722 469 2514 292 
Q 2306 116 2014 22 
Q 1722 -72 1366 -72 
Q 1178 -72 1009 -48 
Q 841 -25 706 11 
Q 572 47 486 83 
Q 400 119 373 142 
Q 347 166 334 194 
Q 322 222 314 261 
Q 306 300 303 359 
Q 300 419 300 500 
Q 300 588 306 648 
Q 313 709 327 746 
Q 341 784 359 800 
Q 378 816 403 816 
Q 434 816 498 780 
Q 563 744 667 700 
Q 772 656 922 620 
Q 1072 584 1281 584 
Q 1463 584 1611 621 
Q 1759 659 1862 742 
Q 1966 825 2022 950 
Q 2078 1075 2078 1250 
Q 2078 1400 2031 1517 
Q 1984 1634 1884 1715 
Q 1784 1797 1625 1837 
Q 1466 1878 1238 1878 
Q 1056 1878 907 1859 
Q 759 1841 628 1841 
Q 538 1841 498 1886 
Q 459 1931 459 2053 
L 459 3809 
Q 459 3934 507 3989 
Q 556 4044 663 4044 
L 2578 4044 
Q 2606 4044 2631 4025 
Q 2656 4006 2673 3965 
Q 2691 3925 2698 3858 
Q 2706 3791 2706 3697 
Q 2706 3509 2673 3425 
Q 2641 3341 2578 3341 
L 1141 3341 
L 1141 2475 
Q 1250 2488 1358 2491 
Q 1466 2494 1584 2494 
Q 1913 2494 2167 2417 
Q 2422 2341 2595 2192 
Q 2769 2044 2859 1823 
Q 2950 1603 2950 1313 
z
" transform="scale(0.015625)"/>
       </defs>
       <use xlink:href="#Calibri-Bold-32"/>
       <use xlink:href="#Calibri-Bold-35" transform="translate(50.683594 0)"/>
      </g>
     </g>
    </g>
    <g id="ytick_33">
     <g id="line2d_44">
      <g>
       <use xlink:href="#m24643c191e" x="389.828571" y="363.686379" style="stroke: #000000; stroke-width: 2"/>
      </g>
     </g>
     <g id="text_64">
      <!-- 50 -->
      <g style="fill: #e96929" transform="translate(396.828571 368.784036) scale(0.15 -0.15)">
       <use xlink:href="#Calibri-Bold-35"/>
       <use xlink:href="#Calibri-Bold-30" transform="translate(50.683594 0)"/>
      </g>
     </g>
    </g>
    <g id="ytick_34">
     <g id="line2d_45">
      <g>
       <use xlink:href="#m24643c191e" x="389.828571" y="330.039063" style="stroke: #000000; stroke-width: 2"/>
      </g>
     </g>
     <g id="text_65">
      <!-- 75 -->
      <g style="fill: #e96929" transform="translate(396.828571 335.136719) scale(0.15 -0.15)">
       <use xlink:href="#Calibri-Bold-37"/>
       <use xlink:href="#Calibri-Bold-35" transform="translate(50.683594 0)"/>
      </g>
     </g>
    </g>
    <g id="text_66">
     <!-- CHO (g) -->
     <g style="fill: #e96929" transform="translate(426.464509 404.208866) rotate(-90) scale(0.15 -0.15)">
      <use xlink:href="#Calibri-Bold-43"/>
      <use xlink:href="#Calibri-Bold-48" transform="translate(52.929688 0)"/>
      <use xlink:href="#Calibri-Bold-4f" transform="translate(116.015625 0)"/>
      <use xlink:href="#Calibri-Bold-20" transform="translate(183.642578 0)"/>
      <use xlink:href="#Calibri-Bold-28" transform="translate(206.25 0)"/>
      <use xlink:href="#Calibri-Bold-67" transform="translate(237.402344 0)"/>
      <use xlink:href="#Calibri-Bold-29" transform="translate(284.814453 0)"/>
     </g>
    </g>
   </g>
   <g id="line2d_46">
    <path d="M 48.195918 430.981012 
L 57.223763 430.981012 
L 57.698913 330.039063 
L 58.174063 430.981012 
L 389.828571 430.981012 
L 389.828571 430.981012 
" clip-path="url(#p4ebe142ab6)" style="fill: none; stroke: #e96929; stroke-width: 3; stroke-linecap: square"/>
   </g>
   <g id="patch_22">
    <path d="M 389.828571 436.02811 
L 389.828571 324.991965 
" style="fill: none; stroke: #000000; stroke-width: 2; stroke-linejoin: miter; stroke-linecap: square"/>
   </g>
   <g id="patch_23">
    <path d="M 48.195918 436.02811 
L 389.828571 436.02811 
" style="fill: none; stroke: #000000; stroke-width: 2; stroke-linejoin: miter; stroke-linecap: square"/>
   </g>
  </g>
  <g id="axes_10">
   <g id="matplotlib.axis_14">
    <g id="ytick_35">
     <g id="line2d_47">
      <g>
       <use xlink:href="#m24643c191e" x="877.22449" y="430.981012" style="stroke: #000000; stroke-width: 2"/>
      </g>
     </g>
     <g id="text_67">
      <!-- 0 -->
      <g style="fill: #e96929" transform="translate(884.22449 436.078669) scale(0.15 -0.15)">
       <use xlink:href="#Calibri-Bold-30"/>
      </g>
     </g>
    </g>
    <g id="ytick_36">
     <g id="line2d_48">
      <g>
       <use xlink:href="#m24643c191e" x="877.22449" y="397.333696" style="stroke: #000000; stroke-width: 2"/>
      </g>
     </g>
     <g id="text_68">
      <!-- 25 -->
      <g style="fill: #e96929" transform="translate(884.22449 402.431352) scale(0.15 -0.15)">
       <use xlink:href="#Calibri-Bold-32"/>
       <use xlink:href="#Calibri-Bold-35" transform="translate(50.683594 0)"/>
      </g>
     </g>
    </g>
    <g id="ytick_37">
     <g id="line2d_49">
      <g>
       <use xlink:href="#m24643c191e" x="877.22449" y="363.686379" style="stroke: #000000; stroke-width: 2"/>
      </g>
     </g>
     <g id="text_69">
      <!-- 50 -->
      <g style="fill: #e96929" transform="translate(884.22449 368.784036) scale(0.15 -0.15)">
       <use xlink:href="#Calibri-Bold-35"/>
       <use xlink:href="#Calibri-Bold-30" transform="translate(50.683594 0)"/>
      </g>
     </g>
    </g>
    <g id="ytick_38">
     <g id="line2d_50">
      <g>
       <use xlink:href="#m24643c191e" x="877.22449" y="330.039063" style="stroke: #000000; stroke-width: 2"/>
      </g>
     </g>
     <g id="text_70">
      <!-- 75 -->
      <g style="fill: #e96929" transform="translate(884.22449 335.136719) scale(0.15 -0.15)">
       <use xlink:href="#Calibri-Bold-37"/>
       <use xlink:href="#Calibri-Bold-35" transform="translate(50.683594 0)"/>
      </g>
     </g>
    </g>
    <g id="text_71">
     <!-- CHO (g) -->
     <g style="fill: #e96929" transform="translate(913.860427 404.208866) rotate(-90) scale(0.15 -0.15)">
      <use xlink:href="#Calibri-Bold-43"/>
      <use xlink:href="#Calibri-Bold-48" transform="translate(52.929688 0)"/>
      <use xlink:href="#Calibri-Bold-4f" transform="translate(116.015625 0)"/>
      <use xlink:href="#Calibri-Bold-20" transform="translate(183.642578 0)"/>
      <use xlink:href="#Calibri-Bold-28" transform="translate(206.25 0)"/>
      <use xlink:href="#Calibri-Bold-67" transform="translate(237.402344 0)"/>
      <use xlink:href="#Calibri-Bold-29" transform="translate(284.814453 0)"/>
     </g>
    </g>
   </g>
   <g id="line2d_51">
    <path d="M 535.591837 430.981012 
L 544.619682 430.981012 
L 545.094831 330.039063 
L 545.569981 430.981012 
L 877.22449 430.981012 
L 877.22449 430.981012 
" clip-path="url(#p5e11cc640a)" style="fill: none; stroke: #e96929; stroke-width: 3; stroke-linecap: square"/>
   </g>
   <g id="patch_24">
    <path d="M 877.22449 436.02811 
L 877.22449 324.991965 
" style="fill: none; stroke: #000000; stroke-width: 2; stroke-linejoin: miter; stroke-linecap: square"/>
   </g>
   <g id="patch_25">
    <path d="M 535.591837 436.02811 
L 877.22449 436.02811 
" style="fill: none; stroke: #000000; stroke-width: 2; stroke-linejoin: miter; stroke-linecap: square"/>
   </g>
  </g>
 </g>
 <defs>
  <clipPath id="p5664a49d98">
   <rect x="48.195918" y="36.297989" width="341.632653" height="222.072289"/>
  </clipPath>
  <clipPath id="p4ebe142ab6">
   <rect x="48.195918" y="324.991965" width="341.632653" height="111.036145"/>
  </clipPath>
  <clipPath id="p9791d400a4">
   <rect x="413.742857" y="36.297989" width="39.857143" height="222.072289"/>
  </clipPath>
  <clipPath id="p092d79ca9c">
   <rect x="535.591837" y="36.297989" width="341.632653" height="222.072289"/>
  </clipPath>
  <clipPath id="p5e11cc640a">
   <rect x="535.591837" y="324.991965" width="341.632653" height="111.036145"/>
  </clipPath>
  <clipPath id="pccf85522ff">
   <rect x="901.138776" y="36.297989" width="39.857143" height="222.072289"/>
  </clipPath>
 </defs>
</svg>
