<?xml version="1.0" encoding="utf-8" standalone="no"?>
<!DOCTYPE svg PUBLIC "-//W3C//DTD SVG 1.1//EN"
  "http://www.w3.org/Graphics/SVG/1.1/DTD/svg11.dtd">
<svg xmlns:xlink="http://www.w3.org/1999/xlink" width="180.72pt" height="180.72pt" viewBox="0 0 180.72 180.72" xmlns="http://www.w3.org/2000/svg" version="1.1">
 <metadata>
  <rdf:RDF xmlns:dc="http://purl.org/dc/elements/1.1/" xmlns:cc="http://creativecommons.org/ns#" xmlns:rdf="http://www.w3.org/1999/02/22-rdf-syntax-ns#">
   <cc:Work>
    <dc:type rdf:resource="http://purl.org/dc/dcmitype/StillImage"/>
    <dc:date>2026-02-26T09:40:44.311580</dc:date>
    <dc:format>image/svg+xml</dc:format>
    <dc:creator>
     <cc:Agent>
      <dc:title>Matplotlib v3.10.8, https://matplotlib.org/</dc:title>
     </cc:Agent>
    </dc:creator>
   </cc:Work>
  </rdf:RDF>
 </metadata>
 <defs>
  <style type="text/css">*{stroke-linejoin: round; stroke-linecap: butt}</style>
 </defs>
 <g id="figure_1">
  <g id="patch_1">
   <path d="M 0 180.72 
L 180.72 180.72 
L 180.72 0 
L 0 0 
z
" style="fill: #ffffff"/>
  </g>
  <g id="axes_1">
   <g id="patch_2">
    <path d="M 27.1584 126.9504 
L 150.2352 126.9504 
Q 156.888 126.9504 156.888 120.2976 
L 156.888 53.7696 
Q 156.888 47.1168 150.2352 47.1168 
L 27.1584 47.1168 
Q 20.5056 47.1168 20.5056 53.7696 
L 20.5056 120.2976 
Q 20.5056 126.9504 27.1584 126.9504 
z
" clip-path="url(#p11059e4fd6)" style="fill: #ececec; opacity: 0.85"/>
   </g>
   <g id="patch_3">
    <path d="M 68.83633 64.998112 
C 65.880842 67.506322 63.38641 70.51195 61.465842 73.879062 
C 59.545275 77.246174 58.227975 80.923226 57.573519 84.743921 
C 56.919061 88.564615 56.937468 92.470472 57.627904 96.28483 
C 58.31834 100.099187 59.670238 103.763662 61.622453 107.112524 
C 63.574668 110.461384 66.097318 113.443368 69.076312 115.923613 
C 72.055306 118.403858 75.445052 120.344397 79.092227 121.65746 
C 82.739402 122.970524 86.588184 123.636015 90.464506 123.623835 
C 94.340828 123.611658 98.185352 122.921995 101.824205 121.586042 
C 105.463057 120.250088 108.840534 118.288293 111.803887 115.789381 
C 114.767239 113.290469 117.271104 110.292691 119.202239 106.93163 
C 121.133374 103.570569 122.462222 99.897664 123.128677 96.079044 
C 123.795134 92.260424 123.788995 88.354528 123.110545 84.538021 
C 122.432095 80.721515 121.091718 77.052811 119.150031 73.697833 
C 117.208344 70.342856 114.695076 67.352959 111.723885 64.86337 
C 108.752695 62.373781 105.369072 60.422607 101.72604 59.098093 
C 98.083007 57.77358 94.23634 57.096 90.359999 57.096 
L 90.36 90.36 
z
" style="fill: #b5e6cc; stroke: #ffffff; stroke-width: 2; stroke-linejoin: miter"/>
   </g>
   <g id="patch_4">
    <path d="M 90.36 57.096 
C 86.44856 57.096 82.567607 57.785904 78.895805 59.133954 
C 75.224003 60.482004 71.818579 62.467191 68.83633 64.998112 
L 90.36 90.36 
z
" style="fill: #ffb347; stroke: #ffffff; stroke-width: 2; stroke-linejoin: miter"/>
   </g>
   <g id="matplotlib.axis_1"/>
   <g id="matplotlib.axis_2"/>
   <g id="text_1">
    <!-- 88.8% -->
    <g transform="translate(71.444069 108.620553) scale(0.18 -0.18)">
     <defs>
      <path id="Calibri-38" d="M 2981 1038 
Q 2981 775 2887 570 
Q 2794 366 2617 225 
Q 2441 84 2181 12 
Q 1922 -59 1588 -59 
Q 1275 -59 1028 6 
Q 781 72 609 200 
Q 438 328 347 515 
Q 256 703 256 944 
Q 256 1134 318 1293 
Q 381 1453 498 1587 
Q 616 1722 787 1839 
Q 959 1956 1175 2063 
Q 988 2159 844 2267 
Q 700 2375 600 2501 
Q 500 2628 448 2772 
Q 397 2916 397 3084 
Q 397 3297 473 3483 
Q 550 3669 704 3806 
Q 859 3944 1098 4023 
Q 1338 4103 1656 4103 
Q 1963 4103 2186 4029 
Q 2409 3956 2554 3829 
Q 2700 3703 2769 3531 
Q 2838 3359 2838 3163 
Q 2838 3003 2786 2856 
Q 2734 2709 2634 2578 
Q 2534 2447 2389 2333 
Q 2244 2219 2056 2119 
Q 2278 2009 2451 1893 
Q 2625 1778 2742 1645 
Q 2859 1513 2920 1364 
Q 2981 1216 2981 1038 
z
M 2306 3113 
Q 2306 3244 2261 3350 
Q 2216 3456 2128 3531 
Q 2041 3606 1911 3645 
Q 1781 3684 1616 3684 
Q 1278 3684 1104 3531 
Q 931 3378 931 3113 
Q 931 2991 973 2886 
Q 1016 2781 1105 2687 
Q 1194 2594 1330 2505 
Q 1466 2416 1653 2319 
Q 1969 2481 2137 2678 
Q 2306 2875 2306 3113 
z
M 2438 981 
Q 2438 1125 2384 1242 
Q 2331 1359 2223 1461 
Q 2116 1563 1955 1658 
Q 1794 1753 1581 1856 
Q 1384 1759 1236 1662 
Q 1088 1566 992 1462 
Q 897 1359 848 1245 
Q 800 1131 800 994 
Q 800 691 1008 525 
Q 1216 359 1628 359 
Q 2028 359 2233 526 
Q 2438 694 2438 981 
z
" transform="scale(0.015625)"/>
      <path id="Calibri-2e" d="M 1144 341 
Q 1144 119 1070 45 
Q 997 -28 803 -28 
Q 616 -28 544 44 
Q 472 116 472 331 
Q 472 553 545 626 
Q 619 700 813 700 
Q 1000 700 1072 628 
Q 1144 556 1144 341 
z
" transform="scale(0.015625)"/>
      <path id="Calibri-25" d="M 1964 3070 
Q 1964 2829 1910 2632 
Q 1857 2436 1748 2296 
Q 1639 2157 1471 2079 
Q 1304 2001 1079 2001 
Q 851 2001 688 2073 
Q 526 2145 423 2281 
Q 320 2417 271 2612 
Q 223 2807 223 3057 
Q 223 3286 274 3479 
Q 326 3673 432 3813 
Q 539 3954 706 4035 
Q 873 4117 1101 4117 
Q 1348 4117 1515 4032 
Q 1682 3948 1782 3806 
Q 1882 3664 1923 3473 
Q 1964 3282 1964 3070 
z
M 1526 3054 
Q 1526 3229 1501 3365 
Q 1476 3501 1424 3591 
Q 1373 3682 1288 3727 
Q 1204 3773 1089 3773 
Q 979 3773 898 3729 
Q 817 3686 765 3598 
Q 714 3511 689 3381 
Q 664 3251 664 3076 
Q 664 2864 693 2721 
Q 723 2579 777 2496 
Q 832 2414 915 2381 
Q 998 2348 1104 2348 
Q 1229 2348 1309 2395 
Q 1389 2442 1437 2534 
Q 1486 2626 1506 2756 
Q 1526 2886 1526 3054 
z
M 4348 1022 
Q 4348 781 4294 584 
Q 4241 388 4132 248 
Q 4023 109 3855 31 
Q 3688 -47 3463 -47 
Q 3235 -47 3072 25 
Q 2910 97 2807 233 
Q 2704 369 2655 564 
Q 2607 759 2607 1009 
Q 2607 1238 2658 1431 
Q 2710 1625 2816 1765 
Q 2923 1906 3090 1987 
Q 3257 2069 3485 2069 
Q 3732 2069 3899 1984 
Q 4066 1900 4166 1758 
Q 4266 1616 4307 1425 
Q 4348 1234 4348 1022 
z
M 3910 1006 
Q 3910 1181 3885 1317 
Q 3860 1453 3808 1543 
Q 3757 1634 3672 1679 
Q 3588 1725 3473 1725 
Q 3363 1725 3282 1681 
Q 3201 1638 3149 1550 
Q 3098 1463 3073 1333 
Q 3048 1203 3048 1028 
Q 3048 816 3077 673 
Q 3107 531 3161 448 
Q 3216 366 3299 333 
Q 3382 300 3488 300 
Q 3613 300 3693 347 
Q 3773 394 3821 486 
Q 3870 578 3890 708 
Q 3910 838 3910 1006 
z
M 1078 -25 
Q 1062 -53 1040 -67 
Q 1018 -81 987 -92 
Q 956 -103 912 -108 
Q 868 -113 806 -113 
Q 737 -113 695 -100 
Q 653 -88 635 -67 
Q 618 -47 623 -17 
Q 628 13 653 50 
L 3465 4078 
Q 3481 4103 3503 4120 
Q 3525 4138 3557 4147 
Q 3590 4156 3632 4161 
Q 3675 4166 3740 4166 
Q 3806 4166 3848 4155 
Q 3890 4144 3909 4122 
Q 3928 4100 3923 4069 
Q 3918 4038 3893 4003 
L 1078 -25 
z
" transform="scale(0.015625)"/>
     </defs>
     <use xlink:href="#Calibri-38"/>
     <use xlink:href="#Calibri-38" transform="translate(50.683594 0)"/>
     <use xlink:href="#Calibri-2e" transform="translate(101.367188 0)"/>
     <use xlink:href="#Calibri-38" transform="translate(126.611328 0)"/>
     <use xlink:href="#Calibri-25" transform="translate(177.294922 0)"/>
    </g>
   </g>
   <g id="text_2">
    <!-- 11.2% -->
    <g transform="translate(32.965949 60.532443) scale(0.18 -0.18)">
     <defs>
      <path id="Calibri-31" d="M 2897 213 
Q 2897 153 2887 112 
Q 2878 72 2862 47 
Q 2847 22 2826 11 
Q 2806 0 2784 0 
L 672 0 
Q 650 0 631 11 
Q 613 22 595 47 
Q 578 72 568 112 
Q 559 153 559 213 
Q 559 269 568 309 
Q 578 350 592 376 
Q 606 403 626 417 
Q 647 431 672 431 
L 1516 431 
L 1516 3506 
L 734 3041 
Q 675 3009 639 3003 
Q 603 2997 581 3017 
Q 559 3038 551 3084 
Q 544 3131 544 3203 
Q 544 3256 548 3293 
Q 553 3331 562 3356 
Q 572 3381 589 3400 
Q 606 3419 634 3438 
L 1566 4034 
Q 1578 4044 1597 4050 
Q 1616 4056 1644 4062 
Q 1672 4069 1709 4070 
Q 1747 4072 1803 4072 
Q 1878 4072 1928 4065 
Q 1978 4059 2006 4048 
Q 2034 4038 2043 4020 
Q 2053 4003 2053 3984 
L 2053 431 
L 2784 431 
Q 2809 431 2831 417 
Q 2853 403 2867 376 
Q 2881 350 2889 309 
Q 2897 269 2897 213 
z
" transform="scale(0.015625)"/>
      <path id="Calibri-32" d="M 2888 231 
Q 2888 175 2880 131 
Q 2872 88 2858 58 
Q 2844 28 2820 14 
Q 2797 0 2769 0 
L 534 0 
Q 491 0 458 11 
Q 425 22 401 47 
Q 378 72 367 119 
Q 356 166 356 234 
Q 356 297 361 344 
Q 366 391 381 427 
Q 397 463 420 498 
Q 444 534 481 575 
L 1266 1406 
Q 1538 1694 1702 1922 
Q 1866 2150 1955 2337 
Q 2044 2525 2072 2678 
Q 2100 2831 2100 2966 
Q 2100 3100 2056 3220 
Q 2013 3341 1930 3431 
Q 1847 3522 1722 3575 
Q 1597 3628 1434 3628 
Q 1244 3628 1092 3575 
Q 941 3522 827 3459 
Q 713 3397 636 3344 
Q 559 3291 522 3291 
Q 500 3291 483 3303 
Q 466 3316 455 3344 
Q 444 3372 437 3419 
Q 431 3466 431 3531 
Q 431 3578 434 3612 
Q 438 3647 445 3672 
Q 453 3697 465 3719 
Q 478 3741 515 3773 
Q 553 3806 645 3862 
Q 738 3919 877 3973 
Q 1016 4028 1183 4065 
Q 1350 4103 1534 4103 
Q 1828 4103 2048 4020 
Q 2269 3938 2414 3794 
Q 2559 3650 2631 3459 
Q 2703 3269 2703 3053 
Q 2703 2859 2668 2667 
Q 2634 2475 2523 2251 
Q 2413 2028 2203 1754 
Q 1994 1481 1647 1125 
L 1006 456 
L 2766 456 
Q 2791 456 2814 442 
Q 2838 428 2855 400 
Q 2872 372 2880 330 
Q 2888 288 2888 231 
z
" transform="scale(0.015625)"/>
     </defs>
     <use xlink:href="#Calibri-31"/>
     <use xlink:href="#Calibri-31" transform="translate(50.683594 0)"/>
     <use xlink:href="#Calibri-2e" transform="translate(101.367188 0)"/>
     <use xlink:href="#Calibri-32" transform="translate(126.611328 0)"/>
     <use xlink:href="#Calibri-25" transform="translate(177.294922 0)"/>
    </g>
   </g>
   <g id="text_3">
    <!-- TIR -->
    <g transform="translate(130.2768 94.127578) scale(0.15 -0.15)">
     <defs>
      <path id="Calibri-54" d="M 3072 3813 
Q 3072 3753 3065 3709 
Q 3059 3666 3045 3639 
Q 3031 3613 3011 3600 
Q 2991 3588 2966 3588 
L 1828 3588 
L 1828 81 
Q 1828 56 1815 37 
Q 1803 19 1772 8 
Q 1741 -3 1689 -11 
Q 1638 -19 1559 -19 
Q 1484 -19 1431 -11 
Q 1378 -3 1347 8 
Q 1316 19 1303 37 
Q 1291 56 1291 81 
L 1291 3588 
L 153 3588 
Q 128 3588 108 3600 
Q 88 3613 75 3639 
Q 63 3666 55 3709 
Q 47 3753 47 3813 
Q 47 3872 55 3917 
Q 63 3963 75 3991 
Q 88 4019 108 4031 
Q 128 4044 153 4044 
L 2966 4044 
Q 2991 4044 3011 4031 
Q 3031 4019 3045 3991 
Q 3059 3963 3065 3917 
Q 3072 3872 3072 3813 
z
" transform="scale(0.015625)"/>
      <path id="Calibri-49" d="M 1075 81 
Q 1075 56 1062 37 
Q 1050 19 1019 8 
Q 988 -3 936 -11 
Q 884 -19 806 -19 
Q 731 -19 678 -11 
Q 625 -3 594 8 
Q 563 19 550 37 
Q 538 56 538 81 
L 538 3963 
Q 538 3988 552 4006 
Q 566 4025 598 4036 
Q 631 4047 682 4055 
Q 734 4063 806 4063 
Q 884 4063 936 4055 
Q 988 4047 1019 4036 
Q 1050 4025 1062 4006 
Q 1075 3988 1075 3963 
L 1075 81 
z
" transform="scale(0.015625)"/>
      <path id="Calibri-52" d="M 3234 81 
Q 3234 56 3225 37 
Q 3216 19 3184 6 
Q 3153 -6 3097 -12 
Q 3041 -19 2947 -19 
Q 2866 -19 2814 -12 
Q 2763 -6 2731 8 
Q 2700 22 2683 47 
Q 2666 72 2653 109 
L 2281 1063 
Q 2216 1225 2145 1361 
Q 2075 1497 1978 1595 
Q 1881 1694 1750 1748 
Q 1619 1803 1434 1803 
L 1075 1803 
L 1075 81 
Q 1075 56 1061 37 
Q 1047 19 1017 8 
Q 988 -3 936 -11 
Q 884 -19 806 -19 
Q 728 -19 676 -11 
Q 625 -3 594 8 
Q 563 19 550 37 
Q 538 56 538 81 
L 538 3825 
Q 538 3947 602 3995 
Q 666 4044 738 4044 
L 1597 4044 
Q 1750 4044 1851 4036 
Q 1953 4028 2034 4019 
Q 2269 3978 2448 3890 
Q 2628 3803 2750 3668 
Q 2872 3534 2933 3361 
Q 2994 3188 2994 2978 
Q 2994 2775 2939 2614 
Q 2884 2453 2781 2329 
Q 2678 2206 2534 2115 
Q 2391 2025 2213 1963 
Q 2313 1919 2394 1851 
Q 2475 1784 2545 1690 
Q 2616 1597 2678 1475 
Q 2741 1353 2803 1200 
L 3166 309 
Q 3209 197 3221 151 
Q 3234 106 3234 81 
z
M 2425 2922 
Q 2425 3159 2319 3323 
Q 2213 3488 1963 3559 
Q 1884 3581 1786 3590 
Q 1688 3600 1528 3600 
L 1075 3600 
L 1075 2238 
L 1600 2238 
Q 1813 2238 1967 2289 
Q 2122 2341 2225 2433 
Q 2328 2525 2376 2650 
Q 2425 2775 2425 2922 
z
" transform="scale(0.015625)"/>
     </defs>
     <use xlink:href="#Calibri-54"/>
     <use xlink:href="#Calibri-49" transform="translate(48.730469 0)"/>
     <use xlink:href="#Calibri-52" transform="translate(73.925781 0)"/>
    </g>
   </g>
   <g id="text_4">
    <!-- TAR -->
    <g transform="translate(26.309606 94.127578) scale(0.15 -0.15)">
     <defs>
      <path id="Calibri-41" d="M 3566 191 
Q 3591 122 3592 80 
Q 3594 38 3569 16 
Q 3544 -6 3486 -12 
Q 3428 -19 3331 -19 
Q 3234 -19 3176 -14 
Q 3119 -9 3089 2 
Q 3059 13 3045 31 
Q 3031 50 3019 78 
L 2672 1063 
L 991 1063 
L 659 91 
Q 650 63 634 42 
Q 619 22 589 8 
Q 559 -6 504 -12 
Q 450 -19 363 -19 
Q 272 -19 214 -11 
Q 156 -3 132 19 
Q 109 41 111 83 
Q 113 125 138 194 
L 1494 3950 
Q 1506 3984 1526 4006 
Q 1547 4028 1586 4040 
Q 1625 4053 1686 4058 
Q 1747 4063 1841 4063 
Q 1941 4063 2006 4058 
Q 2072 4053 2112 4040 
Q 2153 4028 2175 4004 
Q 2197 3981 2209 3947 
L 3566 191 
z
M 1825 3506 
L 1822 3506 
L 1125 1491 
L 2531 1491 
L 1825 3506 
z
" transform="scale(0.015625)"/>
     </defs>
     <use xlink:href="#Calibri-54"/>
     <use xlink:href="#Calibri-41" transform="translate(48.730469 0)"/>
     <use xlink:href="#Calibri-52" transform="translate(106.591797 0)"/>
    </g>
   </g>
   <g id="line2d_1">
    <path d="M 108.448453 81.925216 
L 128.94624 90.36 
" clip-path="url(#p11059e4fd6)" style="fill: none; stroke: #404040; stroke-width: 1.2; stroke-linecap: square"/>
   </g>
   <g id="line2d_2">
    <path d="M 82.335057 68.50177 
L 51.77376 90.36 
" clip-path="url(#p11059e4fd6)" style="fill: none; stroke: #404040; stroke-width: 1.2; stroke-linecap: square"/>
   </g>
   <g id="line2d_3">
    <defs>
     <path id="m9a6bcd9c49" d="M 0 2.5 
C 0.663008 2.5 1.29895 2.236584 1.767767 1.767767 
C 2.236584 1.29895 2.5 0.663008 2.5 0 
C 2.5 -0.663008 2.236584 -1.29895 1.767767 -1.767767 
C 1.29895 -2.236584 0.663008 -2.5 0 -2.5 
C -0.663008 -2.5 -1.29895 -2.236584 -1.767767 -1.767767 
C -2.236584 -1.29895 -2.5 -0.663008 -2.5 0 
C -2.5 0.663008 -2.236584 1.29895 -1.767767 1.767767 
C -1.29895 2.236584 -0.663008 2.5 0 2.5 
z
" style="stroke: #404040"/>
    </defs>
    <g clip-path="url(#p11059e4fd6)">
     <use xlink:href="#m9a6bcd9c49" x="108.448453" y="81.925216" style="fill: #404040; stroke: #404040"/>
    </g>
   </g>
   <g id="line2d_4">
    <g clip-path="url(#p11059e4fd6)">
     <use xlink:href="#m9a6bcd9c49" x="82.335057" y="68.50177" style="fill: #404040; stroke: #404040"/>
    </g>
   </g>
  </g>
 </g>
 <defs>
  <clipPath id="p11059e4fd6">
   <rect x="7.2" y="7.2" width="166.32" height="166.32"/>
  </clipPath>
 </defs>
</svg>
